<?xml version="1.0" encoding="utf-8"?>
<!-- Generator: Adobe Illustrator 24.1.0, SVG Export Plug-In . SVG Version: 6.00 Build 0)  -->
<svg version="1.1" xmlns="http://www.w3.org/2000/svg" xmlns:xlink="http://www.w3.org/1999/xlink" x="0px" y="0px"
	 viewBox="0 0 800 479.29" style="enable-background:new 0 0 800 479.29;" xml:space="preserve">
<style type="text/css">
	.st0{clip-path:url(#SVGID_2_);}
	.st1{fill:#1A1A1A;}
	.st2{clip-path:url(#SVGID_2_);fill:#1A1A1A;}
	.st3{fill:#015FA3;}
	.st4{font-family:'Roboto-Medium';}
	.st5{font-size:14px;}
	.st6{fill:none;}
	.st7{font-family:'Raleway-SemiBold';}
	.st8{font-size:11px;}
	.st9{font-family:'Raleway-ExtraBold';}
	.st10{fill:none;stroke:#D4F1FF;stroke-width:4;stroke-miterlimit:10;}
	.st11{fill:#77A331;}
	.st12{fill:none;stroke:#EFFFD7;stroke-width:4;stroke-miterlimit:10;}
	.st13{clip-path:url(#SVGID_4_);}
	.st14{clip-path:url(#SVGID_7_);}
	.st15{clip-path:url(#SVGID_18_);fill:#1A1A1A;}
	.st16{clip-path:url(#SVGID_20_);}
	.st17{clip-path:url(#SVGID_20_);fill:#1A1A1A;}
	.st18{clip-path:url(#SVGID_22_);}
	.st19{clip-path:url(#SVGID_25_);}
	.st20{clip-path:url(#SVGID_36_);fill:#1A1A1A;}
	.st21{font-size:12px;}
	.st22{font-family:'Raleway-Medium';}
</style>
<g id="Layer_3">
</g>
<g id="Layer_1">
	<g>
		<defs>
			<circle id="SVGID_1_" cx="67.98" cy="67.98" r="27.98"/>
		</defs>
		<use xlink:href="#SVGID_1_"  style="overflow:visible;fill:#D4F1FF;"/>
		<clipPath id="SVGID_2_">
			<use xlink:href="#SVGID_1_"  style="overflow:visible;"/>
		</clipPath>
		<g class="st0">
			<g>
				<path class="st1" d="M61.83,77.58c-0.12,0-0.21-0.1-0.21-0.21v-6.92c0-0.12,0.1-0.21,0.21-0.21c0.12,0,0.21,0.1,0.21,0.21v6.92
					C62.04,77.49,61.95,77.58,61.83,77.58z"/>
				<path class="st1" d="M74.13,77.58c-0.12,0-0.21-0.1-0.21-0.21v-7.29c0-0.12,0.1-0.21,0.21-0.21s0.21,0.1,0.21,0.21v7.29
					C74.35,77.49,74.25,77.58,74.13,77.58z"/>
			</g>
			<g>
				<path class="st1" d="M90.56,94.73c-0.12,0-0.21-0.1-0.21-0.21c0-5.1-3.54-8.95-6.51-11.27c-1.47-1.15-3.15-2.04-4.99-2.64
					c-1.42-0.46-4.08-2.48-4.71-2.96c-6.23,4.69-11.24,0.93-12.26,0.05c-1.05,1.46-3.14,2.38-4.75,2.9
					c-1.84,0.6-3.52,1.49-4.99,2.64c-2.97,2.33-6.51,6.17-6.51,11.27c0,0.12-0.1,0.21-0.21,0.21c-0.12,0-0.21-0.1-0.21-0.21
					c0-5.28,3.63-9.23,6.68-11.61c1.51-1.18,3.24-2.1,5.12-2.71c1.62-0.53,3.74-1.46,4.66-2.94c0.03-0.06,0.09-0.09,0.16-0.1
					c0.06-0.01,0.13,0.02,0.18,0.06c0.01,0.01,1.34,1.32,3.47,1.96c2.85,0.86,5.73,0.19,8.55-1.98c0.08-0.06,0.19-0.06,0.26,0
					c0.03,0.02,3.2,2.5,4.71,2.99c1.89,0.62,3.61,1.53,5.12,2.71c3.05,2.38,6.68,6.33,6.68,11.61
					C90.78,94.63,90.68,94.73,90.56,94.73z"/>
				<path class="st1" d="M67.76,83.48c-1.17,0-2.38-0.19-3.61-0.63c-3.09-1.11-4.8-3.25-4.87-3.34c-0.07-0.09-0.06-0.23,0.04-0.3
					c0.09-0.07,0.23-0.06,0.3,0.04c0.27,0.35,6.83,8.4,17.4,0.07c0.09-0.07,0.23-0.06,0.3,0.04c0.07,0.09,0.06,0.23-0.04,0.3
					C74.89,81.55,71.52,83.48,67.76,83.48z"/>
				<path class="st1" d="M86.63,85.87H49.37c-0.12,0-0.21-0.1-0.21-0.21s0.1-0.21,0.21-0.21h37.26c0.12,0,0.21,0.1,0.21,0.21
					S86.75,85.87,86.63,85.87z"/>
				<path class="st1" d="M90.35,93.32H45.66c-0.12,0-0.21-0.1-0.21-0.21s0.1-0.21,0.21-0.21h44.69c0.12,0,0.21,0.1,0.21,0.21
					S90.46,93.32,90.35,93.32z"/>
				<path class="st1" d="M90.35,97.59H45.66c-0.12,0-0.21-0.1-0.21-0.21s0.1-0.21,0.21-0.21h44.69c0.12,0,0.21,0.1,0.21,0.21
					S90.46,97.59,90.35,97.59z"/>
				<path class="st1" d="M90.35,101.87H45.66c-0.12,0-0.21-0.1-0.21-0.21s0.1-0.21,0.21-0.21h44.69c0.12,0,0.21,0.1,0.21,0.21
					S90.46,101.87,90.35,101.87z"/>
				<path class="st1" d="M89.34,89.59H46.8c-0.12,0-0.21-0.1-0.21-0.21s0.1-0.21,0.21-0.21h42.53c0.12,0,0.21,0.1,0.21,0.21
					S89.45,89.59,89.34,89.59z"/>
				<path class="st1" d="M67.81,73.68c-2.17,0-4.01-0.77-5.46-2.3c-2.25-2.36-3.17-6.13-3.56-8.87c-0.41-2.96-0.3-5.41-0.3-5.43
					c-0.01-0.16-0.18-4.39,2.6-7.3c1.67-1.75,4.04-2.64,7.06-2.64c2.7,0,4.82,0.82,6.31,2.43c2.65,2.86,2.39,7.18,2.37,7.52
					c0.01,0.21,0.14,2.58-0.2,5.42c-0.33,2.75-1.19,6.52-3.4,8.88C71.8,72.91,69.98,73.68,67.81,73.68z M68.15,47.55
					c-2.89,0-5.16,0.84-6.75,2.51c-2.65,2.78-2.48,6.97-2.48,7.01c0,0.12-0.42,9.65,3.74,14.01c1.37,1.44,3.1,2.17,5.15,2.17
					c2.05,0,3.76-0.73,5.11-2.16c4.08-4.36,3.49-13.9,3.48-13.99l0-0.02l0-0.02c0-0.04,0.31-4.44-2.26-7.22
					C72.74,48.33,70.72,47.55,68.15,47.55z"/>
				<path class="st1" d="M76.84,65.41c-0.4,0-0.74-0.19-1-0.54l0.34-0.25c0.18,0.25,0.42,0.37,0.69,0.36
					c0.51-0.02,1.14-0.5,1.59-1.22c0.48-0.77,0.83-2.16,0.59-3.15c-0.09-0.39-0.27-0.66-0.52-0.81c-0.91-0.54-1.71,0.58-1.74,0.63
					l-0.35-0.24c0.36-0.52,1.3-1.35,2.31-0.75c0.35,0.21,0.59,0.57,0.72,1.07c0.27,1.1-0.12,2.63-0.64,3.48
					c-0.53,0.85-1.28,1.4-1.94,1.42C76.87,65.41,76.85,65.41,76.84,65.41z"/>
				<path class="st1" d="M76.4,62.64c-0.02,0-0.03,0-0.05-0.01c-0.05-0.03-0.08-0.09-0.05-0.14c0.91-1.89,2.24-1.47,2.25-1.47
					c0.06,0.02,0.09,0.08,0.07,0.13c-0.02,0.06-0.08,0.09-0.13,0.07c-0.05-0.01-1.16-0.36-1.99,1.36
					C76.48,62.62,76.44,62.64,76.4,62.64z"/>
				<path class="st1" d="M77.46,63.56c-0.02,0-0.05-0.01-0.07-0.02c-0.05-0.04-0.05-0.1-0.01-0.15c0.23-0.28,0.32-0.55,0.27-0.82
					c-0.1-0.51-0.69-0.83-0.69-0.83c-0.05-0.03-0.07-0.09-0.04-0.14c0.03-0.05,0.09-0.07,0.14-0.04c0.03,0.01,0.68,0.37,0.8,0.97
					c0.07,0.33-0.04,0.66-0.31,0.99C77.52,63.54,77.49,63.56,77.46,63.56z"/>
				<path class="st1" d="M58.55,65.41c-0.02,0-0.03,0-0.05,0c-0.66-0.02-1.41-0.57-1.94-1.42c-0.53-0.84-0.91-2.37-0.64-3.48
					c0.12-0.5,0.36-0.86,0.72-1.07c1-0.59,1.95,0.23,2.31,0.75l-0.35,0.24c-0.03-0.05-0.83-1.17-1.74-0.63
					c-0.25,0.15-0.42,0.42-0.52,0.81c-0.24,0.99,0.11,2.38,0.59,3.15c0.45,0.72,1.08,1.2,1.59,1.22c0.27,0.02,0.5-0.11,0.68-0.36
					l0.34,0.25C59.29,65.23,58.94,65.41,58.55,65.41z"/>
				<path class="st1" d="M58.98,62.64c-0.04,0-0.08-0.02-0.1-0.06c-0.83-1.72-1.98-1.36-1.99-1.36c-0.06,0.02-0.12-0.01-0.14-0.07
					c-0.02-0.06,0.01-0.12,0.07-0.14c0.01,0,1.34-0.42,2.25,1.47c0.03,0.05,0,0.12-0.05,0.14C59.01,62.64,59,62.64,58.98,62.64z"/>
				<path class="st1" d="M57.92,63.56c-0.03,0-0.06-0.01-0.08-0.04c-0.27-0.33-0.38-0.66-0.31-0.99c0.12-0.61,0.77-0.96,0.8-0.97
					c0.05-0.03,0.12-0.01,0.14,0.04c0.03,0.05,0.01,0.12-0.04,0.14c-0.01,0-0.59,0.32-0.69,0.83c-0.05,0.26,0.04,0.54,0.27,0.81
					c0.04,0.05,0.03,0.11-0.01,0.15C57.97,63.55,57.95,63.56,57.92,63.56z"/>
				<path class="st1" d="M68.02,64.42c-0.4,0-0.77-0.23-0.92-0.6c-0.05-0.12-0.07-0.25-0.07-0.38v-3.43c0-0.11,0.09-0.2,0.2-0.2
					c0.11,0,0.2,0.09,0.2,0.2v3.43c0,0.08,0.01,0.16,0.04,0.23c0.1,0.26,0.42,0.4,0.72,0.32l0.82-0.22
					c0.11-0.03,0.22,0.04,0.25,0.14c0.03,0.11-0.04,0.22-0.14,0.25l-0.82,0.22C68.2,64.41,68.11,64.42,68.02,64.42z"/>
			</g>
			<g>
				<path class="st1" d="M63.51,61.54c-0.03,0-0.07-0.02-0.09-0.05c-0.03-0.05-0.02-0.12,0.03-0.15l2.04-1.35
					c0.05-0.03,0.12-0.02,0.15,0.03c0.03,0.05,0.02,0.12-0.03,0.15l-2.04,1.35C63.55,61.53,63.53,61.54,63.51,61.54z"/>
				<path class="st1" d="M72.23,61.7c-0.02,0-0.04-0.01-0.06-0.02l-1.81-1.36c-0.05-0.04-0.06-0.1-0.02-0.15
					c0.04-0.05,0.1-0.06,0.15-0.02l1.81,1.36c0.05,0.04,0.06,0.1,0.02,0.15C72.29,61.68,72.26,61.7,72.23,61.7z"/>
				<path class="st1" d="M68.09,67.02c-1.68,0-3.04-0.94-3.1-0.98c-0.09-0.06-0.11-0.19-0.05-0.28c0.06-0.09,0.19-0.11,0.28-0.05
					c0.01,0.01,1.32,0.91,2.87,0.91c1.54,0,2.62-0.89,2.64-0.9c0.09-0.07,0.21-0.06,0.28,0.03c0.07,0.09,0.06,0.21-0.03,0.28
					C70.94,66.07,69.78,67.02,68.09,67.02z"/>
				<path class="st1" d="M63.25,63.02c-1.95,0-3.54-1.59-3.54-3.54c0-1.95,1.59-3.54,3.54-3.54c1.95,0,3.54,1.59,3.54,3.54
					C66.8,61.43,65.21,63.02,63.25,63.02z M63.25,56.13c-1.84,0-3.34,1.5-3.34,3.34c0,1.84,1.5,3.34,3.34,3.34
					c1.84,0,3.35-1.5,3.35-3.34C66.6,57.63,65.1,56.13,63.25,56.13z"/>
				<path class="st1" d="M71.71,63.02c-1.95,0-3.54-1.59-3.54-3.54c0-1.95,1.59-3.54,3.54-3.54c1.95,0,3.54,1.59,3.54,3.54
					C75.26,61.43,73.67,63.02,71.71,63.02z M71.71,56.13c-1.84,0-3.34,1.5-3.34,3.34c0,1.84,1.5,3.34,3.34,3.34
					c1.84,0,3.34-1.5,3.34-3.34C75.06,57.63,73.56,56.13,71.71,56.13z"/>
				<path class="st1" d="M68.27,59.57c-0.03,0-0.05-0.01-0.07-0.03c-0.68-0.68-1.4-0.03-1.43,0c-0.04,0.04-0.1,0.04-0.14-0.01
					c-0.04-0.04-0.04-0.1,0-0.14c0.01-0.01,0.9-0.82,1.71,0c0.04,0.04,0.04,0.1,0,0.14C68.32,59.57,68.3,59.57,68.27,59.57z"/>
				<path class="st1" d="M59.94,60.5c-0.02,0-0.04-0.01-0.06-0.02l-1.21-0.96c-0.04-0.03-0.05-0.1-0.02-0.14
					c0.03-0.04,0.1-0.05,0.14-0.02L60,60.33c0.04,0.03,0.05,0.1,0.02,0.14C60,60.49,59.97,60.5,59.94,60.5z"/>
				<path class="st1" d="M75.04,60.5c-0.03,0-0.06-0.01-0.08-0.04c-0.03-0.04-0.03-0.11,0.02-0.14l1.62-1.27
					c0.04-0.03,0.11-0.03,0.14,0.02c0.03,0.04,0.03,0.11-0.02,0.14l-1.62,1.27C75.08,60.5,75.06,60.5,75.04,60.5z"/>
			</g>
			<path class="st1" d="M62.01,70.61c0,0,6.27,6.62,12.13-0.82c0,0,0.95,5.57-4.65,6.65C69.49,76.45,64.48,76.94,62.01,70.61z"/>
			<circle class="st1" cx="64.02" cy="59.18" r="0.77"/>
			<circle class="st1" cx="71.65" cy="59.18" r="0.77"/>
		</g>
		<path class="st2" d="M58.64,60.08c0,0,1.92-3.4,1.15-5.32c0,0,9.59-0.77,13.04-4.6c0,0,1.92,8.06,3.84,9.59
			c0,0,2.08-5.53,1.04-9.29c-1.04-3.76-5.66-5.68-10.45-5.1s-9.09,0.61-9.82,7.31C57.45,52.67,57.11,57.34,58.64,60.08z"/>
		<path class="st2" d="M69.39,54.38l0.38,1.53h4.99c0,0-1.34-0.84-2.2-1C71.69,54.76,69.39,54.38,69.39,54.38z"/>
		<path class="st2" d="M65.93,54.38l-0.38,1.53h-4.99c0,0,1.34-0.84,2.2-1C63.63,54.76,65.93,54.38,65.93,54.38z"/>
	</g>
	<text transform="matrix(1 0 0 1 102.889 72.8433)" class="st3 st4 st5">Sales Head </text>
	<rect x="40" y="118.47" class="st6" width="338.96" height="38.25"/>
	<text transform="matrix(1 0 0 1 39.9999 126.498)"><tspan x="0" y="0" class="st7 st8">Sales Head flow starts with a </tspan><tspan x="155.18" y="0" class="st9 st8">Dashboard</tspan><tspan x="214.35" y="0" class="st7 st8"> which includes the </tspan><tspan x="0" y="13.2" class="st7 st8">metrics of Sales, Goals, Top leads, Top Selling Policies and Top </tspan><tspan x="0" y="26.4" class="st7 st8">Performers of the team.</tspan></text>
	<circle class="st3" cx="51.77" cy="170.25" r="1.77"/>
	<rect x="20" y="24.66" class="st10" width="365" height="406.75"/>
	<text transform="matrix(1 0 0 1 497.8889 72.8433)" class="st11 st4 st5">Sales Representative</text>
	<rect x="435" y="118.47" class="st6" width="336.97" height="38.25"/>
	<text transform="matrix(1 0 0 1 434.9999 126.498)"><tspan x="0" y="0" class="st7 st8">Sales Representative flow starts with a </tspan><tspan x="207.11" y="0" class="st9 st8">Dashboard</tspan><tspan x="266.28" y="0" class="st7 st8"> which </tspan><tspan x="0" y="13.2" class="st7 st8">includes the metrics of his Sales, Goals, Upcoming policy </tspan><tspan x="0" y="26.4" class="st7 st8">renewals, Top selling policies and Top leads.</tspan></text>
	<rect x="415" y="24.66" class="st12" width="365" height="406.75"/>
	<g>
		<defs>
			<circle id="SVGID_3_" cx="462.98" cy="67.98" r="27.98"/>
		</defs>
		<use xlink:href="#SVGID_3_"  style="overflow:visible;fill:#EFFFD7;"/>
		<clipPath id="SVGID_4_">
			<use xlink:href="#SVGID_3_"  style="overflow:visible;"/>
		</clipPath>
		<g class="st13">
			<g>
				<g>
					<defs>
						<path id="SVGID_5_" d="M482.3,93.17c0-7.49-8.99-11.87-8.99-11.87"/>
					</defs>
					<defs>
						<path id="SVGID_6_" d="M454.26,81.3c0,0-8.66,4.38-8.66,11.87"/>
					</defs>
					<clipPath id="SVGID_7_">
						<use xlink:href="#SVGID_5_"  style="overflow:visible;"/>
					</clipPath>
					<clipPath id="SVGID_8_" class="st14">
						<use xlink:href="#SVGID_6_"  style="overflow:visible;"/>
					</clipPath>
				</g>
				<path class="st1" d="M482.3,93.36c-0.11,0-0.19-0.09-0.19-0.19c0-7.28-8.79-11.65-8.88-11.69c-0.1-0.05-0.13-0.16-0.09-0.26
					c0.05-0.1,0.16-0.13,0.26-0.09c0.09,0.04,9.1,4.52,9.1,12.04C482.49,93.28,482.41,93.36,482.3,93.36z"/>
				<path class="st1" d="M445.6,93.36c-0.11,0-0.19-0.09-0.19-0.19c0-7.52,8.67-11.99,8.76-12.04c0.09-0.05,0.21-0.01,0.26,0.08
					c0.05,0.09,0.01,0.21-0.08,0.26c-0.09,0.04-8.55,4.41-8.55,11.7C445.79,93.28,445.7,93.36,445.6,93.36z"/>
				<g>
					<defs>
						<path id="SVGID_9_" d="M460.21,73.26v5.02c0,0-1.62,2.28-5.95,3.03c0,0,2.59,1.7,9.74,1.7c4.99,0,9.35-1.7,9.35-1.7
							s-5.54-1.15-5.94-3.03v-5"/>
					</defs>
					<clipPath id="SVGID_10_">
						<use xlink:href="#SVGID_9_"  style="overflow:visible;"/>
					</clipPath>
				</g>
				<path class="st1" d="M464,83.19c-7.12,0-9.74-1.66-9.85-1.73c-0.06-0.04-0.1-0.12-0.08-0.2c0.02-0.08,0.08-0.13,0.15-0.15
					c3.85-0.67,5.54-2.59,5.79-2.91v-4.95c0-0.1,0.08-0.19,0.19-0.19s0.19,0.08,0.19,0.19v5.02c0,0.04-0.01,0.08-0.04,0.11
					c-0.07,0.09-1.58,2.16-5.53,3c1.03,0.46,3.82,1.43,9.17,1.43c3.82,0,7.31-1.02,8.67-1.47c-1.5-0.37-5.11-1.43-5.45-3.03
					c0-0.01,0-0.03,0-0.04v-5c0-0.1,0.08-0.19,0.19-0.19c0.1,0,0.19,0.08,0.19,0.19v4.98c0.34,1.43,4.29,2.55,5.79,2.86
					c0.08,0.02,0.14,0.09,0.15,0.17c0.01,0.08-0.04,0.16-0.12,0.19C473.37,81.5,468.96,83.19,464,83.19z"/>
				<path class="st1" d="M463.82,81.74c-4.32,0-7.29-0.85-7.33-0.86l0.11-0.37c0.07,0.02,6.65,1.89,14.47,0l0.09,0.37
					C468.51,81.53,465.99,81.74,463.82,81.74z"/>
				<g>
					<defs>
						<path id="SVGID_11_" d="M471.51,60.48c0,0,0.96,13.83-7.69,13.83s-7.95-13.83-7.95-13.83s-0.42-8.22,8.25-8.22
							C472.18,52.25,471.51,60.48,471.51,60.48"/>
					</defs>
					<clipPath id="SVGID_12_">
						<use xlink:href="#SVGID_11_"  style="overflow:visible;"/>
					</clipPath>
				</g>
				<path class="st1" d="M463.82,74.49c-1.94,0-3.57-0.68-4.86-2.04c-1.91-2.01-2.7-5.17-3.03-7.46c-0.35-2.47-0.26-4.51-0.25-4.53
					c-0.01-0.13-0.16-3.62,2.19-6.09c1.46-1.54,3.56-2.32,6.25-2.32c2.4,0,4.28,0.72,5.59,2.14c2.23,2.42,2.02,5.98,1.99,6.28
					c0.01,0.19,0.12,2.15-0.17,4.52c-0.28,2.3-1.01,5.45-2.89,7.46C467.38,73.81,465.76,74.49,463.82,74.49z M464.12,52.44
					c-2.58,0-4.59,0.74-5.97,2.2c-2.23,2.35-2.09,5.79-2.09,5.83c0,0.1-0.36,8.01,3.18,11.73c1.21,1.27,2.75,1.92,4.58,1.92
					c1.83,0,3.36-0.64,4.54-1.91c3.47-3.72,2.96-11.63,2.96-11.71l0-0.01l0-0.01c0-0.04,0.27-3.66-1.9-6.01
					C468.19,53.12,466.41,52.44,464.12,52.44z"/>
				<path class="st1" d="M464,66.84c-0.35,0-0.68-0.2-0.81-0.53c-0.04-0.11-0.06-0.22-0.06-0.33v-1.33c0-0.1,0.08-0.18,0.18-0.18
					s0.18,0.08,0.18,0.18v1.33c0,0.07,0.01,0.14,0.04,0.2c0.09,0.22,0.36,0.35,0.62,0.28l0.39-0.1c0.1-0.03,0.2,0.03,0.22,0.13
					c0.03,0.1-0.03,0.2-0.13,0.22l-0.39,0.1C464.16,66.83,464.08,66.84,464,66.84z"/>
				<path class="st1" d="M460.07,65.13c-0.03,0-0.06-0.01-0.08-0.04c-0.03-0.04-0.02-0.1,0.03-0.13l1.78-1.18
					c0.04-0.03,0.1-0.02,0.13,0.03c0.03,0.04,0.02,0.1-0.03,0.13l-1.78,1.18C460.1,65.13,460.08,65.13,460.07,65.13z"/>
				<path class="st1" d="M467.68,65.13c-0.02,0-0.04-0.01-0.06-0.02l-1.58-1.19c-0.04-0.03-0.05-0.09-0.02-0.13
					c0.03-0.04,0.09-0.05,0.13-0.02l1.58,1.19c0.04,0.03,0.05,0.09,0.02,0.13C467.74,65.12,467.71,65.13,467.68,65.13z"/>
				<path class="st1" d="M463.97,68.97c-1.46,0-2.56-0.67-2.61-0.7c-0.08-0.05-0.11-0.16-0.06-0.25c0.05-0.09,0.16-0.11,0.25-0.06
					c0.01,0.01,1.06,0.65,2.41,0.65c1.36,0,2.4-0.64,2.41-0.65c0.09-0.05,0.2-0.03,0.25,0.06c0.05,0.08,0.03,0.2-0.06,0.25
					C466.53,68.29,465.43,68.97,463.97,68.97z"/>
				<g>
					<defs>
						<path id="SVGID_13_" d="M470.91,67.47c0.58,0.8,1.71,0.28,2.37-0.77c0.65-1.05,0.96-3.14,0-3.71c-0.96-0.57-1.77,0.6-1.77,0.6
							s-0.23,2.12-0.4,2.91L470.91,67.47z"/>
					</defs>
					<clipPath id="SVGID_14_">
						<use xlink:href="#SVGID_13_"  style="overflow:visible;"/>
					</clipPath>
				</g>
				<path class="st1" d="M471.64,68.05c-0.36,0-0.67-0.16-0.89-0.47l-0.05-0.07l0.21-1.05c0.17-0.78,0.4-2.87,0.4-2.89l0.01-0.05
					l0.03-0.04c0.32-0.46,1.14-1.18,2.03-0.66c0.31,0.18,0.52,0.5,0.63,0.94c0.23,0.96-0.1,2.3-0.56,3.04
					c-0.46,0.74-1.15,1.23-1.75,1.25C471.67,68.05,471.66,68.05,471.64,68.05z M471.11,67.42c0.15,0.17,0.34,0.25,0.56,0.25
					c0.47-0.02,1.05-0.45,1.44-1.07c0.42-0.67,0.73-1.88,0.52-2.74c-0.08-0.34-0.23-0.57-0.45-0.7c-0.72-0.42-1.35,0.33-1.49,0.51
					c-0.04,0.34-0.24,2.15-0.4,2.88L471.11,67.42z"/>
				<path class="st1" d="M471.25,65.63c-0.01,0-0.03,0-0.04-0.01c-0.05-0.02-0.07-0.08-0.04-0.13c0.79-1.65,2.02-1.3,2.04-1.29
					c0.05,0.02,0.08,0.07,0.06,0.12c-0.02,0.05-0.07,0.08-0.12,0.06c-0.04-0.01-1.09-0.3-1.81,1.19
					C471.32,65.61,471.28,65.63,471.25,65.63z"/>
				<path class="st1" d="M472.25,66.42c-0.02,0-0.04-0.01-0.06-0.02c-0.04-0.03-0.05-0.09-0.01-0.13c0.2-0.24,0.28-0.48,0.23-0.71
					c-0.09-0.44-0.6-0.72-0.6-0.72c-0.05-0.03-0.06-0.08-0.04-0.13c0.03-0.05,0.08-0.06,0.13-0.04c0.02,0.01,0.59,0.32,0.7,0.85
					c0.06,0.29-0.03,0.58-0.27,0.87C472.3,66.41,472.27,66.42,472.25,66.42z"/>
				<g>
					<defs>
						<path id="SVGID_15_" d="M456.55,67.47c-0.58,0.8-1.71,0.28-2.37-0.77c-0.65-1.05-0.96-3.14,0-3.71
							c0.96-0.57,1.77,0.6,1.77,0.6s0.23,2.12,0.4,2.91L456.55,67.47z"/>
					</defs>
					<clipPath id="SVGID_16_">
						<use xlink:href="#SVGID_15_"  style="overflow:visible;"/>
					</clipPath>
				</g>
				<path class="st1" d="M455.81,68.05c-0.01,0-0.03,0-0.04,0c-0.6-0.02-1.29-0.51-1.75-1.25c-0.46-0.74-0.8-2.08-0.56-3.04
					c0.11-0.44,0.32-0.76,0.63-0.94c0.88-0.52,1.71,0.2,2.02,0.66l0.03,0.04l0.01,0.05c0,0.02,0.23,2.12,0.4,2.89l0.21,1.05
					l-0.05,0.07C456.48,67.89,456.17,68.05,455.81,68.05z M454.72,63.02c-0.14,0-0.29,0.04-0.44,0.13c-0.22,0.13-0.37,0.36-0.45,0.7
					c-0.21,0.86,0.1,2.07,0.52,2.74c0.39,0.62,0.97,1.05,1.44,1.07c0.23,0,0.41-0.08,0.56-0.25l-0.18-0.88
					c-0.16-0.73-0.36-2.54-0.4-2.88C455.65,63.52,455.24,63.02,454.72,63.02z"/>
				<path class="st1" d="M456.2,65.63c-0.04,0-0.07-0.02-0.09-0.05c-0.72-1.5-1.77-1.2-1.81-1.19c-0.05,0.01-0.1-0.01-0.12-0.06
					c-0.02-0.05,0.01-0.1,0.06-0.12c0.01,0,1.24-0.36,2.04,1.29c0.02,0.05,0,0.11-0.04,0.13C456.23,65.63,456.22,65.63,456.2,65.63z
					"/>
				<path class="st1" d="M455.21,66.42c-0.03,0-0.05-0.01-0.07-0.03c-0.24-0.29-0.33-0.58-0.27-0.87c0.11-0.53,0.68-0.84,0.7-0.85
					c0.05-0.02,0.1-0.01,0.13,0.04c0.03,0.05,0.01,0.1-0.04,0.13c-0.01,0-0.52,0.28-0.6,0.72c-0.04,0.23,0.03,0.47,0.23,0.71
					c0.03,0.04,0.03,0.1-0.01,0.13C455.25,66.41,455.23,66.42,455.21,66.42z"/>
				<g>
					<defs>
						<path id="SVGID_17_" d="M471.51,59.82c-0.02-0.64-0.1-1.66-0.39-2.61c-0.06-0.24-0.12-0.46-0.18-0.67l0.38,0.1
							c-0.32-2.22-5.31-7.71-11.6-4.56c-6.29,3.15-3.92,11.43-3.92,11.43l0.06-0.41c0.27-0.36,1.38-1.96,1.74-4.05
							c4.36,0.72,7.69-1.74,9.4-3.43c0.23,0.85,0.91,2.64,2.75,3.93c0.56,2.36,1.74,3.82,1.74,3.82
							C471.59,62.02,471.58,60.84,471.51,59.82"/>
					</defs>
					<clipPath id="SVGID_18_">
						<use xlink:href="#SVGID_17_"  style="overflow:visible;"/>
					</clipPath>
					<rect x="453.69" y="49.47" class="st15" width="19.54" height="15.72"/>
				</g>
				<path class="st1" d="M459.84,73.08c0,0,4.22,3.09,7.97-0.18c0,0-0.68,2.61-3.56,2.81C464.25,75.71,461.89,75.87,459.84,73.08z"
					/>
				<circle class="st1" cx="460.53" cy="63" r="0.67"/>
				<circle class="st1" cx="467.13" cy="63" r="0.67"/>
				<path class="st1" d="M465.3,59.68l0.16,1.19l3.76,0.43c0,0-0.94-0.75-1.58-0.94C467,60.17,465.3,59.68,465.3,59.68z"/>
				<path class="st1" d="M462.12,59.86l-0.19,1.19l-3.77,0.34c0,0,0.96-0.73,1.6-0.9S462.12,59.86,462.12,59.86z"/>
			</g>
			<path class="st1" d="M481.24,71.2c-0.43-4.01-3.57-9.66-5.52-11.2c-1.94-1.54-2.06-5.46-3.75-7.1c-1.7-1.64-4.03-0.53-4.03-0.53
				c-3.06-3.5-6-2.94-6-2.94c-7.06,0.56-8.27,6.44-8.27,9.1s-0.33,2.67-3.68,6.19c-3.34,3.52-3.32,7.9-3.32,7.9
				c0.67,6.08,4.99,6.58,7.08,7.83c0.35,0.21,0.98,0.4,1.8,0.56c3.36-0.92,4.65-2.74,4.65-2.74v-5.02
				c-4.82-3.22-4.34-12.78-4.34-12.78s-0.42-8.22,8.25-8.22c8.07,0,7.4,8.22,7.4,8.22s0.12,1.8-0.12,4.1
				c0.07-0.55,0.12-0.99,0.12-0.99s0.81-1.17,1.77-0.6c0.96,0.57,0.66,2.66,0,3.71c-0.65,1.05-1.78,1.57-2.37,0.77l0.1-0.48
				c-0.53,2.43-1.58,4.93-3.6,6.29v5c0.23,1.07,2.12,1.9,3.71,2.42c0.27,0.09,0.53,0.17,0.78,0.24c0.48-0.09,0.95-0.2,1.38-0.31
				C479.2,79.05,481.67,75.2,481.24,71.2z M455.95,63.59c0,0,0.11,1.02,0.24,1.9v0c0.06,0.39,0.12,0.76,0.17,1l0.2,0.97
				c-0.59,0.8-1.71,0.28-2.37-0.77c-0.65-1.05-0.96-3.14,0-3.71C455.14,62.42,455.95,63.59,455.95,63.59z M471.27,65.5
				C471.27,65.5,471.27,65.5,471.27,65.5c-0.01,0.09-0.03,0.19-0.04,0.27c0.02-0.1,0.03-0.19,0.05-0.28
				c0.04-0.25,0.07-0.5,0.09-0.74C471.34,64.99,471.3,65.25,471.27,65.5z"/>
		</g>
	</g>
	<g>
		<defs>
			<circle id="SVGID_19_" cx="67.98" cy="-139.74" r="27.98"/>
		</defs>
		<use xlink:href="#SVGID_19_"  style="overflow:visible;fill:#D4F1FF;"/>
		<clipPath id="SVGID_20_">
			<use xlink:href="#SVGID_19_"  style="overflow:visible;"/>
		</clipPath>
		<g class="st16">
			<g>
				<path class="st1" d="M61.83-130.14c-0.12,0-0.21-0.1-0.21-0.21v-6.92c0-0.12,0.1-0.21,0.21-0.21c0.12,0,0.21,0.1,0.21,0.21v6.92
					C62.04-130.23,61.95-130.14,61.83-130.14z"/>
				<path class="st1" d="M74.13-130.14c-0.12,0-0.21-0.1-0.21-0.21v-7.29c0-0.12,0.1-0.21,0.21-0.21s0.21,0.1,0.21,0.21v7.29
					C74.35-130.23,74.25-130.14,74.13-130.14z"/>
			</g>
			<g>
				<path class="st1" d="M90.56-112.99c-0.12,0-0.21-0.1-0.21-0.21c0-5.1-3.54-8.95-6.51-11.27c-1.47-1.15-3.15-2.04-4.99-2.64
					c-1.42-0.46-4.08-2.48-4.71-2.96c-6.23,4.69-11.24,0.93-12.26,0.05c-1.05,1.46-3.14,2.38-4.75,2.9
					c-1.84,0.6-3.52,1.49-4.99,2.64c-2.97,2.33-6.51,6.17-6.51,11.27c0,0.12-0.1,0.21-0.21,0.21c-0.12,0-0.21-0.1-0.21-0.21
					c0-5.28,3.63-9.23,6.68-11.61c1.51-1.18,3.24-2.1,5.12-2.71c1.62-0.53,3.74-1.46,4.66-2.94c0.03-0.06,0.09-0.09,0.16-0.1
					c0.06-0.01,0.13,0.02,0.18,0.06c0.01,0.01,1.34,1.32,3.47,1.96c2.85,0.86,5.73,0.19,8.55-1.98c0.08-0.06,0.19-0.06,0.26,0
					c0.03,0.02,3.2,2.5,4.71,2.99c1.89,0.62,3.61,1.53,5.12,2.71c3.05,2.38,6.68,6.33,6.68,11.61
					C90.78-113.09,90.68-112.99,90.56-112.99z"/>
				<path class="st1" d="M67.76-124.24c-1.17,0-2.38-0.19-3.61-0.63c-3.09-1.11-4.8-3.25-4.87-3.34c-0.07-0.09-0.06-0.23,0.04-0.3
					c0.09-0.07,0.23-0.06,0.3,0.04c0.27,0.35,6.83,8.4,17.4,0.07c0.09-0.07,0.23-0.06,0.3,0.04c0.07,0.09,0.06,0.23-0.04,0.3
					C74.89-126.18,71.52-124.24,67.76-124.24z"/>
				<path class="st1" d="M86.63-121.85H49.37c-0.12,0-0.21-0.1-0.21-0.21s0.1-0.21,0.21-0.21h37.26c0.12,0,0.21,0.1,0.21,0.21
					S86.75-121.85,86.63-121.85z"/>
				<path class="st1" d="M90.35-114.4H45.66c-0.12,0-0.21-0.1-0.21-0.21s0.1-0.21,0.21-0.21h44.69c0.12,0,0.21,0.1,0.21,0.21
					S90.46-114.4,90.35-114.4z"/>
				<path class="st1" d="M90.35-110.13H45.66c-0.12,0-0.21-0.1-0.21-0.21c0-0.12,0.1-0.21,0.21-0.21h44.69
					c0.12,0,0.21,0.1,0.21,0.21C90.56-110.22,90.46-110.13,90.35-110.13z"/>
				<path class="st1" d="M90.35-105.85H45.66c-0.12,0-0.21-0.1-0.21-0.21c0-0.12,0.1-0.21,0.21-0.21h44.69
					c0.12,0,0.21,0.1,0.21,0.21C90.56-105.95,90.46-105.85,90.35-105.85z"/>
				<path class="st1" d="M89.34-118.13H46.8c-0.12,0-0.21-0.1-0.21-0.21s0.1-0.21,0.21-0.21h42.53c0.12,0,0.21,0.1,0.21,0.21
					S89.45-118.13,89.34-118.13z"/>
				<path class="st1" d="M67.81-134.04c-2.17,0-4.01-0.77-5.46-2.3c-2.25-2.36-3.17-6.13-3.56-8.87c-0.41-2.96-0.3-5.41-0.3-5.43
					c-0.01-0.16-0.18-4.39,2.6-7.3c1.67-1.75,4.04-2.64,7.06-2.64c2.7,0,4.82,0.82,6.31,2.43c2.65,2.86,2.39,7.18,2.37,7.52
					c0.01,0.21,0.14,2.58-0.2,5.42c-0.33,2.75-1.19,6.52-3.4,8.88C71.8-134.82,69.98-134.04,67.81-134.04z M68.15-160.17
					c-2.89,0-5.16,0.84-6.75,2.51c-2.65,2.78-2.48,6.97-2.48,7.01c0,0.12-0.42,9.65,3.74,14.01c1.37,1.44,3.1,2.17,5.15,2.17
					c2.05,0,3.76-0.73,5.11-2.16c4.08-4.36,3.49-13.9,3.48-13.99l0-0.02l0-0.02c0-0.04,0.31-4.44-2.26-7.22
					C72.74-159.4,70.72-160.17,68.15-160.17z"/>
				<path class="st1" d="M76.84-142.31c-0.4,0-0.74-0.19-1-0.54l0.34-0.25c0.18,0.25,0.42,0.37,0.69,0.36
					c0.51-0.02,1.14-0.5,1.59-1.22c0.48-0.77,0.83-2.16,0.59-3.15c-0.09-0.39-0.27-0.66-0.52-0.81c-0.91-0.54-1.71,0.58-1.74,0.63
					l-0.35-0.24c0.36-0.52,1.3-1.35,2.31-0.75c0.35,0.21,0.59,0.57,0.72,1.07c0.27,1.1-0.12,2.63-0.64,3.48
					c-0.53,0.85-1.28,1.4-1.94,1.42C76.87-142.31,76.85-142.31,76.84-142.31z"/>
				<path class="st1" d="M76.4-145.08c-0.02,0-0.03,0-0.05-0.01c-0.05-0.03-0.08-0.09-0.05-0.14c0.91-1.89,2.24-1.47,2.25-1.47
					c0.06,0.02,0.09,0.08,0.07,0.13c-0.02,0.06-0.08,0.09-0.13,0.07c-0.05-0.01-1.16-0.36-1.99,1.36
					C76.48-145.1,76.44-145.08,76.4-145.08z"/>
				<path class="st1" d="M77.46-144.16c-0.02,0-0.05-0.01-0.07-0.02c-0.05-0.04-0.05-0.1-0.01-0.15c0.23-0.28,0.32-0.55,0.27-0.82
					c-0.1-0.51-0.69-0.83-0.69-0.83c-0.05-0.03-0.07-0.09-0.04-0.14c0.03-0.05,0.09-0.07,0.14-0.04c0.03,0.01,0.68,0.37,0.8,0.97
					c0.07,0.33-0.04,0.66-0.31,0.99C77.52-144.18,77.49-144.16,77.46-144.16z"/>
				<path class="st1" d="M58.55-142.31c-0.02,0-0.03,0-0.05,0c-0.66-0.02-1.41-0.57-1.94-1.42c-0.53-0.84-0.91-2.37-0.64-3.48
					c0.12-0.5,0.36-0.86,0.72-1.07c1-0.59,1.95,0.23,2.31,0.75l-0.35,0.24c-0.03-0.05-0.83-1.17-1.74-0.63
					c-0.25,0.15-0.42,0.42-0.52,0.81c-0.24,0.99,0.11,2.38,0.59,3.15c0.45,0.72,1.08,1.2,1.59,1.22c0.27,0.02,0.5-0.11,0.68-0.36
					l0.34,0.25C59.29-142.5,58.94-142.31,58.55-142.31z"/>
				<path class="st1" d="M58.98-145.08c-0.04,0-0.08-0.02-0.1-0.06c-0.83-1.72-1.98-1.36-1.99-1.36c-0.06,0.02-0.12-0.01-0.14-0.07
					c-0.02-0.06,0.01-0.12,0.07-0.14c0.01,0,1.34-0.42,2.25,1.47c0.03,0.05,0,0.12-0.05,0.14C59.01-145.08,59-145.08,58.98-145.08z"
					/>
				<path class="st1" d="M57.92-144.16c-0.03,0-0.06-0.01-0.08-0.04c-0.27-0.33-0.38-0.66-0.31-0.99c0.12-0.61,0.77-0.96,0.8-0.97
					c0.05-0.03,0.12-0.01,0.14,0.04c0.03,0.05,0.01,0.12-0.04,0.14c-0.01,0-0.59,0.32-0.69,0.83c-0.05,0.26,0.04,0.54,0.27,0.81
					c0.04,0.05,0.03,0.11-0.01,0.15C57.97-144.17,57.95-144.16,57.92-144.16z"/>
				<path class="st1" d="M68.02-143.3c-0.4,0-0.77-0.23-0.92-0.6c-0.05-0.12-0.07-0.25-0.07-0.38v-3.43c0-0.11,0.09-0.2,0.2-0.2
					c0.11,0,0.2,0.09,0.2,0.2v3.43c0,0.08,0.01,0.16,0.04,0.23c0.1,0.26,0.42,0.4,0.72,0.32l0.82-0.22
					c0.11-0.03,0.22,0.04,0.25,0.14c0.03,0.11-0.04,0.22-0.14,0.25l-0.82,0.22C68.2-143.31,68.11-143.3,68.02-143.3z"/>
			</g>
			<g>
				<path class="st1" d="M63.51-146.19c-0.03,0-0.07-0.02-0.09-0.05c-0.03-0.05-0.02-0.12,0.03-0.15l2.04-1.35
					c0.05-0.03,0.12-0.02,0.15,0.03c0.03,0.05,0.02,0.12-0.03,0.15l-2.04,1.35C63.55-146.19,63.53-146.19,63.51-146.19z"/>
				<path class="st1" d="M72.23-146.02c-0.02,0-0.04-0.01-0.06-0.02l-1.81-1.36c-0.05-0.04-0.06-0.1-0.02-0.15
					c0.04-0.05,0.1-0.06,0.15-0.02l1.81,1.36c0.05,0.04,0.06,0.1,0.02,0.15C72.29-146.04,72.26-146.02,72.23-146.02z"/>
				<path class="st1" d="M68.09-140.7c-1.68,0-3.04-0.94-3.1-0.98c-0.09-0.06-0.11-0.19-0.05-0.28c0.06-0.09,0.19-0.11,0.28-0.05
					c0.01,0.01,1.32,0.91,2.87,0.91c1.54,0,2.62-0.89,2.64-0.9c0.09-0.07,0.21-0.06,0.28,0.03c0.07,0.09,0.06,0.21-0.03,0.28
					C70.94-141.65,69.78-140.7,68.09-140.7z"/>
				<path class="st1" d="M63.25-144.7c-1.95,0-3.54-1.59-3.54-3.54s1.59-3.54,3.54-3.54c1.95,0,3.54,1.59,3.54,3.54
					S65.21-144.7,63.25-144.7z M63.25-151.59c-1.84,0-3.34,1.5-3.34,3.34s1.5,3.34,3.34,3.34c1.84,0,3.35-1.5,3.35-3.34
					S65.1-151.59,63.25-151.59z"/>
				<path class="st1" d="M71.71-144.7c-1.95,0-3.54-1.59-3.54-3.54s1.59-3.54,3.54-3.54c1.95,0,3.54,1.59,3.54,3.54
					S73.67-144.7,71.71-144.7z M71.71-151.59c-1.84,0-3.34,1.5-3.34,3.34s1.5,3.34,3.34,3.34c1.84,0,3.34-1.5,3.34-3.34
					S73.56-151.59,71.71-151.59z"/>
				<path class="st1" d="M68.27-148.15c-0.03,0-0.05-0.01-0.07-0.03c-0.68-0.68-1.4-0.03-1.43,0c-0.04,0.04-0.1,0.04-0.14-0.01
					c-0.04-0.04-0.04-0.1,0-0.14c0.01-0.01,0.9-0.82,1.71,0c0.04,0.04,0.04,0.1,0,0.14C68.32-148.16,68.3-148.15,68.27-148.15z"/>
				<path class="st1" d="M59.94-147.22c-0.02,0-0.04-0.01-0.06-0.02l-1.21-0.96c-0.04-0.03-0.05-0.1-0.02-0.14
					c0.03-0.04,0.1-0.05,0.14-0.02L60-147.4c0.04,0.03,0.05,0.1,0.02,0.14C60-147.23,59.97-147.22,59.94-147.22z"/>
				<path class="st1" d="M75.04-147.22c-0.03,0-0.06-0.01-0.08-0.04c-0.03-0.04-0.03-0.11,0.02-0.14l1.62-1.27
					c0.04-0.03,0.11-0.03,0.14,0.02c0.03,0.04,0.03,0.11-0.02,0.14l-1.62,1.27C75.08-147.23,75.06-147.22,75.04-147.22z"/>
			</g>
			<path class="st1" d="M62.01-137.11c0,0,6.27,6.62,12.13-0.82c0,0,0.95,5.57-4.65,6.65C69.49-131.27,64.48-130.79,62.01-137.11z"
				/>
			<circle class="st1" cx="64.02" cy="-148.54" r="0.77"/>
			<circle class="st1" cx="71.65" cy="-148.54" r="0.77"/>
		</g>
		<path class="st17" d="M58.64-147.64c0,0,1.92-3.4,1.15-5.32c0,0,9.59-0.77,13.04-4.6c0,0,1.92,8.06,3.84,9.59
			c0,0,2.08-5.53,1.04-9.29c-1.04-3.76-5.66-5.68-10.45-5.1c-4.79,0.58-9.09,0.61-9.82,7.31C57.45-155.05,57.11-150.38,58.64-147.64
			z"/>
		<path class="st17" d="M69.39-153.34l0.38,1.53h4.99c0,0-1.34-0.84-2.2-1C71.69-152.96,69.39-153.34,69.39-153.34z"/>
		<path class="st17" d="M65.93-153.34l-0.38,1.53h-4.99c0,0,1.34-0.84,2.2-1C63.63-152.96,65.93-153.34,65.93-153.34z"/>
	</g>
	<g>
		<defs>
			<circle id="SVGID_21_" cx="462.98" cy="-139.74" r="27.98"/>
		</defs>
		<use xlink:href="#SVGID_21_"  style="overflow:visible;fill:#EFFFD7;"/>
		<clipPath id="SVGID_22_">
			<use xlink:href="#SVGID_21_"  style="overflow:visible;"/>
		</clipPath>
		<g class="st18">
			<g>
				<g>
					<defs>
						<path id="SVGID_23_" d="M482.3-114.55c0-7.49-8.99-11.87-8.99-11.87"/>
					</defs>
					<defs>
						<path id="SVGID_24_" d="M454.26-126.42c0,0-8.66,4.38-8.66,11.87"/>
					</defs>
					<clipPath id="SVGID_25_">
						<use xlink:href="#SVGID_23_"  style="overflow:visible;"/>
					</clipPath>
					<clipPath id="SVGID_26_" class="st19">
						<use xlink:href="#SVGID_24_"  style="overflow:visible;"/>
					</clipPath>
				</g>
				<path class="st1" d="M482.3-114.36c-0.11,0-0.19-0.09-0.19-0.19c0-7.28-8.79-11.65-8.88-11.69c-0.1-0.05-0.13-0.16-0.09-0.26
					c0.05-0.1,0.16-0.13,0.26-0.09c0.09,0.04,9.1,4.52,9.1,12.04C482.49-114.45,482.41-114.36,482.3-114.36z"/>
				<path class="st1" d="M445.6-114.36c-0.11,0-0.19-0.09-0.19-0.19c0-7.52,8.67-11.99,8.76-12.04c0.09-0.05,0.21-0.01,0.26,0.08
					c0.05,0.09,0.01,0.21-0.08,0.26c-0.09,0.04-8.55,4.41-8.55,11.7C445.79-114.45,445.7-114.36,445.6-114.36z"/>
				<g>
					<defs>
						<path id="SVGID_27_" d="M460.21-134.46v5.02c0,0-1.62,2.28-5.95,3.03c0,0,2.59,1.7,9.74,1.7c4.99,0,9.35-1.7,9.35-1.7
							s-5.54-1.15-5.94-3.03v-5"/>
					</defs>
					<clipPath id="SVGID_28_">
						<use xlink:href="#SVGID_27_"  style="overflow:visible;"/>
					</clipPath>
				</g>
				<path class="st1" d="M464-124.53c-7.12,0-9.74-1.66-9.85-1.73c-0.06-0.04-0.1-0.12-0.08-0.2c0.02-0.08,0.08-0.13,0.15-0.15
					c3.85-0.67,5.54-2.59,5.79-2.91v-4.95c0-0.1,0.08-0.19,0.19-0.19s0.19,0.08,0.19,0.19v5.02c0,0.04-0.01,0.08-0.04,0.11
					c-0.07,0.09-1.58,2.16-5.53,3c1.03,0.46,3.82,1.43,9.17,1.43c3.82,0,7.31-1.02,8.67-1.47c-1.5-0.37-5.11-1.43-5.45-3.03
					c0-0.01,0-0.03,0-0.04v-5c0-0.1,0.08-0.19,0.19-0.19c0.1,0,0.19,0.08,0.19,0.19v4.98c0.34,1.43,4.29,2.55,5.79,2.86
					c0.08,0.02,0.14,0.09,0.15,0.17c0.01,0.08-0.04,0.16-0.12,0.19C473.37-126.22,468.96-124.53,464-124.53z"/>
				<path class="st1" d="M463.82-125.98c-4.32,0-7.29-0.85-7.33-0.86l0.11-0.37c0.07,0.02,6.65,1.89,14.47,0l0.09,0.37
					C468.51-126.2,465.99-125.98,463.82-125.98z"/>
				<g>
					<defs>
						<path id="SVGID_29_" d="M471.51-147.25c0,0,0.96,13.83-7.69,13.83s-7.95-13.83-7.95-13.83s-0.42-8.22,8.25-8.22
							C472.18-155.47,471.51-147.25,471.51-147.25"/>
					</defs>
					<clipPath id="SVGID_30_">
						<use xlink:href="#SVGID_29_"  style="overflow:visible;"/>
					</clipPath>
				</g>
				<path class="st1" d="M463.82-133.23c-1.94,0-3.57-0.68-4.86-2.04c-1.91-2.01-2.7-5.17-3.03-7.46c-0.35-2.47-0.26-4.51-0.25-4.53
					c-0.01-0.13-0.16-3.62,2.19-6.09c1.46-1.54,3.56-2.32,6.25-2.32c2.4,0,4.28,0.72,5.59,2.14c2.23,2.42,2.02,5.98,1.99,6.28
					c0.01,0.19,0.12,2.15-0.17,4.52c-0.28,2.3-1.01,5.45-2.89,7.46C467.38-133.91,465.76-133.23,463.82-133.23z M464.12-155.28
					c-2.58,0-4.59,0.74-5.97,2.2c-2.23,2.35-2.09,5.79-2.09,5.83c0,0.1-0.36,8.01,3.18,11.73c1.21,1.27,2.75,1.92,4.58,1.92
					c1.83,0,3.36-0.64,4.54-1.91c3.47-3.72,2.96-11.63,2.96-11.71l0-0.01l0-0.01c0-0.04,0.27-3.66-1.9-6.01
					C468.19-154.6,466.41-155.28,464.12-155.28z"/>
				<path class="st1" d="M464-140.88c-0.35,0-0.68-0.2-0.81-0.53c-0.04-0.11-0.06-0.22-0.06-0.33v-1.33c0-0.1,0.08-0.18,0.18-0.18
					s0.18,0.08,0.18,0.18v1.33c0,0.07,0.01,0.14,0.04,0.2c0.09,0.22,0.36,0.35,0.62,0.28l0.39-0.1c0.1-0.03,0.2,0.03,0.22,0.13
					c0.03,0.1-0.03,0.2-0.13,0.22l-0.39,0.1C464.16-140.89,464.08-140.88,464-140.88z"/>
				<path class="st1" d="M460.07-142.59c-0.03,0-0.06-0.01-0.08-0.04c-0.03-0.04-0.02-0.1,0.03-0.13l1.78-1.18
					c0.04-0.03,0.1-0.02,0.13,0.03c0.03,0.04,0.02,0.1-0.03,0.13l-1.78,1.18C460.1-142.6,460.08-142.59,460.07-142.59z"/>
				<path class="st1" d="M467.68-142.59c-0.02,0-0.04-0.01-0.06-0.02l-1.58-1.19c-0.04-0.03-0.05-0.09-0.02-0.13
					c0.03-0.04,0.09-0.05,0.13-0.02l1.58,1.19c0.04,0.03,0.05,0.09,0.02,0.13C467.74-142.6,467.71-142.59,467.68-142.59z"/>
				<path class="st1" d="M463.97-138.75c-1.46,0-2.56-0.67-2.61-0.7c-0.08-0.05-0.11-0.16-0.06-0.25c0.05-0.09,0.16-0.11,0.25-0.06
					c0.01,0.01,1.06,0.65,2.41,0.65c1.36,0,2.4-0.64,2.41-0.65c0.09-0.05,0.2-0.03,0.25,0.06c0.05,0.08,0.03,0.2-0.06,0.25
					C466.53-139.43,465.43-138.75,463.97-138.75z"/>
				<g>
					<defs>
						<path id="SVGID_31_" d="M470.91-140.26c0.58,0.8,1.71,0.28,2.37-0.77c0.65-1.05,0.96-3.14,0-3.71
							c-0.96-0.57-1.77,0.6-1.77,0.6s-0.23,2.12-0.4,2.91L470.91-140.26z"/>
					</defs>
					<clipPath id="SVGID_32_">
						<use xlink:href="#SVGID_31_"  style="overflow:visible;"/>
					</clipPath>
				</g>
				<path class="st1" d="M471.64-139.67c-0.36,0-0.67-0.16-0.89-0.47l-0.05-0.07l0.21-1.05c0.17-0.78,0.4-2.87,0.4-2.89l0.01-0.05
					l0.03-0.04c0.32-0.46,1.14-1.18,2.03-0.66c0.31,0.18,0.52,0.5,0.63,0.94c0.23,0.96-0.1,2.3-0.56,3.04
					c-0.46,0.74-1.15,1.23-1.75,1.25C471.67-139.67,471.66-139.67,471.64-139.67z M471.11-140.31c0.15,0.17,0.34,0.25,0.56,0.25
					c0.47-0.02,1.05-0.45,1.44-1.07c0.42-0.67,0.73-1.88,0.52-2.74c-0.08-0.34-0.23-0.57-0.45-0.7c-0.72-0.42-1.35,0.33-1.49,0.51
					c-0.04,0.34-0.24,2.15-0.4,2.88L471.11-140.31z"/>
				<path class="st1" d="M471.25-142.09c-0.01,0-0.03,0-0.04-0.01c-0.05-0.02-0.07-0.08-0.04-0.13c0.79-1.65,2.02-1.3,2.04-1.29
					c0.05,0.02,0.08,0.07,0.06,0.12c-0.02,0.05-0.07,0.08-0.12,0.06c-0.04-0.01-1.09-0.3-1.81,1.19
					C471.32-142.11,471.28-142.09,471.25-142.09z"/>
				<path class="st1" d="M472.25-141.3c-0.02,0-0.04-0.01-0.06-0.02c-0.04-0.03-0.05-0.09-0.01-0.13c0.2-0.24,0.28-0.48,0.23-0.71
					c-0.09-0.44-0.6-0.72-0.6-0.72c-0.05-0.03-0.06-0.08-0.04-0.13c0.03-0.05,0.08-0.06,0.13-0.04c0.02,0.01,0.59,0.32,0.7,0.85
					c0.06,0.29-0.03,0.58-0.27,0.87C472.3-141.31,472.27-141.3,472.25-141.3z"/>
				<g>
					<defs>
						<path id="SVGID_33_" d="M456.55-140.26c-0.58,0.8-1.71,0.28-2.37-0.77c-0.65-1.05-0.96-3.14,0-3.71
							c0.96-0.57,1.77,0.6,1.77,0.6s0.23,2.12,0.4,2.91L456.55-140.26z"/>
					</defs>
					<clipPath id="SVGID_34_">
						<use xlink:href="#SVGID_33_"  style="overflow:visible;"/>
					</clipPath>
				</g>
				<path class="st1" d="M455.81-139.67c-0.01,0-0.03,0-0.04,0c-0.6-0.02-1.29-0.51-1.75-1.25c-0.46-0.74-0.8-2.08-0.56-3.04
					c0.11-0.44,0.32-0.76,0.63-0.94c0.88-0.52,1.71,0.2,2.02,0.66l0.03,0.04l0.01,0.05c0,0.02,0.23,2.12,0.4,2.89l0.21,1.05
					l-0.05,0.07C456.48-139.84,456.17-139.67,455.81-139.67z M454.72-144.7c-0.14,0-0.29,0.04-0.44,0.13
					c-0.22,0.13-0.37,0.36-0.45,0.7c-0.21,0.86,0.1,2.07,0.52,2.74c0.39,0.62,0.97,1.05,1.44,1.07c0.23,0,0.41-0.08,0.56-0.25
					l-0.18-0.88c-0.16-0.73-0.36-2.54-0.4-2.88C455.65-144.21,455.24-144.7,454.72-144.7z"/>
				<path class="st1" d="M456.2-142.09c-0.04,0-0.07-0.02-0.09-0.05c-0.72-1.5-1.77-1.2-1.81-1.19c-0.05,0.01-0.1-0.01-0.12-0.06
					c-0.02-0.05,0.01-0.1,0.06-0.12c0.01,0,1.24-0.36,2.04,1.29c0.02,0.05,0,0.11-0.04,0.13
					C456.23-142.09,456.22-142.09,456.2-142.09z"/>
				<path class="st1" d="M455.21-141.3c-0.03,0-0.05-0.01-0.07-0.03c-0.24-0.29-0.33-0.58-0.27-0.87c0.11-0.53,0.68-0.84,0.7-0.85
					c0.05-0.02,0.1-0.01,0.13,0.04s0.01,0.1-0.04,0.13c-0.01,0-0.52,0.28-0.6,0.72c-0.04,0.23,0.03,0.47,0.23,0.71
					c0.03,0.04,0.03,0.1-0.01,0.13C455.25-141.31,455.23-141.3,455.21-141.3z"/>
				<g>
					<defs>
						<path id="SVGID_35_" d="M471.51-147.91c-0.02-0.64-0.1-1.66-0.39-2.61c-0.06-0.24-0.12-0.46-0.18-0.67l0.38,0.1
							c-0.32-2.22-5.31-7.71-11.6-4.56c-6.29,3.15-3.92,11.43-3.92,11.43l0.06-0.41c0.27-0.36,1.38-1.96,1.74-4.05
							c4.36,0.72,7.69-1.74,9.4-3.43c0.23,0.85,0.91,2.64,2.75,3.93c0.56,2.36,1.74,3.82,1.74,3.82
							C471.59-145.7,471.58-146.89,471.51-147.91"/>
					</defs>
					<clipPath id="SVGID_36_">
						<use xlink:href="#SVGID_35_"  style="overflow:visible;"/>
					</clipPath>
					<rect x="453.69" y="-158.26" class="st20" width="19.54" height="15.72"/>
				</g>
				<path class="st1" d="M459.84-134.64c0,0,4.22,3.09,7.97-0.18c0,0-0.68,2.61-3.56,2.81
					C464.25-132.01,461.89-131.86,459.84-134.64z"/>
				<circle class="st1" cx="460.53" cy="-144.72" r="0.67"/>
				<circle class="st1" cx="467.13" cy="-144.72" r="0.67"/>
				<path class="st1" d="M465.3-148.04l0.16,1.19l3.76,0.43c0,0-0.94-0.75-1.58-0.94C467-147.55,465.3-148.04,465.3-148.04z"/>
				<path class="st1" d="M462.12-147.86l-0.19,1.19l-3.77,0.34c0,0,0.96-0.73,1.6-0.9C460.4-147.42,462.12-147.86,462.12-147.86z"/>
			</g>
			<path class="st1" d="M481.24-136.53c-0.43-4.01-3.57-9.66-5.52-11.2c-1.94-1.54-2.06-5.46-3.75-7.1
				c-1.7-1.64-4.03-0.53-4.03-0.53c-3.06-3.5-6-2.94-6-2.94c-7.06,0.56-8.27,6.44-8.27,9.1c0,2.67-0.33,2.67-3.68,6.19
				c-3.34,3.52-3.32,7.9-3.32,7.9c0.67,6.08,4.99,6.58,7.08,7.83c0.35,0.21,0.98,0.4,1.8,0.56c3.36-0.92,4.65-2.74,4.65-2.74v-5.02
				c-4.82-3.22-4.34-12.78-4.34-12.78s-0.42-8.22,8.25-8.22c8.07,0,7.4,8.22,7.4,8.22s0.12,1.8-0.12,4.1
				c0.07-0.55,0.12-0.99,0.12-0.99s0.81-1.17,1.77-0.6c0.96,0.57,0.66,2.66,0,3.71c-0.65,1.05-1.78,1.57-2.37,0.77l0.1-0.48
				c-0.53,2.43-1.58,4.93-3.6,6.29v5c0.23,1.07,2.12,1.9,3.71,2.42c0.27,0.09,0.53,0.17,0.78,0.24c0.48-0.09,0.95-0.2,1.38-0.31
				C479.2-128.68,481.67-132.52,481.24-136.53z M455.95-144.13c0,0,0.11,1.02,0.24,1.9v0c0.06,0.39,0.12,0.76,0.17,1l0.2,0.97
				c-0.59,0.8-1.71,0.28-2.37-0.77c-0.65-1.05-0.96-3.14,0-3.71C455.14-145.3,455.95-144.13,455.95-144.13z M471.27-142.22
				C471.27-142.22,471.27-142.22,471.27-142.22c-0.01,0.09-0.03,0.19-0.04,0.27c0.02-0.1,0.03-0.19,0.05-0.28
				c0.04-0.25,0.07-0.5,0.09-0.74C471.34-142.73,471.3-142.47,471.27-142.22z"/>
		</g>
	</g>
	<rect x="59.54" y="165.8" class="st6" width="302.75" height="43.05"/>
	<text transform="matrix(1 0 0 1 59.5379 174.5642)"><tspan x="0" y="0" class="st3 st9 st21">Navigation menu</tspan><tspan x="100.49" y="0" class="st3 st22 st21"> on the left provides navigation to </tspan><tspan x="0" y="14.4" class="st3 st22 st21">the Dashboard, Sales pipeline, Customers, and Team </tspan><tspan x="0" y="28.8" class="st3 st22 st21">details.</tspan></text>
	<circle class="st3" cx="51.77" cy="222.57" r="1.77"/>
	<rect x="59.54" y="218.12" class="st6" width="302.75" height="28.42"/>
	<text transform="matrix(1 0 0 1 59.5379 226.8793)"><tspan x="0" y="0" class="st3 st9 st21">Sales pipeline</tspan><tspan x="83.27" y="0" class="st3 st22 st21"> section displays the list of Customers </tspan><tspan x="0" y="14.4" class="st3 st22 st21">and Status of sales prospects.</tspan></text>
	<circle class="st3" cx="51.77" cy="262.78" r="1.77"/>
	<rect x="59.54" y="258.33" class="st6" width="302.75" height="42.3"/>
	<text transform="matrix(1 0 0 1 59.5379 267.092)"><tspan x="0" y="0" class="st3 st22 st21">In the </tspan><tspan x="34.88" y="0" class="st3 st9 st21">Customer section</tspan><tspan x="138.74" y="0" class="st3 st22 st21">, details of upcoming </tspan><tspan x="0" y="14.4" class="st3 st22 st21">renewals can be viewed by filtering the purchase </tspan><tspan x="0" y="28.8" class="st3 st22 st21">value and product types.</tspan></text>
	<circle class="st3" cx="51.77" cy="316.88" r="1.77"/>
	<rect x="59.54" y="312.43" class="st6" width="302.75" height="62.89"/>
	<text transform="matrix(1 0 0 1 59.5379 321.1876)"><tspan x="0" y="0" class="st3 st22 st21">In </tspan><tspan x="13.34" y="0" class="st3 st9 st21">My team section</tspan><tspan x="110" y="0" class="st3 st22 st21">, representatives can be searched </tspan><tspan x="0" y="14.4" class="st3 st22 st21">with name and on selection of representatives their </tspan><tspan x="0" y="28.8" class="st3 st22 st21">profile details, goals achieved and location are </tspan><tspan x="0" y="43.2" class="st3 st22 st21">displayed.</tspan></text>
	<circle class="st11" cx="449.11" cy="170.25" r="1.77"/>
	<rect x="456.88" y="165.8" class="st6" width="302.75" height="29.08"/>
	<text transform="matrix(1 0 0 1 456.8803 174.5642)"><tspan x="0" y="0" class="st11 st9 st21">Navigation menu</tspan><tspan x="100.49" y="0" class="st11 st22 st21"> on the left provides navigation to </tspan><tspan x="0" y="14.4" class="st11 st22 st21">the dashboard, Sales pipeline and Customers.</tspan></text>
	<circle class="st11" cx="449.11" cy="211.21" r="1.77"/>
	<rect x="456.88" y="206.76" class="st6" width="311.38" height="42.89"/>
	<text transform="matrix(1 0 0 1 456.8803 215.5208)"><tspan x="0" y="0" class="st11 st9 st21">Sales pipeline</tspan><tspan x="83.27" y="0" class="st11 st22 st21"> section displays the list of customers </tspan><tspan x="0" y="14.4" class="st11 st22 st21">along with status of quotes and details of tasks to do.</tspan></text>
	<circle class="st11" cx="449.11" cy="262.78" r="1.77"/>
	<rect x="456.88" y="258.33" class="st6" width="302.75" height="56.5"/>
	<text transform="matrix(1 0 0 1 456.8803 267.092)"><tspan x="0" y="0" class="st11 st22 st21">The quotes in the pipeline can be converted to sales. </tspan><tspan x="0" y="14.4" class="st11 st22 st21">In the </tspan><tspan x="34.88" y="14.4" class="st11 st9 st21">Customer section</tspan><tspan x="138.74" y="14.4" class="st11 st22 st21">, details of upcoming </tspan><tspan x="0" y="28.8" class="st11 st22 st21">renewals can be viewed by filtering the purchase </tspan><tspan x="0" y="43.2" class="st11 st22 st21">value and product types.</tspan></text>
	<circle class="st11" cx="449.11" cy="335.63" r="1.77"/>
	<rect x="456.88" y="331.18" class="st6" width="317.44" height="27.85"/>
	<text transform="matrix(1 0 0 1 456.8803 339.9412)"><tspan x="0" y="0" class="st11 st22 st21">The </tspan><tspan x="24.77" y="0" class="st11 st9 st21">Profile details</tspan><tspan x="107.84" y="0" class="st11 st22 st21"> of the logged in user can be viewed </tspan><tspan x="0" y="14.4" class="st11 st22 st21">by clicking on the username from the header.</tspan></text>
	<circle class="st11" cx="449.11" cy="379.76" r="1.77"/>
	<rect x="456.88" y="375.31" class="st6" width="317.44" height="45.7"/>
	<text transform="matrix(1 0 0 1 456.8803 384.0741)"><tspan x="0" y="0" class="st11 st9 st21">Profile</tspan><tspan x="39.25" y="0" class="st11 st22 st21"> contains the basic information, goals achieved, </tspan><tspan x="0" y="14.4" class="st11 st22 st21">monthly bonus, quarterly commission and badges </tspan><tspan x="0" y="28.8" class="st11 st22 st21">earned.</tspan></text>
</g>
</svg>
