<?xml version="1.0" encoding="utf-8"?>
<!-- Generator: Adobe Illustrator 24.2.1, SVG Export Plug-In . SVG Version: 6.00 Build 0)  -->
<svg version="1.1" id="Layer_1" xmlns="http://www.w3.org/2000/svg" xmlns:xlink="http://www.w3.org/1999/xlink" x="0px" y="0px"
	 viewBox="0 0 40.61 41.62" style="enable-background:new 0 0 40.61 41.62;" xml:space="preserve">
<style type="text/css">
	.st0{fill:#8D8D8D;}
</style>
<g>
	<defs>
		<rect id="SVGID_1_" x="-140.46" y="-314.51" width="258.45" height="61.04"/>
	</defs>
	<clipPath id="SVGID_2_">
		<use xlink:href="#SVGID_1_"  style="overflow:visible;"/>
	</clipPath>
</g>
<g id="XMLID_2415_">
	<g id="XMLID_66_">
		<g id="XMLID_67_">
			<path id="XMLID_77_" class="st0" d="M20.21,10.2h4.79c0.33,0,0.6-0.27,0.6-0.6V4.81c0-0.33-0.27-0.6-0.6-0.6h-4.79
				c-0.33,0-0.6,0.27-0.6,0.6V9.6C19.62,9.93,19.88,10.2,20.21,10.2z M20.81,5.41h3.59V9h-3.59V5.41z"/>
			<path id="XMLID_72_" class="st0" d="M34.59,11.87h-1.56V9.6c0-0.33-0.27-0.6-0.6-0.6h-4.79c-0.33,0-0.6,0.27-0.6,0.6v2.28h-8.87
				V9.6c0-0.33-0.27-0.6-0.6-0.6h-4.79c-0.33,0-0.6,0.27-0.6,0.6v2.28h-1.56c-0.33,0-0.6,0.27-0.6,0.6v3.83c0,0.33,0.27,0.6,0.6,0.6
				h0.84l7.67,9.59v2.1c0,0.25,0.15,0.47,0.38,0.56l5.75,2.28c0.07,0.03,0.15,0.04,0.22,0.04c0.12,0,0.24-0.04,0.34-0.1
				c0.16-0.11,0.26-0.3,0.26-0.5V26.5l7.67-9.59h0.82c0.33,0,0.6-0.27,0.6-0.6v-3.83C35.19,12.14,34.92,11.87,34.59,11.87
				L34.59,11.87z M28.24,10.2h3.59v1.68h-3.59V10.2z M13.39,10.2h3.59v1.68h-3.59V10.2z M25.07,25.82
				c-0.11,0.11-0.18,0.27-0.18,0.43V30l-4.55-1.81v-1.94c0-0.16-0.06-0.31-0.18-0.43l-6.99-8.92h6.74c0.33,0,0.6-0.27,0.6-0.6
				s-0.27-0.6-0.6-0.6h-8.69v-2.64h22.76v2.64h-8.69c-0.33,0-0.6,0.27-0.6,0.6s0.27,0.6,0.6,0.6h6.76L25.07,25.82z"/>
			<path id="XMLID_69_" class="st0" d="M22.62,31.85c-1.39,0-2.52,1.13-2.52,2.52c0,1.39,1.13,2.52,2.52,2.52s2.52-1.13,2.52-2.52
				C25.13,32.97,24.01,31.85,22.62,31.85z M22.62,35.68c-0.73,0-1.32-0.59-1.32-1.32c0-0.73,0.59-1.32,1.32-1.32
				s1.32,0.59,1.32,1.32C23.94,35.09,23.34,35.68,22.62,35.68z"/>
		</g>
	</g>
</g>
<path class="st0" d="M22.81,22.68c-0.28,0-0.5-0.22-0.5-0.5v-3.4c0-0.28,0.22-0.5,0.5-0.5s0.5,0.22,0.5,0.5v3.4
	C23.31,22.46,23.09,22.68,22.81,22.68z"/>
<path class="st0" d="M22.81,23.2c-0.11,0-0.22-0.04-0.31-0.11l-1.47-1.17c-0.22-0.17-0.25-0.49-0.08-0.7
	c0.17-0.22,0.49-0.25,0.7-0.08l1.16,0.92l1.16-0.92c0.21-0.17,0.53-0.14,0.7,0.08c0.17,0.22,0.14,0.53-0.08,0.7l-1.47,1.17
	C23.03,23.17,22.92,23.2,22.81,23.2z"/>
</svg>
