<svg xmlns="http://www.w3.org/2000/svg" width="34" height="28" viewBox="0 0 34 28">
    <g fill="none" fill-rule="evenodd">
        <path fill="#118AF9" fill-rule="nonzero" d="M30.15 3.315h-8.454c-1.59 0-2.88 1.291-2.88 2.882v15.187c0 1.59 1.29 2.881 2.88 2.881h8.453c1.573 0 2.882-1.308 2.882-2.881V6.196c0-1.59-1.291-2.88-2.882-2.88zm-8.454 1.736h8.453c.632 0 1.146.514 1.146 1.146v15.187c0 .614-.531 1.146-1.146 1.146h-8.453c-.631 0-1.145-.514-1.145-1.146V6.196c0-.631.514-1.145 1.145-1.145zM11.334 3.315H2.881C1.291 3.315 0 4.606 0 6.197v15.187c0 1.59 1.291 2.881 2.881 2.881h8.453c1.586 0 2.882-1.303 2.882-2.881V6.196c0-1.59-1.292-2.88-2.882-2.88zM2.881 5.051h8.453c.632 0 1.146.514 1.146 1.146v15.187c0 .621-.521 1.146-1.146 1.146H2.881c-.631 0-1.145-.514-1.145-1.146V6.196c0-.631.514-1.145 1.145-1.145z"/>
        <path fill="#FFF" d="M7.186 1.84H26.279V26.14H7.186z"/>
        <path fill="#118AF9" fill-rule="nonzero" d="M23.097 0H9.853C7.73 0 6 1.737 6 3.853V23.71c0 2.123 1.737 3.853 3.853 3.853h13.244c2.104 0 3.83-1.733 3.853-3.844V3.853C26.95 1.73 25.213 0 23.097 0zM9.853 1.736h13.244c1.159 0 2.117.954 2.117 2.117V23.71c-.012 1.155-.97 2.117-2.117 2.117H9.853c-1.159 0-2.117-.954-2.117-2.117V3.853c0-1.159.954-2.117 2.117-2.117z"/>
        <path fill="#118AF9" d="M11.467 16.267h10.266c.258 0 .467.209.467.466 0 .258-.209.467-.467.467H11.467c-.258 0-.467-.209-.467-.467 0-.257.209-.466.467-.466zm3.733 2.8h3.733c.258 0 .467.209.467.466 0 .258-.209.467-.467.467H15.2c-.258 0-.467-.209-.467-.467 0-.257.21-.466.467-.466z"/>
        <circle cx="17" cy="11" r="3" stroke="#118AF9"/>
    </g>
</svg>
