<svg xmlns="http://www.w3.org/2000/svg" width="34" height="28" viewBox="0 0 34 28">
    <g fill="#118AF9">
        <path d="M32.267 6.943c.48 0 .868.388.868.868 0 .426-.307.78-.712.854l-.156.014H.867C.39 8.679 0 8.29 0 7.81c0-.426.307-.78.712-.854l.156-.014h31.399zM32.267 12.914c.48 0 .868.388.868.868 0 .426-.307.78-.712.853l-.156.014H.867c-.478 0-.867-.388-.867-.867 0-.426.307-.78.712-.854l.156-.014h31.399zM32.267 18.867c.48 0 .868.389.868.868 0 .426-.307.78-.712.854l-.156.014H.867c-.478 0-.867-.389-.867-.868 0-.426.307-.78.712-.854l.156-.014h31.399z"/>
        <path d="M29.299 0H3.853C1.73 0 0 1.737 0 3.853v19.84c0 2.123 1.737 3.853 3.853 3.853H29.3c2.106 0 3.83-1.718 3.853-3.827V3.853C33.152 1.73 31.415 0 29.3 0zM3.853 1.736H29.3c1.159 0 2.117.954 2.117 2.117V23.71c-.012 1.15-.965 2.1-2.117 2.1H3.853c-1.159 0-2.117-.955-2.117-2.117V3.852c0-1.159.954-2.117 2.117-2.117z"/>
        <path d="M5.326 3.947c.48 0 .868.389.868.868 0 .426-.307.78-.712.854l-.156.014h-.642c-.48 0-.868-.389-.868-.868 0-.426.307-.78.712-.854l.156-.014h.642zM5.283 10.125c.48 0 .868.389.868.868 0 .426-.307.78-.712.854l-.156.014h-.642c-.48 0-.868-.388-.868-.868 0-.426.307-.78.712-.854l.156-.014h.642zM5.283 16.125c.48 0 .868.389.868.868 0 .426-.307.78-.712.854l-.156.014h-.642c-.48 0-.868-.388-.868-.868 0-.426.307-.78.712-.854l.156-.014h.642zM5.283 22.125c.48 0 .868.389.868.868 0 .426-.307.78-.712.854l-.156.014h-.642c-.48 0-.868-.388-.868-.868 0-.426.307-.78.712-.854l.156-.014h.642zM8.61 0c.425 0 .78.307.853.712l.014.156v25.81c0 .48-.389.868-.868.868-.426 0-.78-.307-.854-.712l-.014-.156V.868c0-.48.389-.868.868-.868z"/>
    </g>
</svg>
