<svg xmlns="http://www.w3.org/2000/svg" width="34" height="27" viewBox="0 0 34 27">
    <g fill="#118AF9">
        <path d="M16.576 2c.426 0 .78.307.854.712l.014.156v14.927c0 .48-.389.868-.868.868-.426 0-.78-.307-.854-.712l-.014-.156V2.868c0-.48.389-.868.868-.868z"/>
        <path d="M13.643 4.708c-.376.297-.922.233-1.22-.143-.263-.334-.242-.802.03-1.111l.114-.108L16.038.604c.27-.214.636-.244.934-.092l.142.092 3.471 2.742c.377.297.44.843.143 1.22-.264.334-.724.421-1.087.228l-.131-.086-2.934-2.317-2.933 2.317zM32.284 21.84c.48 0 .868.388.868.867 0 2.024-1.583 3.702-3.579 3.844l-.274.01H3.853C1.737 26.56 0 24.83 0 22.706c0-.48.389-.868.868-.868.48 0 .868.389.868.868 0 1.09.842 1.997 1.903 2.107l.214.01H29.3c1.163 0 2.117-.958 2.117-2.117 0-.48.389-.868.868-.868z"/>
    </g>
</svg>
