<svg xmlns="http://www.w3.org/2000/svg" width="34" height="28" viewBox="0 0 34 28">
    <g fill="#118AF9">
        <path d="M24.56 5.242c.48 0 .868.388.868.868 0 .426-.307.78-.712.854l-.156.014H8.574c-.479 0-.867-.389-.867-.868 0-.426.307-.78.711-.854l.156-.014H24.56zM25.064 10.171c.479 0 .868.389.868.868 0 .426-.307.78-.712.854l-.156.014H8.574c-.479 0-.867-.389-.867-.868 0-.426.307-.78.711-.854l.156-.014h16.49zM25.064 15.361c.479 0 .868.389.868.868 0 .426-.307.78-.712.854l-.156.014H8.07c-.48 0-.868-.389-.868-.868 0-.426.307-.78.712-.854l.156-.014h16.993zM19.08 20c.508 0 .92.672.92 1.5 0 .736-.326 1.349-.755 1.476L19.08 23h-4.16c-.508 0-.92-.672-.92-1.5 0-.736.326-1.349.755-1.476L14.92 20h4.16z"/>
        <path d="M29.299 0H3.853C1.73 0 0 1.737 0 3.853V23.71c0 2.123 1.737 3.853 3.853 3.853H29.3c2.104 0 3.83-1.733 3.853-3.844V3.853C33.152 1.73 31.415 0 29.3 0zM3.853 1.736H29.3c1.159 0 2.117.954 2.117 2.117V23.71c-.012 1.155-.97 2.117-2.117 2.117H3.853c-1.159 0-2.117-.954-2.117-2.117V3.853c0-1.159.954-2.117 2.117-2.117z"/>
    </g>
</svg>
