<svg xmlns="http://www.w3.org/2000/svg" width="34" height="28" viewBox="0 0 34 28">
    <g fill="#118AF9">
        <path d="M29.299 0H3.853C1.73 0 0 1.737 0 3.853V23.71c0 2.123 1.737 3.853 3.853 3.853H29.3c2.11 0 3.83-1.721 3.853-3.844V3.853C33.152 1.73 31.415 0 29.3 0zM3.853 1.736H29.3c1.159 0 2.117.954 2.117 2.117V23.71c-.012 1.166-.963 2.117-2.117 2.117H3.853c-1.159 0-2.117-.954-2.117-2.117V3.853c0-1.159.954-2.117 2.117-2.117z"/>
        <g>
            <path d="M3.923 0l-.286.01C1.577.179 0 1.88 0 3.924l.01.285c.168 2.061 1.87 3.637 3.913 3.637l.286-.01c2.064-.17 3.658-1.89 3.636-3.921l-.01-.277C7.667 1.577 5.966 0 3.923 0zm-.18 1.743l.195-.007c1.122 0 2.073.88 2.164 2.007l.008.215c.011 1.09-.88 2.051-2.008 2.144l-.215.008c-1.102 0-2.052-.88-2.144-2.008l-.008-.214c0-1.103.881-2.053 2.008-2.145zM22.381 3c.342 0 .619.389.619.868 0 .426-.219.78-.508.854l-.111.014H10.619c-.342 0-.619-.389-.619-.868 0-.426.219-.78.508-.854L10.619 3h11.762z" transform="translate(5 5)"/>
        </g>
        <g>
            <path d="M3.923 0l-.286.01C1.577.179 0 1.88 0 3.924l.01.285c.168 2.061 1.87 3.637 3.913 3.637l.286-.01c2.064-.17 3.658-1.89 3.636-3.921l-.01-.277C7.667 1.577 5.966 0 3.923 0zm-.18 1.743l.195-.007c1.122 0 2.073.88 2.164 2.007l.008.215c.011 1.09-.88 2.051-2.008 2.144l-.215.008c-1.102 0-2.052-.88-2.144-2.008l-.008-.214c0-1.103.881-2.053 2.008-2.145zM22.381 3c.342 0 .619.389.619.868 0 .426-.219.78-.508.854l-.111.014H10.619c-.342 0-.619-.389-.619-.868 0-.426.219-.78.508-.854L10.619 3h11.762z" transform="translate(5 14)"/>
        </g>
    </g>
</svg>
