<svg xmlns="http://www.w3.org/2000/svg" xmlns:xlink="http://www.w3.org/1999/xlink" width="27" height="32" viewBox="0 0 27 32">
    <defs>
        <path id="prefix__a" d="M0 0L27 0 27 32 0 32z"/>
    </defs>
    <g fill="none" fill-rule="evenodd">
        <mask id="prefix__b" fill="#fff">
            <use xlink:href="#prefix__a"/>
        </mask>
        <path fill="#118AF9" d="M17.405 15.942v11.85c0 1.233-.792 2.436-1.897 2.891l-2.727 1.127c-1.591.658-3.185-.465-3.185-2.228V15.943c0-.098-.11-.427-.171-.507L.519 3.606C-.663 2.036.287 0 2.217 0h22.567c1.94 0 2.873 2.046 1.698 3.606l-8.906 11.83c-.061.081-.17.41-.17.506zm-1.735 0c0-.495.236-1.21.536-1.607l8.906-11.83c.297-.393.156-.712-.328-.712H2.217c-.478 0-.628.315-.328.713l8.906 11.829c.296.393.536 1.109.536 1.608v13.64c0 .495.355.749.806.563l2.727-1.128c.445-.183.806-.726.806-1.227V15.942z" mask="url(#prefix__b)"/>
    </g>
</svg>
