<svg xmlns="http://www.w3.org/2000/svg" width="29" height="30" viewBox="0 0 29 30">
    <g fill="#118AF9">
        <path d="M20.614 21.725c.301-.301.769-.335 1.107-.1l.12.1 5.989 5.988c.339.34.339.889 0 1.228-.302.3-.77.334-1.107.1l-.12-.1-5.989-5.989c-.339-.339-.339-.888 0-1.227z"/>
        <path d="M12.966 0C5.805 0 0 5.805 0 12.966c0 7.16 5.805 12.966 12.966 12.966 7.16 0 12.966-5.805 12.966-12.966S20.127 0 12.966 0zm0 1.736c6.202 0 11.23 5.028 11.23 11.23 0 6.202-5.028 11.23-11.23 11.23-6.202 0-11.23-5.028-11.23-11.23 0-6.202 5.028-11.23 11.23-11.23z"/>
    </g>
</svg>
