<svg xmlns="http://www.w3.org/2000/svg" width="34" height="31" viewBox="0 0 34 31">
    <g fill="#8D8D8D">
        <path d="M29.299 0H3.853C1.73 0 0 1.737 0 3.853V23.71l.01.274c.135 1.905 1.67 3.434 3.57 3.57l9.172.243 3.233 3.005.136.104c.333.206.775.164 1.064-.121l3.22-3.172 8.899-.05c2.123 0 3.848-1.725 3.848-3.853V3.853C33.152 1.73 31.415 0 29.3 0zM3.853 1.736H29.3c1.159 0 2.117.954 2.117 2.117V23.71c0 1.17-.948 2.117-2.117 2.117l-9.256.053-.168.017c-.163.033-.316.113-.437.232l-2.88 2.837-2.862-2.663c-.155-.144-.357-.227-.569-.232l-9.25-.243c-1.183 0-2.141-.955-2.141-2.118V3.853c0-1.159.954-2.117 2.117-2.117z"/>
        <path d="M24.82 7.863c.48 0 .869.388.869.868 0 .426-.307.78-.712.854l-.156.013H8.33c-.479 0-.867-.388-.867-.867 0-.426.307-.78.711-.854l.156-.014h16.49zM25.081 13.053c.48 0 .868.388.868.867 0 .426-.307.78-.712.854l-.156.014H8.071c-.48 0-.868-.388-.868-.868 0-.426.307-.78.712-.853l.156-.014h17.01zM18.537 18.242c.48 0 .868.389.868.868 0 .426-.307.78-.712.854l-.156.014h-3.922c-.48 0-.868-.388-.868-.868 0-.426.307-.78.712-.854l.156-.014h3.922z"/>
    </g>
</svg>
