<svg xmlns="http://www.w3.org/2000/svg" width="34" height="28" viewBox="0 0 34 28">
    <g fill="#8D8D8D">
        <path d="M29.299 0H3.853C1.73 0 0 1.737 0 3.853V23.71c0 2.123 1.737 3.853 3.853 3.853H29.3c2.11 0 3.83-1.721 3.853-3.844V3.853C33.152 1.73 31.415 0 29.3 0zM3.853 1.736H29.3c1.159 0 2.117.954 2.117 2.117V23.71c-.012 1.166-.963 2.117-2.117 2.117H3.853c-1.159 0-2.117-.954-2.117-2.117V3.853c0-1.159.954-2.117 2.117-2.117z"/>
        <path d="M12.67 3.992H6.319c-1.421 0-2.586 1.157-2.586 2.586v14.424c0 1.421 1.157 2.586 2.586 2.586h6.353c1.434 0 2.586-1.152 2.586-2.586V6.578c0-1.42-1.157-2.586-2.586-2.586zM6.319 5.728h6.353c.468 0 .85.385.85.85v14.424c0 .475-.375.85-.85.85H6.318c-.468 0-.85-.385-.85-.85V6.578c0-.468.385-.85.85-.85zM26.66 4.01h-6.352c-1.421 0-2.586 1.156-2.586 2.586v4.565c0 1.42 1.157 2.586 2.586 2.586h6.353c1.436 0 2.612-1.176 2.586-2.602v-4.55c0-1.42-1.157-2.585-2.586-2.585zm-6.352 1.735h6.353c.468 0 .85.385.85.85v4.566c.009.464-.378.85-.85.85h-6.353c-.468 0-.85-.385-.85-.85V6.596c0-.468.385-.85.85-.85zM26.66 16.09h-6.352c-1.421 0-2.586 1.157-2.586 2.586v2.326c0 1.421 1.157 2.586 2.586 2.586h6.353c1.44 0 2.612-1.162 2.586-2.602v-2.31c0-1.421-1.157-2.586-2.586-2.586zm-6.352 1.736h6.353c.468 0 .85.385.85.85v2.326c.009.474-.37.85-.85.85h-6.353c-.468 0-.85-.385-.85-.85v-2.326c0-.468.385-.85.85-.85z"/>
    </g>
</svg>
