<svg xmlns="http://www.w3.org/2000/svg" width="45" height="28" viewBox="0 0 45 28">
    <g fill="none" fill-rule="evenodd">
        <path fill="#8D8D8D" fill-rule="nonzero" d="M40.043 12.134c.48 0 .868.388.868.868 0 .426-.307.78-.712.854l-.156.014H5.988c-.48 0-.868-.39-.868-.868 0-.426.307-.78.712-.854l.156-.014h34.055z"/>
        <circle cx="11.716" cy="12.464" r="3.471" fill="#FFF"/>
        <circle cx="11.703" cy="12.826" r="1" fill="#8D8D8D"/>
        <circle cx="22.13" cy="12.464" r="3.471" fill="#FFF"/>
        <circle cx="34.28" cy="12.464" r="3.471" fill="#FFF"/>
        <path fill="#8D8D8D" fill-rule="nonzero" d="M41.05 0H3.853C1.73 0 0 1.737 0 3.853V23.71c0 2.123 1.737 3.853 3.853 3.853H41.05c2.109 0 3.83-1.721 3.853-3.844V3.853C44.903 1.73 43.166 0 41.05 0zM3.853 1.736H41.05c1.159 0 2.117.954 2.117 2.117V23.71c-.012 1.166-.964 2.117-2.117 2.117H3.853c-1.159 0-2.117-.954-2.117-2.117V3.853c0-1.159.954-2.117 2.117-2.117z"/>
        <path fill="#8D8D8D" fill-rule="nonzero" d="M11.664 9.079l-.285.01c-2.061.168-3.638 1.87-3.638 3.913l.011.285c.167 2.061 1.869 3.637 3.912 3.637l.284-.01c2.047-.17 3.639-1.886 3.639-3.912l-.011-.286c-.167-2.06-1.869-3.637-3.912-3.637zm-.18 1.743l.196-.007c1.122 0 2.072.88 2.164 2.007l.008.215c-.001 1.085-.897 2.052-2.012 2.144l-.212.008c-1.102 0-2.052-.881-2.144-2.008l-.008-.215c.001-1.102.882-2.052 2.008-2.144zM34.35 9.079l-.285.01c-2.062.168-3.638 1.87-3.638 3.913l.01.285c.168 2.061 1.87 3.637 3.913 3.637l.286-.01c2.064-.17 3.658-1.89 3.636-3.921l-.01-.277c-.168-2.06-1.869-3.637-3.912-3.637zm-.18 1.743l.195-.007c1.122 0 2.073.88 2.165 2.007l.007.215c.011 1.089-.88 2.051-2.008 2.144l-.215.008c-1.102 0-2.052-.881-2.144-2.008l-.008-.215c0-1.102.881-2.052 2.008-2.144zM22.443 9.079l-.285.01c-2.062.168-3.638 1.87-3.638 3.913l.01.285c.168 2.061 1.87 3.637 3.913 3.637l.286-.01c2.064-.17 3.658-1.89 3.636-3.921l-.01-.277c-.168-2.06-1.869-3.637-3.912-3.637zm-.18 1.743l.195-.007c1.122 0 2.073.88 2.165 2.007l.007.215c.011 1.089-.88 2.051-2.008 2.144l-.215.008c-1.102 0-2.052-.881-2.144-2.008l-.008-.215c0-1.102.881-2.052 2.008-2.144z"/>
    </g>
</svg>
