<?xml version="1.0" encoding="UTF-8"?>
<svg width="816px" height="604px" viewBox="0 0 816 604" version="1.1" xmlns="http://www.w3.org/2000/svg" xmlns:xlink="http://www.w3.org/1999/xlink">
    <!-- Generator: Sketch 56.3 (81716) - https://sketch.com -->
    <title>Group</title>
    <desc>Created with Sketch.</desc>
    <defs>
        <path d="M8.5221732,2.03555092 C-2.86424632,7.72785599 1.43664661,22.7203671 1.43664661,22.7203671 L1.43664661,22.7203671 L1.54159057,21.9749031 C2.02650403,21.3235268 4.04396117,18.4230929 4.69171871,14.6541573 L4.69171871,14.6541573 C12.5860375,15.9659568 18.6094589,11.5148854 21.707115,8.45703557 L21.707115,8.45703557 C22.1214627,9.99681676 23.3536496,13.2356044 26.6883343,15.5733216 L26.6883343,15.5733216 C27.7052051,19.8506926 29.8366531,22.4815291 29.8366531,22.4815291 L29.8366531,22.4815291 C30.017591,20.0099179 30.0067347,17.8730418 29.8692219,16.0238569 L29.8692219,16.0238569 C29.8330343,14.8622358 29.6828559,13.0311447 29.1563267,11.3104256 L29.1563267,11.3104256 C29.0513828,10.8761748 28.9392013,10.4744927 28.8252105,10.0999513 L28.8252105,10.0999513 L29.5163931,10.284508 C29.0568109,7.12352354 23.3825996,0.314831876 15.4430463,0.314831876 L15.4430463,0.314831876 C13.2844577,0.314831876 10.9575968,0.817839127 8.5221732,2.03555092 L8.5221732,2.03555092 Z" id="path-1"></path>
        <linearGradient x1="0%" y1="16.4059299%" x2="85.5339118%" y2="90.098168%" id="linearGradient-3">
            <stop stop-color="#1F6DBA" offset="0%"></stop>
            <stop stop-color="#7FDCDD" offset="100%"></stop>
        </linearGradient>
        <path d="M51.4405668,0.240849003 C23.0314157,0.240849003 0,23.2722647 0,51.6832544 L0,51.6832544 C0,80.0924055 23.0314157,103.121983 51.4405668,103.121983 L51.4405668,103.121983 C79.849718,103.121983 102.881134,80.0924055 102.881134,51.6832544 L102.881134,51.6832544" id="path-4"></path>
        <path d="M51.4405668,0.240849003 C23.0314157,0.240849003 0,23.2722647 0,51.6832544 L0,51.6832544 C0,80.0924055 23.0314157,103.121983 51.4405668,103.121983 L51.4405668,103.121983 C79.849718,103.121983 102.881134,80.0924055 102.881134,51.6832544 L102.881134,51.6832544" id="path-6"></path>
        <path d="M51.4405668,0.240849003 C23.0314157,0.240849003 0,23.2722647 0,51.6832544 L0,51.6832544 C0,80.0924055 23.0314157,103.121983 51.4405668,103.121983 L51.4405668,103.121983 C79.849718,103.121983 102.881134,80.0924055 102.881134,51.6832544 L102.881134,51.6832544" id="path-8"></path>
        <path d="M51.4405668,0.240849003 C23.0314157,0.240849003 0,23.2722647 0,51.6832544 L0,51.6832544 C0,80.0924055 23.0314157,103.121983 51.4405668,103.121983 L51.4405668,103.121983 C79.849718,103.121983 102.881134,80.0924055 102.881134,51.6832544 L102.881134,51.6832544" id="path-10"></path>
        <path d="M51.4405668,0.240849003 C23.0314157,0.240849003 0,23.2722647 0,51.6832544 L0,51.6832544 C0,80.0924055 23.0314157,103.121983 51.4405668,103.121983 L51.4405668,103.121983 C79.849718,103.121983 102.881134,80.0924055 102.881134,51.6832544 L102.881134,51.6832544" id="path-12"></path>
        <linearGradient x1="0%" y1="20.1277283%" x2="85.5339118%" y2="85.6557978%" id="linearGradient-14">
            <stop stop-color="#1F6DBA" offset="0%"></stop>
            <stop stop-color="#7FDCDD" offset="100%"></stop>
        </linearGradient>
        <path d="M49.660196,0.232513159 C22.2342927,0.232513159 0,22.4668058 0,49.8944841 L0,49.8944841 C0,77.3203874 22.2342927,99.5529051 49.660196,99.5529051 L49.660196,99.5529051 C77.0860993,99.5529051 99.320392,77.3203874 99.320392,49.8944841 L99.320392,49.8944841" id="path-15"></path>
        <path d="M49.660196,0.232513159 C22.2342927,0.232513159 0,22.4668058 0,49.8944841 L0,49.8944841 C0,77.3203874 22.2342927,99.5529051 49.660196,99.5529051 L49.660196,99.5529051 C77.0860993,99.5529051 99.320392,77.3203874 99.320392,49.8944841 L99.320392,49.8944841" id="path-17"></path>
        <path d="M49.660196,0.232513159 C22.2342927,0.232513159 0,22.4668058 0,49.8944841 L0,49.8944841 C0,77.3203874 22.2342927,99.5529051 49.660196,99.5529051 L49.660196,99.5529051 C77.0860993,99.5529051 99.320392,77.3203874 99.320392,49.8944841 L99.320392,49.8944841" id="path-19"></path>
        <path d="M49.660196,0.232513159 C22.2342927,0.232513159 0,22.4668058 0,49.8944841 L0,49.8944841 C0,77.3203874 22.2342927,99.5529051 49.660196,99.5529051 L49.660196,99.5529051 C77.0860993,99.5529051 99.320392,77.3203874 99.320392,49.8944841 L99.320392,49.8944841" id="path-21"></path>
        <path d="M49.660196,0.232513159 C22.2342927,0.232513159 0,22.4668058 0,49.8944841 L0,49.8944841 C0,77.3203874 22.2342927,99.5529051 49.660196,99.5529051 L49.660196,99.5529051 C77.0860993,99.5529051 99.320392,77.3203874 99.320392,49.8944841 L99.320392,49.8944841" id="path-23"></path>
        <linearGradient x1="0%" y1="27.2410132%" x2="85.5339118%" y2="77.1653203%" id="linearGradient-25">
            <stop stop-color="#1F6DBA" offset="0%"></stop>
            <stop stop-color="#7FDCDD" offset="100%"></stop>
        </linearGradient>
    </defs>
    <g id="Page-1" stroke="none" stroke-width="1" fill="none" fill-rule="evenodd">
        <g id="Artboard-Copy" transform="translate(-50.000000, -48.000000)">
            <g id="Group" transform="translate(43.000000, 46.000000)">
                <rect id="Rectangle-Copy-3" fill="#FDEFDD" x="32" y="178" width="250" height="400" rx="5"></rect>
                <rect id="Rectangle" fill="#FFF8EE" x="24" y="170" width="250" height="400" rx="5"></rect>
                <rect id="Rectangle-Copy-5" fill="#DCF1E5" x="564" y="178" width="250" height="400" rx="5"></rect>
                <rect id="Rectangle-Copy-4" fill="#E3F0FC" x="298" y="178" width="250" height="400" rx="5"></rect>
                <rect id="Rectangle-Copy" fill="#EFF6FC" x="290" y="170" width="250" height="400" rx="5"></rect>
                <g id="Group-16" transform="translate(386.000000, 190.000000)">
                    <g id="Group-2">
                        <g id="Group-72">
                            <g id="Group-49" transform="translate(0.000000, 5.377255)">
                                <g id="Group-6" transform="translate(23.000000, 53.000000)">
                                    <path d="M45.2410923,22.2822824 C45.2410923,9.11000624 29.3276076,1.199403 29.1665729,1.12159972 C28.9946819,1.03655893 28.9241161,0.830289768 29.0073476,0.658398801 C29.0923884,0.486507834 29.3004669,0.417751447 29.4705485,0.499173484 C29.6352019,0.578786142 45.932275,8.67575537 45.932275,22.2822824 C45.932275,22.4722672 45.7766684,22.6278737 45.5866837,22.6278737 C45.3966989,22.6278737 45.2410923,22.4722672 45.2410923,22.2822824 Z" id="Fill-4" fill="#1A1A1A"></path>
                                    <path d="M0.0362613797,3.16650781 L6.36860301,9.72793417 C8.85888775,12.3083098 12.9684692,12.3843918 15.5525574,9.89795973 L22.5347986,3.1795867 L21.841439,2.45899497 L14.8591978,9.177368 C12.6726616,11.2812721 9.19532347,11.216895 7.08815946,9.03350022 L0.755817828,2.47207386 L0.0362613797,3.16650781 Z" id="Path-8" fill="#000000" fill-rule="nonzero"></path>
                                </g>
                                <g id="Group-9" transform="translate(0.641441, 52.279833)" fill="#1A1A1A">
                                    <path d="M1.53525774,23.3480405 C1.34346361,23.3480405 1.18966643,23.1924339 1.18966643,23.0024492 C1.18966643,9.39954088 16.882407,1.30076227 17.0416323,1.22114962 C17.2135233,1.13610882 17.4197925,1.20305583 17.508452,1.37313742 C17.5953022,1.54502839 17.5265458,1.75310692 17.3546548,1.8399571 C17.2008576,1.91776038 1.88084905,9.82655423 1.88084905,23.0024492 C1.88084905,23.1924339 1.72524249,23.3480405 1.53525774,23.3480405" id="Fill-7"></path>
                                </g>
                                <g id="Group-12" transform="translate(16.925849, 38.709494)" fill="#1A1A1A">
                                    <path d="M18.5423309,18.5119334 C5.65412718,18.5119334 0.924411526,15.513793 0.727189259,15.3853272 C0.611389028,15.3093333 0.553488913,15.1682017 0.580629592,15.0324983 C0.60957965,14.8949856 0.718142366,14.7882322 0.857464518,14.7665197 C7.82719088,13.5578548 10.8741844,10.0856572 11.3391947,9.50484672 L11.3391947,0.544803896 C11.3391947,0.356628522 11.4929919,0.20464072 11.6793579,0.20464072 C11.8693427,0.20464072 12.0213305,0.356628522 12.0213305,0.544803896 L12.0213305,9.62245633 C12.0213305,9.69302209 11.9996179,9.76358786 11.9561928,9.81967859 C11.8403926,9.98614142 9.09556528,13.7315551 1.95032919,15.2478144 C3.81037039,16.0819379 8.86396482,17.831607 18.5423309,17.831607 C25.4632041,17.831607 31.7725073,15.9860409 34.2368809,15.1682017 C31.5318599,14.4933035 24.9891469,12.578981 24.36853,9.69483147 C24.3649113,9.67130955 24.3612925,9.64778763 24.3612925,9.62245633 L24.3612925,0.568325818 C24.3612925,0.380150444 24.5132803,0.228162641 24.7014557,0.228162641 C24.8914404,0.228162641 25.0434282,0.380150444 25.0434282,0.568325818 L25.0434282,9.58445938 C25.6568076,12.1718708 32.8074718,14.2019936 35.5215397,14.7683291 C35.6699088,14.7972791 35.7784715,14.9239356 35.7911371,15.074114 C35.8038028,15.2242925 35.7169526,15.3636146 35.5758211,15.417896 C35.4962084,15.4504648 27.5295144,18.5119334 18.5423309,18.5119334" id="Fill-10"></path>
                                </g>
                                <g id="Group-15" transform="translate(20.996951, 52.279833)" fill="#1A1A1A">
                                    <path d="M14.1549497,2.31763305 C6.34567168,2.31763305 0.970007867,0.786898753 0.890395208,0.765186209 L1.08399872,0.0975255065 C1.20341771,0.133713078 13.1217945,3.52086982 27.265707,0.0939067493 L27.4285511,0.768804967 C22.6318885,1.93042603 18.08492,2.31763305 14.1549497,2.31763305" id="Fill-13"></path>
                                </g>
                                <g id="Group-18" transform="translate(19.639917, 0.712543)" fill="#1A1A1A">
                                    <path d="M16.0421316,0.873929863 C11.3829817,0.873929863 7.74613072,2.21106065 5.2365226,4.84732527 C1.19979895,9.09212746 1.46034947,15.3326742 1.46215885,15.3941931 C1.45492133,15.5733216 0.818020064,29.8927438 7.21779217,36.6200135 C9.40714027,38.921543 12.1990115,40.0904016 15.513793,40.0904016 C18.8231465,40.0904016 21.587877,38.9251618 23.7319906,36.6290604 C30.0051062,29.9072189 29.0895607,15.5787497 29.0805138,15.4358088 L29.0787044,15.4104775 L29.0805138,15.3851462 C29.0859419,15.3181992 29.5654272,8.7592018 25.649932,4.51801836 C23.4189681,2.09887917 20.187418,0.873929863 16.0421316,0.873929863 M15.513793,40.7725373 C12.0054079,40.7725373 9.04707393,39.5313036 6.72383181,37.0904519 C3.26429993,33.4517915 1.83308146,27.7395833 1.24322404,23.5888688 C0.606322768,19.1106568 0.780023114,15.4321901 0.781832492,15.3941931 C0.769166842,15.1625927 0.499569431,8.84243321 4.73894349,4.38231497 C7.38244562,1.60130006 11.1839501,0.191794131 16.0421316,0.191794131 C20.3864496,0.191794131 23.7880814,1.49273734 26.1547486,4.06024558 C30.1860441,8.43351365 29.8006465,14.8857577 29.7608401,15.4140963 C29.7825527,15.7524501 29.9833937,19.3042603 29.4568645,23.58525 C28.9466198,27.7395833 27.623964,33.4554103 24.2295698,37.0940707 C21.9533715,39.533113 19.0203688,40.7725373 15.513793,40.7725373" id="Fill-16"></path>
                                </g>
                                <g id="Group-21" transform="translate(33.210256, 22.425086)" fill="#1A1A1A">
                                    <path d="M2.26678951,5.21716225 C1.62807886,5.21716225 1.0418402,4.85347715 0.806620979,4.26723849 C0.730627078,4.07544436 0.692630128,3.87279395 0.692630128,3.66471541 L0.692630128,1.25462312 C0.692630128,1.07368526 0.839189794,0.927125594 1.02193703,0.927125594 C1.20106551,0.927125594 1.34762518,1.07368526 1.34762518,1.25462312 L1.34762518,3.66471541 C1.34762518,3.78956254 1.3711471,3.90898152 1.41638157,4.02297238 C1.57922564,4.42827318 2.073186,4.64901737 2.53638692,4.52597963 L3.24385395,4.33961363 C3.42298243,4.29076041 3.59849216,4.39751375 3.645536,4.57302347 C3.69077047,4.74672382 3.58582651,4.92766168 3.41212616,4.97289614 L2.70465913,5.16107151 C2.55809946,5.19906847 2.4115398,5.21716225 2.26678951,5.21716225" id="Fill-19"></path>
                                </g>
                                <g id="Group-24" transform="translate(27.782120, 21.068052)" fill="#1A1A1A">
                                    <path d="M0.572306451,3.47853036 C0.516215714,3.47853036 0.460124978,3.4495803 0.427556163,3.40072708 C0.375084184,3.31930504 0.394987348,3.21436108 0.476409385,3.16007972 L3.70072205,1.03044111 C3.78033471,0.979778511 3.88889742,1.00149105 3.9413694,1.08110371 C3.99565076,1.16252575 3.97393822,1.26746971 3.89251618,1.32175107 L0.668203516,3.4495803 C0.63744408,3.46948346 0.604875266,3.47853036 0.572306451,3.47853036" id="Fill-22"></path>
                                </g>
                                <g id="Group-27" transform="translate(38.638392, 21.068052)" fill="#1A1A1A">
                                    <path d="M3.48956757,3.47853036 C3.45337999,3.47853036 3.41719242,3.46586471 3.38462361,3.44234278 L0.531233557,1.29280101 C0.455239655,1.23671027 0.438955248,1.12633818 0.498664742,1.05034428 C0.556564857,0.972540997 0.663318194,0.958065968 0.739312095,1.01777546 L3.59451152,3.16550786 C3.6723148,3.22340797 3.68498045,3.33197069 3.62888972,3.40977397 C3.59451152,3.45319906 3.54203954,3.47853036 3.48956757,3.47853036" id="Fill-25"></path>
                                </g>
                                <g id="Group-30" transform="translate(30.496188, 29.210256)" fill="#1A1A1A">
                                    <path d="M4.92440479,2.27873141 C2.2772839,2.27873141 0.292395582,1.05740085 0.210973545,1.00673825 C0.0571763637,0.910841187 0.00832314155,0.708190784 0.104220207,0.554393603 C0.201926652,0.400596422 0.400958297,0.353552578 0.556564857,0.449449644 C0.576468022,0.460305916 2.47450617,1.62373635 4.92440479,1.62373635 C7.37430342,1.62373635 9.27234157,0.460305916 9.29043535,0.449449644 C9.44604191,0.355361957 9.64688294,0.400596422 9.74278,0.554393603 C9.83867707,0.708190784 9.79163322,0.910841187 9.63783604,1.00673825 C9.55641401,1.05740085 7.57152568,2.27873141 4.92440479,2.27873141" id="Fill-28"></path>
                                </g>
                                <g id="Group-33" transform="translate(46.780596, 19.711018)" fill="#1A1A1A">
                                    <path d="M1.56185561,8.97017534 C1.83145302,9.28319784 2.17523495,9.42794813 2.576917,9.42071061 C3.4309437,9.38995118 4.47857391,8.61191838 5.18423156,7.48286613 C5.94236119,6.27058247 6.4996498,4.08123437 6.11787092,2.51793126 C5.96950187,1.90998005 5.69447633,1.4829667 5.30003179,1.25136624 C4.00632609,0.485999092 2.86098944,1.84484242 2.60948582,2.17233995 C2.54072943,2.78029115 2.16799744,6.05526642 1.883925,7.38154093 L1.56185561,8.97017534 Z M2.52263564,10.1137026 C1.87306873,10.1137026 1.31578012,9.82239266 0.912288689,9.26329467 L0.82181976,9.14025693 L1.20540802,7.24221878 C1.50757425,5.83814099 1.9255407,2.04387407 1.93096884,2.00406774 L1.94001573,1.91902694 L1.98886896,1.84484242 C2.56063259,1.01976578 4.05879807,-0.28660557 5.65467,0.654271301 C6.21376798,0.985387585 6.59554687,1.55715122 6.79095976,2.35327781 C7.21435435,4.0957094 6.60459376,6.51665796 5.77047023,7.85016999 C4.93634669,9.18549139 3.6933036,10.0738963 2.60043892,10.1137026 L2.52263564,10.1137026 Z" id="Fill-31"></path>
                                </g>
                                <g id="Group-36" transform="translate(48.137630, 22.425086)" fill="#1A1A1A">
                                    <path d="M0.450354333,3.02781415 C0.425023033,3.02781415 0.399691732,3.02238601 0.376169811,3.01152974 C0.289319638,2.96991403 0.253132066,2.86677945 0.294747774,2.77992928 C1.73139438,-0.201926652 3.95512068,0.434974615 3.98045198,0.44221213 C4.07273029,0.471162187 4.12339289,0.567059253 4.09625221,0.657528183 C4.06730215,0.749806491 3.97321446,0.802278471 3.88093616,0.775137792 C3.80313288,0.75161587 1.91233224,0.225086698 0.607770271,2.9301077 C0.577010835,2.99162658 0.515491963,3.02781415 0.450354333,3.02781415" id="Fill-34"></path>
                                </g>
                                <g id="Group-39" transform="translate(48.137630, 22.425086)" fill="#1A1A1A">
                                    <path d="M2.25629511,4.45378542 C2.21829816,4.45378542 2.17849183,4.44111977 2.14592302,4.41578847 C2.0717385,4.35246022 2.0626916,4.24570688 2.1224011,4.17152236 C2.48246744,3.73365274 2.62178959,3.30121125 2.54036755,2.88686355 C2.38114224,2.08711821 1.46197791,1.58592034 1.45112164,1.58049221 C1.36789022,1.53706712 1.33532141,1.43031378 1.38055587,1.34527299 C1.42579034,1.26204157 1.53254367,1.23309151 1.61577509,1.27470722 C1.65920017,1.29822914 2.69054598,1.86094589 2.88234011,2.81991655 C2.98366531,3.34101758 2.82082124,3.86935613 2.39018913,4.39045717 C2.35581094,4.43207288 2.30514833,4.45378542 2.25629511,4.45378542" id="Fill-37"></path>
                                </g>
                                <g id="Group-42" transform="translate(15.568815, 19.711018)" fill="#1A1A1A">
                                    <path d="M3.11140744,1.02067047 C2.85447568,1.02067047 2.58306889,1.08761748 2.30623396,1.25227093 C1.91359881,1.48387139 1.63857326,1.90907536 1.49020421,2.51883595 C1.11023471,4.08213906 1.66390456,6.27148716 2.42384357,7.48196144 C3.12769185,8.61101369 4.17532205,9.39085587 5.03115813,9.4216153 C5.43826832,9.42704344 5.77481274,9.28229315 6.04441015,8.97108003 L5.72234076,7.37882686 C5.43826832,6.05436173 5.06553632,2.78119584 4.99677994,2.17324463 C4.79955767,1.9145035 4.05047493,1.02067047 3.11140744,1.02067047 M5.08363011,10.1127979 L5.00582683,10.1127979 C3.91296216,10.074801 2.66991906,9.18639608 1.83579553,7.8492653 C1.00167199,6.51756265 0.391911404,4.09480471 0.815305997,2.35418249 C1.01071889,1.55805591 1.39430715,0.984482896 1.95340514,0.655175991 C3.5456583,-0.285700881 5.04563316,1.02067047 5.6173968,1.84574711 L5.66625002,1.91812225 L5.67529691,2.00497243 C5.68072505,2.04296938 6.0986915,5.8372363 6.40085773,7.23769533 L6.78444599,9.13935224 L6.69397706,9.26419936 C6.29048564,9.81967859 5.73319703,10.1127979 5.08363011,10.1127979" id="Fill-40"></path>
                                </g>
                                <g id="Group-45" transform="translate(16.925849, 22.425086)" fill="#1A1A1A">
                                    <path d="M4.44202446,3.02781415 C4.37688683,3.02781415 4.31536796,2.99162658 4.28460852,2.9301077 C2.98185593,0.225086698 1.08924592,0.75161587 1.01144264,0.775137792 C0.922783085,0.802278471 0.825076641,0.749806491 0.796126583,0.657528183 C0.768985904,0.567059253 0.819648505,0.471162187 0.911926814,0.44221213 C0.935448736,0.436783994 3.16098441,-0.200117273 4.59763102,2.77992928 C4.63924673,2.86677945 4.60305916,2.96991403 4.51620898,3.01152974 C4.49268706,3.02238601 4.46735576,3.02781415 4.44202446,3.02781415" id="Fill-43"></path>
                                </g>
                                <g id="Group-48" transform="translate(18.282883, 22.425086)" fill="#1A1A1A">
                                    <path d="M1.27904973,4.45378542 C1.23019651,4.45378542 1.17953391,4.43207288 1.14515572,4.39045717 C0.714523609,3.86935613 0.551679535,3.34101758 0.653004736,2.81991655 C0.844798868,1.86094589 1.87614467,1.29822914 1.91956976,1.27470722 C2.00461055,1.23309151 2.10955451,1.26204157 2.15478897,1.34527299 C2.20002344,1.43031378 2.16745462,1.53525774 2.08422321,1.58049221 C2.07336694,1.58592034 1.15239323,2.09073697 0.994977291,2.88867293 C0.913555254,3.30121125 1.05287741,3.73365274 1.41294375,4.17152236 C1.47265324,4.24570688 1.46360635,4.35246022 1.38942183,4.41578847 C1.35685301,4.44111977 1.31704668,4.45378542 1.27904973,4.45378542" id="Fill-46"></path>
                                </g>
                            </g>
                            <g id="Group-52" transform="translate(19.187572, 4.280420)">
                                <mask id="mask-2" fill="white">
                                    <use xlink:href="#path-1"></use>
                                </mask>
                                <g id="Clip-51"></g>
                                <polygon id="Fill-50" fill="#1A1A1A" mask="url(#mask-2)" points="-2.3757141 25.7347918 32.9867812 25.7347918 32.9867812 -2.70140225 -2.3757141 -2.70140225"></polygon>
                            </g>
                            <g id="Group-71" transform="translate(3.355509, 0.661663)" fill="#1A1A1A">
                                <g id="Group-55" transform="translate(24.426611, 42.068052)">
                                    <path d="M0.171167215,1.57723532 C0.171167215,1.57723532 7.8067449,7.17726209 14.593724,1.24430966 C14.593724,1.24430966 13.3633466,5.9667878 8.1450987,6.33228228 C8.1450987,6.33228228 3.86410894,6.6181641 0.171167215,1.57723532" id="Fill-53"></path>
                                </g>
                                <g id="Group-58" transform="translate(24.426611, 23.069577)">
                                    <path d="M0.206631036,2.3369934 C0.206631036,1.67114207 0.747635237,1.13013787 1.41348656,1.13013787 C2.07933789,1.13013787 2.61853271,1.67114207 2.61853271,2.3369934 C2.61853271,3.00284472 2.07933789,3.54203954 1.41348656,3.54203954 C0.747635237,3.54203954 0.206631036,3.00284472 0.206631036,2.3369934" id="Fill-56"></path>
                                </g>
                                <g id="Group-61" transform="translate(35.282883, 23.069577)">
                                    <path d="M1.28972507,2.3369934 C1.28972507,1.67114207 1.82891989,1.13013787 2.49477121,1.13013787 C3.16062254,1.13013787 3.70162674,1.67114207 3.70162674,2.3369934 C3.70162674,3.00284472 3.16062254,3.54203954 2.49477121,3.54203954 C1.82891989,3.54203954 1.28972507,3.00284472 1.28972507,2.3369934" id="Fill-59"></path>
                                </g>
                                <g id="Group-64" transform="translate(33.925849, 18.998475)">
                                    <path d="M0.542270766,0.400415484 L0.824533827,2.55719477 L7.63503487,3.34246509 C7.63503487,3.34246509 5.93964713,1.98362176 4.7834542,1.63622107 C3.6254519,1.287011 0.542270766,0.400415484 0.542270766,0.400415484" id="Fill-62"></path>
                                </g>
                                <g id="Group-67" transform="translate(20.355509, 18.998475)">
                                    <path d="M8.35932913,0.727370197 L8.02097533,2.87510259 L1.1923805,3.4830538 C1.1923805,3.4830538 2.92214644,2.16944494 4.08919563,1.85099431 C5.25443545,1.53254367 8.35932913,0.727370197 8.35932913,0.727370197" id="Fill-65"></path>
                                </g>
                                <g id="Group-70">
                                    <path d="M45.2713763,29.9247698 L45.2713763,29.9320073 C45.246045,30.0948514 45.2225231,30.2631236 45.1990011,30.4187302 C45.2297606,30.2450298 45.2587106,30.0767576 45.2840419,29.906676 C45.3491796,29.4489033 45.4034609,29.0019867 45.4523142,28.5677359 C45.3962234,29.0074149 45.3310858,29.4724252 45.2713763,29.9247698 M17.5444586,26.4706661 C17.5444586,26.4706661 17.7489184,28.3089947 17.971472,29.9121042 L17.971472,29.9193417 C18.0746066,30.6322369 18.1813599,31.2944694 18.2736382,31.7341484 L18.6282764,33.4892457 C17.5661712,34.9421767 15.5306203,33.9886342 14.3418585,32.0960241 C13.1603343,30.1961766 12.6048551,26.4109566 14.3418585,25.3778014 C16.078862,24.3536931 17.5444586,26.4706661 17.5444586,26.4706661 M63.3144997,40.2364185 C62.5364669,32.9826197 56.8477806,22.76144 53.3339673,19.9749969 C49.8237728,17.1885539 49.6120755,10.0975991 46.5487976,7.13564638 C43.4800915,4.17731237 39.2588112,6.1784851 39.2588112,6.1784851 C33.7293502,-0.15976813 28.3989209,0.864340157 28.3989209,0.864340157 C15.6265173,1.88482969 13.4299317,12.5095008 13.4299317,17.3333042 C13.4299317,22.1589169 12.8274086,22.1589169 6.78046536,28.5261202 C0.737140841,34.8933235 0.778752669,42.8111642 0.778752669,42.8111642 C1.99104021,53.8176142 9.81298389,54.7223035 13.5819195,56.9767893 C14.2206302,57.3567588 15.347873,57.7059688 16.8369916,57.9972788 C22.9110756,56.3326505 25.2506021,53.0450096 25.2506021,53.0450096 L25.2506021,43.9709759 C16.5366348,38.1447768 17.4051365,20.8380705 17.4051365,20.8380705 C17.4051365,20.8380705 16.652435,5.96135967 32.3252724,5.96135967 C46.9161014,5.96135967 45.7056272,20.8380705 45.7056272,20.8380705 C45.7056272,20.8380705 45.9281807,24.0931426 45.4885017,28.2547134 C45.6133488,27.2595552 45.6983896,26.4706661 45.6983896,26.4706661 C45.6983896,26.4706661 47.1639863,24.3536931 48.9009898,25.3778014 C50.6379932,26.4109566 50.0897515,30.1961766 48.9009898,32.0960241 C47.7194655,33.9886342 45.6748677,34.9421767 44.6145719,33.4892457 L44.7882722,32.6135064 C43.8238734,37.0175339 41.929454,41.5391711 38.2763186,43.9926884 L38.2763186,53.0450096 C38.6852382,54.9810447 42.1103919,56.4900664 44.9873039,57.4291339 C45.4758361,57.5865498 45.9517026,57.7313001 46.393191,57.8579566 C47.2671209,57.6951126 48.1048632,57.5015091 48.882896,57.2970493 C59.6179392,54.4382311 64.085295,47.4847891 63.3144997,40.2364185" id="Fill-68"></path>
                                </g>
                            </g>
                        </g>
                    </g>
                    <g id="Group-8" transform="translate(9.319495, 51.851697)" fill="url(#linearGradient-3)">
                        <path d="M6.5602373,18.8113209 C5.77811612,9.47060532 10.1377977,3.33263941 19.4578962,0.651347903 C19.70449,0.580405512 19.6202396,0.754817504 19.6276841,1.00006347 C19.6359455,1.27222097 19.6359455,1.59333879 19.6276841,1.85750807 C19.6218486,2.04410563 19.6094835,2.13051764 19.5914383,2.17331007 C19.5613776,2.24459619 19.5155544,2.19483432 19.4578962,2.28552315 C19.4091877,2.36213519 19.3060084,2.43111856 19.2055293,2.55453582 C19.1156678,2.66491166 19.0365344,2.83092739 18.862177,2.88956609 C11.2482111,5.45024439 7.84988081,10.6186771 8.51085359,18.6137166 C12.3233993,18.7175482 15.6281609,21.6776624 16.195484,25.714376 L17.2240263,33.0328352 C17.4472549,34.6211889 16.677063,36.1214271 15.3911112,36.8508581 L15.9802918,38.3857258 C15.9802918,38.3857258 13.7618828,39.2372932 12.96734,37.1674384 C12.1727972,35.0975837 14.3912062,34.2460163 14.3912062,34.2460163 L14.7929133,35.2924991 C15.381203,34.8510198 15.7217605,34.0820138 15.6062617,33.2601972 L14.5777193,25.9417379 C14.1063442,22.5877297 11.3084842,20.1769316 8.16748198,20.24638 C8.03729408,20.3374227 7.88307584,20.3980409 7.71404568,20.416725 C7.53894069,20.4360805 7.3695189,20.4080483 7.218576,20.3428769 C3.93192224,20.9415792 1.68049082,24.1672494 2.17485686,27.6848466 L3.20339923,35.0033058 C3.36878506,36.1800871 4.40320383,36.9950297 5.49637827,36.841394 C5.61522609,36.824691 5.73168964,36.8344609 5.83980812,36.8662117 L5.63485412,35.4078882 C5.63485412,35.4078882 7.98796637,35.0771799 8.29652908,37.2727176 C8.60509178,39.4682554 6.25197954,39.7989638 6.25197954,39.7989638 L6.04702555,38.3406403 C5.95184711,38.4009627 5.84258809,38.4424557 5.72374026,38.4591587 C3.72116023,38.740603 1.87445304,37.2857181 1.58563456,35.2306678 L0.557092197,27.9122086 C-0.0395329948,23.6669998 2.60227495,19.7318528 6.5602373,18.8113209 Z M42.9710564,27.0109161 C43.8652778,15.4962681 40.8876295,8.09219274 32.8863684,3.51469487 C32.623307,3.36419824 32.2727562,3.05744871 32.0885689,2.32539375 C31.9043816,1.59333879 31.9043816,1.35057715 31.9043816,0.85529406 C31.9043816,0.360010966 31.8814737,0.473835381 32.3607713,0.725493677 C41.7118796,5.63535313 45.8969263,14.565786 44.911235,27.322923 C47.7488502,28.2053061 49.8092178,30.8520336 49.8092178,33.9799857 C49.8092178,37.8295745 46.6885095,40.9502827 42.8389207,40.9502827 C38.989332,40.9502827 35.8686237,37.8295745 35.8686237,33.9799857 C35.8686237,30.130397 38.989332,27.0096887 42.8389207,27.0096887 C42.883063,27.0096887 42.9271094,27.010099 42.9710564,27.0109161 Z M42.8389207,38.9898867 C45.6058126,38.9898867 47.8488217,36.7468776 47.8488217,33.9799857 C47.8488217,31.2130938 45.6058126,28.9700847 42.8389207,28.9700847 C40.0720288,28.9700847 37.8290197,31.2130938 37.8290197,33.9799857 C37.8290197,36.7468776 40.0720288,38.9898867 42.8389207,38.9898867 Z M42.8389207,36.1582035 C41.6359242,36.1582035 40.6607029,35.1829822 40.6607029,33.9799857 C40.6607029,32.7769892 41.6359242,31.8017679 42.8389207,31.8017679 C44.0419172,31.8017679 45.0171386,32.7769892 45.0171386,33.9799857 C45.0171386,35.1829822 44.0419172,36.1582035 42.8389207,36.1582035 Z" id="Combined-Shape"></path>
                    </g>
                </g>
                <rect id="Rectangle-Copy-2" fill="#EFFAF4" x="556" y="170" width="250" height="400" rx="5"></rect>
                <text id="Patient" font-family="Raleway-Bold, Raleway" font-size="14" font-weight="bold" letter-spacing="0.215384615" fill="#333333">
                    <tspan x="124.967154" y="308">Patient</tspan>
                </text>
                <text id="Nurse" font-family="Raleway-Bold, Raleway" font-size="14" font-weight="bold" letter-spacing="0.215384615" fill="#333333">
                    <tspan x="394.815538" y="308">Nurse</tspan>
                </text>
                <text id="Pharmacist" font-family="Raleway-Bold, Raleway" font-size="14" font-weight="bold" letter-spacing="0.215384615" fill="#333333">
                    <tspan x="642.630077" y="308">Pharmacist</tspan>
                </text>
                <g id="Group-10" opacity="0.5" transform="translate(231.000000, 190.000000)" stroke="#000000" stroke-dasharray="3,3" stroke-linecap="round" stroke-width="1.3">
                    <path d="M0,22.328125 C16.1041667,7.44270833 32.7135417,-5.32907052e-15 49.828125,-5.32907052e-15 C66.9427083,-5.32907052e-15 84.0572917,7.44270833 101.171875,22.328125" id="Path-2"></path>
                    <path d="M97.125,6.97949219 C99.1298828,10.565918 100.478841,15.5154622 101.171875,21.828125 C95.0875651,22.6863607 89.4104004,24.0395508 84.1403809,25.8876953" id="Path-3"></path>
                </g>
                <g id="Group-10-Copy" opacity="0.5" transform="translate(551.000000, 267.000000) scale(1, -1) translate(-551.000000, -267.000000) translate(500.000000, 254.000000)" stroke="#000000" stroke-dasharray="3,3" stroke-linecap="round" stroke-width="1.3">
                    <path d="M0,22.328125 C16.1041667,7.44270833 32.7135417,-5.32907052e-15 49.828125,-5.32907052e-15 C66.9427083,-5.32907052e-15 84.0572917,7.44270833 101.171875,22.328125" id="Path-2"></path>
                    <path d="M97.125,6.97949219 C99.1298828,10.565918 100.478841,15.5154622 101.171875,21.828125 C95.0875651,22.6863607 89.4104004,24.0395508 84.1403809,25.8876953" id="Path-3"></path>
                </g>
                <text id="The-user-flow-starts" font-family="Raleway-Medium, Raleway" font-size="15" font-weight="400" line-spacing="18" letter-spacing="0.230769231" fill="#333333">
                    <tspan x="23.2940385" y="14">The user flow starts with a patient registering with the app. By logging into the app, the patient will be able to</tspan>
                </text>
                <text id="For-each-of-the-abov" font-family="Raleway-Medium, Raleway" font-size="13" font-weight="400" line-spacing="18" letter-spacing="0.2" fill="#555555">
                    <tspan x="6.509" y="601">For each of the above actions done, a push notification will be sent to the registered mobile number of the patient about the status. </tspan>
                </text>
                <g id="Group-7" transform="translate(48.000000, 44.000000)">
                    <g id="Group-11" transform="translate(0.000000, 57.000000)" fill="#555555" font-family="Raleway-Medium, Raleway" font-size="13" font-weight="400" letter-spacing="0.2" line-spacing="18">
                        <text id="See-patients-profile">
                            <tspan x="4.587" y="12">See patients </tspan>
                            <tspan x="0.994" y="30">profile details</tspan>
                        </text>
                    </g>
                    <g id="Group-6" transform="translate(145.000000, 57.000000)" fill="#555555" font-family="Raleway-Medium, Raleway" font-size="13" font-weight="400" letter-spacing="0.2" line-spacing="18">
                        <text id="Book-an-appointment">
                            <tspan x="1.8465" y="12">Book an appointment </tspan>
                            <tspan x="21.4215" y="30">with the doctor</tspan>
                        </text>
                    </g>
                    <g id="Group-5" transform="translate(331.000000, 57.000000)" fill="#555555" font-family="Raleway-Medium, Raleway" font-size="13" font-weight="400" letter-spacing="0.2" line-spacing="18">
                        <text id="Raise-a-request-to-r">
                            <tspan x="2.0675" y="12">Raise a request to refill the </tspan>
                            <tspan x="16.32" y="30">prescribed medicines.</tspan>
                        </text>
                    </g>
                    <g id="Group-4" transform="translate(553.000000, 57.000000)" fill="#555555" font-family="Raleway-Medium, Raleway" font-size="13" font-weight="400" letter-spacing="0.2" line-spacing="18">
                        <text id="Check-history-of-app">
                            <tspan x="0.053" y="12">Check history of appointments</tspan>
                            <tspan x="39.2105" y="30">and refill requests</tspan>
                        </text>
                    </g>
                    <path d="M119.5,71 L119.5,13" id="Path" stroke="#979797" opacity="0.5" stroke-dasharray="3,3"></path>
                    <path d="M308.5,71 L308.5,13" id="Path-Copy" stroke="#979797" opacity="0.5" stroke-dasharray="3,3"></path>
                    <path d="M528.5,71 L528.5,13" id="Path-Copy-2" stroke="#979797" opacity="0.5" stroke-dasharray="3,3"></path>
                    <g id="Group-13" transform="translate(22.000000, 0.000000)" stroke="#206DBA" stroke-linejoin="round" stroke-width="1.2">
                        <path d="M18.173913,27.7391304 C18.173913,27.7391304 15.3043478,26.7826087 15.3043478,22 C13.7241739,22 13.7241739,18.173913 15.3043478,18.173913 C15.3043478,17.5330435 12.4347826,10.5217391 17.2173913,11.4782609 C18.173913,7.65217391 28.6956522,7.65217391 29.6521739,11.4782609 C30.316,14.1335652 28.6956522,17.7033043 28.6956522,18.173913 C30.2758261,18.173913 30.2758261,22 28.6956522,22 C28.6956522,26.7826087 25.826087,27.7391304 25.826087,27.7391304 L25.826087,32.5217391 C30.5646957,34.2989565 35.2573913,35.7681739 37.6601739,37.4478261 C41.578087,33.4763478 44,28.0203478 44,22 C44,9.84834783 34.1516522,1.42108547e-14 22,1.42108547e-14 C9.84834783,1.42108547e-14 0,9.84834783 0,22 C0,28.0318261 2.42956522,33.4954783 6.36086957,37.4707826 C8.90521739,35.7107826 13.9212174,34.1306087 18.173913,32.5217391 L18.173913,27.7391304 Z" id="Stroke-1"></path>
                        <path d="M6.36125217,37.4705913 C10.3499478,41.5013739 15.8824696,43.9998087 22.0003826,43.9998087 C28.1278609,43.9998087 33.6680348,41.4937217 37.6586435,37.4476348" id="Stroke-3"></path>
                    </g>
                    <g id="Group-12" transform="translate(193.000000, 1.000000)" stroke="#206DBA" stroke-linecap="round" stroke-linejoin="round" stroke-width="1.2">
                        <polyline id="Stroke-1" points="7.30434783 3.65217391 0 3.65217391 0 42 42 42 42 3.65217391 34.6956522 3.65217391"></polyline>
                        <polygon id="Stroke-3" points="7.30434783 7.30434783 12.7826087 7.30434783 12.7826087 0 7.30434783 0"></polygon>
                        <polygon id="Stroke-5" points="29.2173913 7.30434783 34.6956522 7.30434783 34.6956522 0 29.2173913 0"></polygon>
                        <path d="M12.7826087,3.65217391 L29.2173913,3.65217391" id="Stroke-7"></path>
                        <path d="M0,12.7826087 L42,12.7826087" id="Stroke-8"></path>
                        <path d="M10.9565217,16.4347826 L10.9565217,38.3478261" id="Stroke-10"></path>
                        <path d="M20.0869565,16.4347826 L20.0869565,38.3478261" id="Stroke-11"></path>
                        <path d="M29.2173913,16.4347826 L29.2173913,38.3478261" id="Stroke-12"></path>
                        <path d="M3.65217391,20.0869565 L38.3478261,20.0869565" id="Stroke-13"></path>
                        <path d="M3.65217391,27.3913043 L38.3478261,27.3913043" id="Stroke-14"></path>
                        <path d="M3.65217391,34.6956522 L38.3478261,34.6956522" id="Stroke-15"></path>
                    </g>
                    <g id="Group-14" transform="translate(624.000000, 1.000000)" stroke="#206DBA" stroke-linecap="round" stroke-linejoin="round" stroke-width="1.2">
                        <polyline id="Stroke-1" points="-3.64153152e-14 14.6189345 6.74662669 24.7388745 14.6176912 15.7433723"></polyline>
                        <path d="M6.75989505,24.7388745 C5.05974513,11.0567156 15.5327586,0.448769552 27.3258621,0.0147365685 C39.1167166,-0.419296415 49.0275112,8.78760014 49.4592954,20.5784547 C49.900075,32.3715582 40.6886807,42.2823528 28.8978261,42.7141369" id="Stroke-3"></path>
                        <polyline id="Stroke-5" points="28.1109445 10.105891 28.1109445 22.4747066 39.3553223 22.4747066"></polyline>
                    </g>
                    <g id="Group-15" transform="translate(395.000000, 0.000000)" stroke="#206DBA" stroke-linecap="round" stroke-linejoin="round" stroke-width="1.2">
                        <path d="M21.6628974,39.6224681 C16.7257799,44.5595856 8.64313047,44.5595856 3.70405924,39.6224681 C-1.23501199,34.6853506 -1.23501199,26.6027012 3.70601299,21.66363 L21.6628974,3.70283811 C26.6000148,-1.23427937 34.6826642,-1.23427937 39.6217355,3.70283811 C44.5627604,8.64190934 44.5627604,16.7245587 39.6217355,21.66363 L21.6628974,39.6224681 Z" id="Stroke-1"></path>
                        <path d="M12.6840644,12.6840155 L30.6409488,30.6408999" id="Stroke-3"></path>
                        <path d="M20.2835523,11.9914124 L24.4254949,7.84556226 C27.4792008,4.79381018 32.4280407,4.79381018 35.4778391,7.84556226" id="Stroke-5"></path>
                    </g>
                </g>
                <g id="Group-8" transform="translate(97.000000, 184.000000)">
                    <g id="Group-92">
                        <g id="Group-91">
                            <g id="Group-6" transform="translate(0.000000, 1.289157)">
                                <mask id="mask-5" fill="white">
                                    <use xlink:href="#path-4"></use>
                                </mask>
                                <g id="Clip-5"></g>
                                <path d="M40.1298564,69.3389571 C39.9129085,69.3389571 39.7364084,69.1624571 39.7364084,68.9455092 L39.7364084,56.2172828 C39.7364084,56.0003349 39.9129085,55.8238348 40.1298564,55.8238348 C40.3468044,55.8238348 40.5233044,56.0003349 40.5233044,56.2172828 L40.5233044,68.9455092 C40.5233044,69.1624571 40.3468044,69.3389571 40.1298564,69.3389571" id="Fill-4" fill="#1A1A1A" mask="url(#mask-5)"></path>
                            </g>
                            <g id="Group-9" transform="translate(0.000000, 1.289157)">
                                <mask id="mask-7" fill="white">
                                    <use xlink:href="#path-6"></use>
                                </mask>
                                <g id="Clip-8"></g>
                                <path d="M62.7523804,69.3389571 C62.5354324,69.3389571 62.3589324,69.1624571 62.3589324,68.9455092 L62.3589324,55.5443765 C62.3589324,55.3274285 62.5354324,55.1490899 62.7523804,55.1490899 C62.9693284,55.1490899 63.1458284,55.3274285 63.1458284,55.5443765 L63.1458284,68.9455092 C63.1458284,69.1624571 62.9693284,69.3389571 62.7523804,69.3389571" id="Fill-7" fill="#1A1A1A" mask="url(#mask-7)"></path>
                            </g>
                            <g id="Group-12" transform="translate(0.000000, 1.289157)">
                                <mask id="mask-9" fill="white">
                                    <use xlink:href="#path-8"></use>
                                </mask>
                                <g id="Clip-11"></g>
                                <path d="M92.9609126,100.861679 C92.7439646,100.861679 92.5674646,100.683341 92.5674646,100.466393 C92.5674646,91.0843128 86.0553488,84.0151187 80.5912019,79.73867 C77.8830296,77.6188311 74.794279,75.9862058 71.4132002,74.881242 C68.7987935,74.0281585 63.9045947,70.3308506 62.7499903,69.4409962 C51.2977121,78.0582426 42.0847781,71.160033 40.2021111,69.542116 C38.271642,72.2227103 34.4235736,73.9196846 31.467198,74.881242 C28.0897964,75.9843672 25.0010458,77.6169925 22.2910349,79.73867 C16.826888,84.0151187 10.3147722,91.0843128 10.3147722,100.466393 C10.3147722,100.683341 10.1382722,100.861679 9.92132424,100.861679 C9.70437628,100.861679 9.52787625,100.683341 9.52787625,100.466393 C9.52787625,90.766245 16.2036223,83.5040041 21.8038212,79.1190814 C24.5892124,76.9404091 27.7570203,75.2636588 31.2245105,74.1329554 C34.1955944,73.1658823 38.095142,71.4413299 39.7957933,68.7349961 C39.8601423,68.6338763 39.9667777,68.5676888 40.0844444,68.554819 C40.2039497,68.5401106 40.3234549,68.5823971 40.4080278,68.66697 C40.4319289,68.6908711 42.8661585,71.0883299 46.7932842,72.2686738 C52.0386446,73.8461429 57.3262914,72.625351 62.5109798,68.6338763 C62.6562247,68.5217252 62.8529487,68.5235638 62.9945164,68.6357148 C63.0533497,68.6798398 68.8741737,73.2265542 71.6577263,74.1329554 C75.1270551,75.2636588 78.294863,76.9422476 81.076577,79.1190814 C86.6786145,83.5040041 93.3543606,90.766245 93.3543606,100.466393 C93.3543606,100.683341 93.1778605,100.861679 92.9609126,100.861679" id="Fill-10" fill="#1A1A1A" mask="url(#mask-9)"></path>
                            </g>
                            <g id="Group-15" transform="translate(0.000000, 1.289157)">
                                <mask id="mask-11" fill="white">
                                    <use xlink:href="#path-10"></use>
                                </mask>
                                <g id="Clip-14"></g>
                                <path d="M51.0461996,80.188929 C48.8877513,80.188929 46.6631154,79.8414445 44.4017088,79.032486 C38.7224525,77.0008971 35.5785457,73.0664172 35.4480092,72.8991099 C35.3119571,72.7281255 35.3413738,72.4817609 35.5141967,72.3457087 C35.6833426,72.2114952 35.9297072,72.2409119 36.0675978,72.4118963 C36.5695198,73.0498703 48.6303554,87.8611648 68.0508746,72.5369171 C68.221859,72.4027036 68.4700622,72.4302817 68.6042758,72.6031046 C68.7384893,72.774089 68.7090727,73.0222922 68.5399268,73.1565058 C64.1402958,76.6258345 57.9425707,80.188929 51.0461996,80.188929" id="Fill-13" fill="#1A1A1A" mask="url(#mask-11)"></path>
                            </g>
                            <g id="Group-18" transform="translate(0.000000, 1.289157)">
                                <mask id="mask-13" fill="white">
                                    <use xlink:href="#path-12"></use>
                                </mask>
                                <g id="Clip-17"></g>
                            </g>
                            <g id="Group-27" transform="translate(33.518072, 14.180723)" fill="#1A1A1A">
                                <path d="M18.2319212,1.23726136 C12.9130191,1.23726136 8.73769025,2.78715227 5.82360116,5.84648617 C0.945949216,10.9649871 1.25666282,18.661124 1.2603399,18.7401813 C1.25114719,18.9534521 0.497344966,36.476596 8.14200264,44.4999934 C10.6626437,47.1456553 13.848837,48.4859524 17.6160096,48.4859524 C21.3776666,48.4859524 24.5362817,47.1493324 27.0036051,44.5091861 C34.5048565,36.4913044 33.4237938,18.9608063 33.410924,18.7843063 L33.4090855,18.7548896 L33.4127625,18.7273115 C33.4182782,18.6464156 33.9882262,10.5660235 29.2613347,5.45671527 C26.670829,2.65477725 22.9588127,1.23726136 18.2319212,1.23726136 M17.6160096,49.2691713 C13.6263734,49.2691713 10.2471332,47.8479783 7.57389316,45.0405247 C3.44636635,40.7070812 1.73652228,33.7776164 1.03052215,28.7271415 C0.267527215,23.28138 0.475282462,18.7843063 0.477121004,18.7401813 C0.460574126,18.4478531 0.140667817,10.676336 5.24997606,5.30963191 C8.31850267,2.08666777 12.6868785,0.452203922 18.2319212,0.452203922 C23.1886304,0.452203922 27.0936937,1.95980837 29.8386369,4.92905371 C34.7052576,10.1909609 34.2401064,18.1316239 34.1959814,18.7604052 C34.2180439,19.1538532 34.4588929,23.5038436 33.8245959,28.7234644 C33.2105229,33.7776164 31.6293768,40.7107583 27.5772302,45.0442018 C24.9554693,47.8479783 21.6038072,49.2691713 17.6160096,49.2691713" id="Fill-25"></path>
                            </g>
                            <g id="Group-30" transform="translate(65.746988, 36.096386)" fill="#1A1A1A">
                                <path d="M1.97883244,12.1531788 C1.24709272,12.1531788 0.612795728,11.81121 0.142128974,11.1640432 L0.776425967,10.7025691 C1.10920207,11.1622046 1.54309798,11.3828297 2.0339887,11.3681213 C2.98267638,11.3368661 4.12992659,10.4543659 4.96094758,9.12326154 C5.84712483,7.70942273 6.49429161,5.15752642 6.04936445,3.33369275 C5.87470296,2.62401554 5.5529581,2.12577065 5.0933226,1.85366644 C3.41657229,0.860853751 1.94941577,2.92185934 1.88874388,3.00827082 L1.24525418,2.56150511 C1.9071293,1.60730181 3.64271296,0.0868275655 5.49412476,1.17892152 C6.14313009,1.5631768 6.58621871,2.22689046 6.81052084,3.14983855 C7.3032501,5.17223476 6.59724996,7.98704257 5.62466124,9.53693349 C4.64471835,11.1070484 3.28052018,12.1090538 2.06340537,12.1513402 C2.0339887,12.1513402 2.00641057,12.1531788 1.97883244,12.1531788" id="Fill-28"></path>
                            </g>
                            <g id="Group-33" transform="translate(65.746988, 39.963855)" fill="#1A1A1A">
                                <path d="M1.17630885,3.19919857 C1.14689218,3.19919857 1.11931405,3.1918444 1.09173592,3.1789746 C0.992454653,3.13301105 0.95384527,3.01534436 0.999808821,2.91790164 C2.67288205,-0.551427131 5.11078875,0.213406344 5.1346898,0.220760512 C5.23764815,0.253854269 5.29280441,0.366005331 5.25971065,0.468963684 C5.22477836,0.570083494 5.11814292,0.627078296 5.01150748,0.59398454 C4.92509601,0.56640641 2.87144458,-0.0586978727 1.35464743,3.0870475 C1.31971513,3.15875064 1.24985053,3.19919857 1.17630885,3.19919857" id="Fill-31"></path>
                            </g>
                            <g id="Group-36" transform="translate(67.036145, 39.963855)" fill="#1A1A1A">
                                <path d="M1.83527134,4.87797127 C1.79114633,4.87797127 1.74702132,4.8614244 1.71208902,4.83384627 C1.62751609,4.76398167 1.6146463,4.64079935 1.68451089,4.55622642 C2.10369847,4.04695029 2.26732871,3.54135123 2.17356307,3.05781469 C1.98970887,2.12935097 0.912323251,1.54101753 0.901291999,1.5355019 C0.803849272,1.48218418 0.770755516,1.3645175 0.82039615,1.26891331 C0.873713868,1.17330913 0.991380557,1.13653829 1.08698474,1.18801746 C1.13662538,1.21559559 2.33535476,1.86643946 2.55781835,2.98059592 C2.67732358,3.58547624 2.48611521,4.19954927 1.98603178,4.80626814 C1.94926094,4.85223169 1.8904276,4.87797127 1.83527134,4.87797127" id="Fill-34"></path>
                            </g>
                            <g id="Group-39" transform="translate(28.361446, 36.096386)" fill="#1A1A1A">
                                <path d="M5.73560274,12.1531788 C5.70802461,12.1531788 5.68044648,12.1513402 5.65286835,12.1513402 C4.433915,12.1108923 3.06787828,11.1088869 2.08793539,9.53693349 C1.11718521,7.98704257 0.411185082,5.1740733 0.90391434,3.14983855 C1.12821647,2.22689046 1.57130509,1.5631768 2.22031042,1.17892152 C4.06804514,0.0886661075 5.80730588,1.60730181 6.46734246,2.56150511 L5.8256913,3.00827082 C5.76501941,2.9200208 4.29970143,0.857176667 2.61927403,1.85366644 C2.15963853,2.12577065 1.83789368,2.62401554 1.66507073,3.33369275 C1.22014357,5.15752642 1.86731035,7.70942273 2.75164906,9.12326154 C3.58450859,10.4543659 4.73359734,11.3368661 5.68044648,11.3681213 C6.18420699,11.3993765 6.60523311,11.1622046 6.93800921,10.7025691 L7.5723062,11.1640432 C7.10163945,11.81121 6.46734246,12.1531788 5.73560274,12.1531788" id="Fill-37"></path>
                            </g>
                            <g id="Group-42" transform="translate(29.650602, 39.963855)" fill="#1A1A1A">
                                <path d="M5.2489697,3.19919857 C5.17542802,3.19919857 5.10556342,3.15875064 5.07063112,3.0870475 C3.5464798,-0.0770832928 1.43583357,0.586630372 1.41377107,0.59398454 C1.31081272,0.627078296 1.2005002,0.571922036 1.1655679,0.470802226 C1.13247414,0.366005331 1.1876304,0.253854269 1.29058875,0.220760512 C1.3144898,0.211567802 3.75423504,-0.553265673 5.42546973,2.91790164 C5.47143328,3.01534436 5.43098536,3.13301105 5.33354263,3.1789746 C5.3059645,3.1918444 5.27838637,3.19919857 5.2489697,3.19919857" id="Fill-40"></path>
                            </g>
                            <g id="Group-45" transform="translate(30.939759, 39.963855)" fill="#1A1A1A">
                                <path d="M2.01187781,4.87797127 C1.95488301,4.87797127 1.89788821,4.85223169 1.85927883,4.80626814 C1.36103394,4.19954927 1.16982557,3.58547624 1.2893308,2.98059592 C1.51179439,1.86643946 2.71052378,1.21559559 2.76016441,1.18801746 C2.85393005,1.13653829 2.97343528,1.17147058 3.026753,1.26891331 C3.07639364,1.3645175 3.04146134,1.48218418 2.94585715,1.5355019 C2.9348259,1.54101753 1.85744028,2.12935097 1.67358608,3.05965323 C1.57982044,3.54135123 1.74345068,4.04695029 2.16263826,4.55622642 C2.23066431,4.64079935 2.21963306,4.76398167 2.13506013,4.83384627 C2.09828929,4.8614244 2.05416428,4.87797127 2.01187781,4.87797127" id="Fill-43"></path>
                            </g>
                            <g id="Group-48" transform="translate(48.987952, 37.385542)" fill="#1A1A1A">
                                <path d="M2.52321505,9.0416593 C1.78595971,9.0416593 1.10569916,8.62063318 0.835433489,7.93669555 C0.747183472,7.71790905 0.703058464,7.48257568 0.703058464,7.24356522 L0.703058464,0.93001196 C0.703058464,0.724095255 0.868527245,0.558626474 1.07260541,0.558626474 C1.27668357,0.558626474 1.44399089,0.724095255 1.44399089,0.93001196 L1.44399089,7.24356522 C1.44399089,7.39064858 1.47156902,7.53037777 1.5230482,7.66459134 C1.71609511,8.14261226 2.2933973,8.40184668 2.84128282,8.25660186 L4.35624143,7.85396116 C4.55480397,7.7988049 4.75704359,7.92014868 4.81036131,8.11687267 C4.86184049,8.31359666 4.74601234,8.51767483 4.54928834,8.569154 L3.03065265,8.97363325 C2.86334532,9.0195968 2.69052237,9.0416593 2.52321505,9.0416593" id="Fill-46"></path>
                            </g>
                            <g id="Group-51" transform="translate(42.542169, 37.385542)" fill="#1A1A1A">
                                <path d="M0.677541436,3.73967186 C0.615031008,3.73967186 0.55252058,3.70841664 0.513911197,3.65142184 C0.455077853,3.56133328 0.480817441,3.43998951 0.569067458,3.38115617 L4.32337024,0.902801538 C4.4134588,0.843968194 4.53664111,0.86786924 4.59547446,0.957957799 C4.65614634,1.04804636 4.63040675,1.17122867 4.5403182,1.23006202 L0.786015415,3.7065781 C0.752921658,3.7286406 0.716150818,3.73967186 0.677541436,3.73967186" id="Fill-49"></path>
                            </g>
                            <g id="Group-54" transform="translate(55.433735, 37.385542)" fill="#1A1A1A">
                                <path d="M3.81934846,4.03769952 C3.77890054,4.03769952 3.73661407,4.02482972 3.70168177,3.99909013 L0.379436364,1.49499592 C0.29302489,1.43064695 0.27463947,1.30746463 0.33898844,1.22105316 C0.405175952,1.13280314 0.528358267,1.11625627 0.614769741,1.18244378 L3.93517661,3.68653799 C4.02158808,3.75088696 4.0399735,3.87223074 3.97562453,3.96048075 C3.93517661,4.01012139 3.87818181,4.03769952 3.81934846,4.03769952" id="Fill-52"></path>
                            </g>
                            <g id="Group-57" transform="translate(45.120482, 47.698795)" fill="#1A1A1A">
                                <path d="M6.52526621,3.51155718 C3.43835417,3.51155718 0.932421418,1.78884331 0.827624523,1.71346309 C0.6603172,1.5957964 0.618030734,1.36597865 0.737535965,1.19683279 C0.851525569,1.02952547 1.08318186,0.989077541 1.25232773,1.10490569 C1.27622877,1.12145257 3.67736464,2.77062475 6.52526621,2.77062475 C9.35294382,2.77062475 11.351439,1.14167653 11.3716629,1.12329111 C11.5297776,0.992754625 11.7632724,1.01665567 11.8938089,1.17293174 C12.0243454,1.32920781 12.0022828,1.56270265 11.8460068,1.69507767 C11.7577568,1.76861935 9.62872512,3.51155718 6.52526621,3.51155718" id="Fill-55"></path>
                            </g>
                            <g id="Group-60" transform="translate(36.096386, 30.650602)"></g>
                            <g id="Group-63" transform="translate(51.566265, 30.650602)"></g>
                            <g id="Group-66" transform="translate(50.277108, 0.000000)" fill="#1A1A1A">
                                <path d="M1.6990257,37.520017 C1.65306215,37.520017 1.60342151,37.5016316 1.57032776,37.4648607 C0.321957735,36.2128136 -1.01098522,37.4170586 -1.06798002,37.4703764 C-1.1415217,37.5384024 -1.25551131,37.5365639 -1.32721445,37.4611837 C-1.3952405,37.387642 -1.39156342,37.2699753 -1.31802174,37.2019492 C-1.30147486,37.1854024 0.331150445,35.701699 1.82772364,37.2056263 C1.89942678,37.2773295 1.89942678,37.3949961 1.82772364,37.4666993 C1.79279134,37.5016316 1.74498925,37.520017 1.6990257,37.520017" id="Fill-64"></path>
                            </g>
                            <g id="Group-69" transform="translate(33.906585, 36.608516)" fill="#1A1A1A">
                                <path d="M2.75265542,2.61711617 C2.71404604,2.61711617 2.67175957,2.60424637 2.63866581,2.57850678 L0.406675816,0.820860624 C0.325779967,0.758350196 0.311071631,0.644360591 0.37358206,0.563464743 C0.436092488,0.484407436 0.553759176,0.4696991 0.632816483,0.532209529 L2.86664502,2.28985569 C2.94386379,2.35052757 2.95857212,2.46819426 2.89606169,2.54725157 C2.8611294,2.59321512 2.80597314,2.61711617 2.75265542,2.61711617" id="Fill-67"></path>
                            </g>
                            <g id="Group-72" transform="translate(63.574847, 35.195742)" fill="#1A1A1A">
                                <path d="M0.838471921,4.02989055 C0.785154203,4.02989055 0.729997943,4.00598951 0.695065644,3.96002595 C0.632555216,3.88096865 0.647263552,3.76330196 0.724482317,3.70263007 L3.69924329,1.36584318 C3.77830059,1.30149421 3.8922902,1.31436401 3.95480062,1.39525985 C4.01731105,1.47431716 4.00444126,1.59014531 3.92538395,1.65265573 L0.952461526,3.99128117 C0.919367769,4.01702076 0.877081303,4.02989055 0.838471921,4.02989055" id="Fill-70"></path>
                            </g>
                            <g id="Group-75" transform="translate(39.557683, 54.974583)" fill="#1A1A1A">
                                <path d="M0.906052855,2.84109897 C0.906052855,2.84109897 12.4263571,15.0196012 23.2112445,1.34268723 C23.2112445,1.34268723 24.9596979,11.5852048 14.65467,13.5745072 C14.65467,13.5745072 5.46012141,14.462523 0.906052855,2.84109897" id="Fill-73"></path>
                            </g>
                            <g id="Group-78" transform="translate(42.383232, 35.195742)" fill="#1A1A1A">
                                <path d="M0.360663883,1.600625 C0.360663883,0.821083184 0.993122334,0.188624733 1.77266415,0.188624733 C2.55036741,0.188624733 3.18282587,0.821083184 3.18282587,1.600625 C3.18282587,2.38016681 2.55036741,3.01078672 1.77266415,3.01078672 C0.993122334,3.01078672 0.360663883,2.38016681 0.360663883,1.600625" id="Fill-76"></path>
                            </g>
                            <g id="Group-81" transform="translate(56.510975, 35.195742)" fill="#1A1A1A">
                                <path d="M0.260811699,1.600625 C0.260811699,0.821083184 0.893270149,0.188624733 1.67281196,0.188624733 C2.45051523,0.188624733 3.08297368,0.821083184 3.08297368,1.600625 C3.08297368,2.38016681 2.45051523,3.01078672 1.67281196,3.01078672 C0.893270149,3.01078672 0.260811699,2.38016681 0.260811699,1.600625" id="Fill-79"></path>
                            </g>
                            <g id="Group-84" transform="translate(31.081036, 11.178577)" fill="#1A1A1A">
                                <path d="M3.19729229,27.2732128 C3.19729229,27.2732128 6.72729294,21.0240085 5.31529268,17.4976849 C5.31529268,17.4976849 22.9487491,16.0856846 29.2972346,9.03303751 C29.2972346,9.03303751 32.8235582,23.8443319 36.3498818,26.6664939 C36.3498818,26.6664939 40.1758877,16.5048722 38.2619655,9.59379282 C36.3498818,2.68455195 27.8503021,-0.843610162 19.05104,0.213551493 C10.2536165,1.27255169 2.33685463,1.34241629 1.00575021,13.651455 C1.00575021,13.651455 0.373291763,22.2392848 3.19729229,27.2732128" id="Fill-82"></path>
                            </g>
                            <g id="Group-87" transform="translate(53.685427, 26.719096)" fill="#1A1A1A">
                                <path d="M0.344726627,1.25079883 L1.05072676,4.07112227 L10.2195358,4.07112227 C10.2195358,4.07112227 7.757728,2.52490845 6.16738917,2.24177298 C4.57705033,1.95679897 0.344726627,1.25079883 0.344726627,1.25079883" id="Fill-85"></path>
                            </g>
                            <g id="Group-90" transform="translate(36.770840, 27.764162)" fill="#1A1A1A">
                                <path d="M10.9106437,0.205732851 L10.2064821,3.02605629 L1.03767311,3.02605629 C1.03767311,3.02605629 3.49764232,1.47984246 5.08798115,1.19670699 C6.67831999,0.911732982 10.9106437,0.205732851 10.9106437,0.205732851" id="Fill-88"></path>
                            </g>
                        </g>
                    </g>
                    <path d="M40.4637356,51.8728162 L40.4637356,46.7446755 C40.4637129,46.1923782 40.9114383,45.7446528 41.4637356,45.7446528 C41.6176402,45.7446528 41.7694681,45.7801757 41.9073972,45.8484557 C45.0592977,47.4087619 48.0603941,48.188915 50.9106863,48.188915 C53.7997858,48.188915 56.9666143,47.3873734 60.4111716,45.7842903 C60.9118861,45.5512613 61.5067034,45.7682618 61.7397336,46.2689758 C61.8012401,46.4011351 61.8331094,46.5451435 61.8331094,46.6909144 L61.8331094,51.1235315 C63.9827267,48.4371194 65.5040126,43.5957669 66.3946272,36.5698334 L67.7770843,36.8963247 C66.7237814,45.2056838 64.7702059,50.8070703 61.8331094,53.5741341 L61.8331094,59.1868019 C61.8330962,59.5640397 61.6208034,59.909173 61.2841111,60.0793102 C57.5629401,61.9596899 54.1188904,62.8998798 50.9519621,62.8998798 C47.788744,62.8998798 44.4677984,61.9618916 40.9891254,60.0859151 C40.6654883,59.9114382 40.4637356,59.5734172 40.4637356,59.2057446 L40.4637356,54.1110564 C37.1541963,51.7003041 34.8345125,46.4924291 33.7125463,37.6413948 L35.0950034,37.3149034 C36.0662717,44.9771033 37.9375365,49.5557245 40.4637356,51.8728162 Z" id="Combined-Shape" fill="url(#linearGradient-14)"></path>
                </g>
                <text id="Patients-will-be-pro" opacity="0.900000036" font-family="Raleway-Medium, Raleway" font-size="13" font-weight="400" line-spacing="18" letter-spacing="0.2" fill="#333333">
                    <tspan x="53" y="335">Patients will be provided with a </tspan>
                    <tspan x="53" y="353">list of medical departments to </tspan>
                    <tspan x="53" y="371">choose according to the problem.</tspan>
                </text>
                <text id="They-have-to-add-sym" opacity="0.900000036" font-family="Raleway-Medium, Raleway" font-size="13" font-weight="400" line-spacing="18" letter-spacing="0.2" fill="#333333">
                    <tspan x="53" y="412">They have to add symptoms </tspan>
                    <tspan x="53" y="430">and choose a date for the </tspan>
                    <tspan x="53" y="448">appointment and the request </tspan>
                    <tspan x="53" y="466">gets sent to the nurse.</tspan>
                </text>
                <text id="Nurse-can-view-the-l" opacity="0.900000036" font-family="Raleway-Medium, Raleway" font-size="13" font-weight="400" line-spacing="18" letter-spacing="0.2" fill="#333333">
                    <tspan x="319" y="335">Nurse can view the list of </tspan>
                    <tspan x="319" y="353">appointments and requests for </tspan>
                    <tspan x="319" y="371">the medicines.</tspan>
                </text>
                <text id="By-clicking-on-the-p" opacity="0.900000036" font-family="Raleway-Medium, Raleway" font-size="13" font-weight="400" line-spacing="18" letter-spacing="0.2" fill="#333333">
                    <tspan x="319" y="411">By clicking on the patient card, </tspan>
                    <tspan x="319" y="429">it will redirect to the page where </tspan>
                    <tspan x="319" y="447">the Nurse can cancel/approve </tspan>
                    <tspan x="319" y="465">requests.</tspan>
                </text>
                <text id="When-a-Nurse-approve" opacity="0.900000036" font-family="Raleway-Medium, Raleway" font-size="13" font-weight="400" line-spacing="18" letter-spacing="0.2" fill="#333333">
                    <tspan x="319" y="505">When a Nurse approves </tspan>
                    <tspan x="319" y="523">medicine refill requests, it will </tspan>
                    <tspan x="319" y="541">be sent to the Pharmacist.</tspan>
                </text>
                <text id="Pharmacists-can-eith" opacity="0.900000036" font-family="Raleway-Medium, Raleway" font-size="13" font-weight="400" line-spacing="18" letter-spacing="0.2" fill="#333333">
                    <tspan x="585" y="335">Pharmacists can either approve </tspan>
                    <tspan x="585" y="353">or reject the requests.</tspan>
                </text>
                <text id="Separate-tabs-will-b" opacity="0.900000036" font-family="Raleway-Medium, Raleway" font-size="13" font-weight="400" line-spacing="18" letter-spacing="0.2" fill="#333333">
                    <tspan x="585" y="396">Separate tabs will be provided </tspan>
                    <tspan x="585" y="414">to view cancelled and approved </tspan>
                    <tspan x="585" y="432">requests.</tspan>
                </text>
                <g id="bullet" transform="translate(38.000000, 329.000000)" stroke="#555555" stroke-linecap="round" stroke-width="1.2">
                    <path d="M1.24344979e-13,3.65212757 L6.84944261,3.65212757" id="Path"></path>
                    <path d="M3.77218567,2.57571742e-14 L7.36801263,3.21901089 C7.61490614,3.44003179 7.63588004,3.81935136 7.41485914,4.06624487 C7.40432252,4.0780149 7.39332517,4.08936422 7.3818928,4.1002663 L3.77218567,7.54253555" id="Path-2"></path>
                </g>
                <g id="bullet" transform="translate(303.000000, 329.000000)" stroke="#555555" stroke-linecap="round" stroke-width="1.2">
                    <path d="M1.24344979e-13,3.65212757 L6.84944261,3.65212757" id="Path"></path>
                    <path d="M3.77218567,2.57571742e-14 L7.36801263,3.21901089 C7.61490614,3.44003179 7.63588004,3.81935136 7.41485914,4.06624487 C7.40432252,4.0780149 7.39332517,4.08936422 7.3818928,4.1002663 L3.77218567,7.54253555" id="Path-2"></path>
                </g>
                <g id="bullet" transform="translate(570.000000, 329.000000)" stroke="#555555" stroke-linecap="round" stroke-width="1.2">
                    <path d="M1.24344979e-13,3.65212757 L6.84944261,3.65212757" id="Path"></path>
                    <path d="M3.77218567,2.57571742e-14 L7.36801263,3.21901089 C7.61490614,3.44003179 7.63588004,3.81935136 7.41485914,4.06624487 C7.40432252,4.0780149 7.39332517,4.08936422 7.3818928,4.1002663 L3.77218567,7.54253555" id="Path-2"></path>
                </g>
                <g id="bullet" transform="translate(570.000000, 390.000000)" stroke="#555555" stroke-linecap="round" stroke-width="1.2">
                    <path d="M1.24344979e-13,3.65212757 L6.84944261,3.65212757" id="Path"></path>
                    <path d="M3.77218567,2.57571742e-14 L7.36801263,3.21901089 C7.61490614,3.44003179 7.63588004,3.81935136 7.41485914,4.06624487 C7.40432252,4.0780149 7.39332517,4.08936422 7.3818928,4.1002663 L3.77218567,7.54253555" id="Path-2"></path>
                </g>
                <g id="bullet" transform="translate(38.000000, 406.000000)" stroke="#555555" stroke-linecap="round" stroke-width="1.2">
                    <path d="M1.24344979e-13,3.65212757 L6.84944261,3.65212757" id="Path"></path>
                    <path d="M3.77218567,2.57571742e-14 L7.36801263,3.21901089 C7.61490614,3.44003179 7.63588004,3.81935136 7.41485914,4.06624487 C7.40432252,4.0780149 7.39332517,4.08936422 7.3818928,4.1002663 L3.77218567,7.54253555" id="Path-2"></path>
                </g>
                <g id="bullet" transform="translate(303.000000, 405.000000)" stroke="#555555" stroke-linecap="round" stroke-width="1.2">
                    <path d="M1.24344979e-13,3.65212757 L6.84944261,3.65212757" id="Path"></path>
                    <path d="M3.77218567,2.57571742e-14 L7.36801263,3.21901089 C7.61490614,3.44003179 7.63588004,3.81935136 7.41485914,4.06624487 C7.40432252,4.0780149 7.39332517,4.08936422 7.3818928,4.1002663 L3.77218567,7.54253555" id="Path-2"></path>
                </g>
                <g id="bullet" transform="translate(38.000000, 501.000000)" stroke="#555555" stroke-linecap="round" stroke-width="1.2">
                    <path d="M1.24344979e-13,3.65212757 L6.84944261,3.65212757" id="Path"></path>
                    <path d="M3.77218567,2.57571742e-14 L7.36801263,3.21901089 C7.61490614,3.44003179 7.63588004,3.81935136 7.41485914,4.06624487 C7.40432252,4.0780149 7.39332517,4.08936422 7.3818928,4.1002663 L3.77218567,7.54253555" id="Path-2"></path>
                </g>
                <g id="bullet" transform="translate(303.000000, 499.000000)" stroke="#555555" stroke-linecap="round" stroke-width="1.2">
                    <path d="M1.24344979e-13,3.65212757 L6.84944261,3.65212757" id="Path"></path>
                    <path d="M3.77218567,2.57571742e-14 L7.36801263,3.21901089 C7.61490614,3.44003179 7.63588004,3.81935136 7.41485914,4.06624487 C7.40432252,4.0780149 7.39332517,4.08936422 7.3818928,4.1002663 L3.77218567,7.54253555" id="Path-2"></path>
                </g>
                <text id="Refill-request:-Pati" opacity="0.900000036" font-family="Raleway-SemiBold, Raleway" font-size="13" font-weight="500" line-spacing="18" letter-spacing="0.2" fill="#333333">
                    <tspan x="53" y="507">Refill request:</tspan>
                    <tspan x="140.495" y="507" font-family="Raleway-Medium, Raleway" font-weight="400"> Patients can order </tspan>
                    <tspan x="53" y="525" font-family="Raleway-Medium, Raleway" font-weight="400">for medicines again from the list </tspan>
                    <tspan x="53" y="543" font-family="Raleway-Medium, Raleway" font-weight="400">shown.</tspan>
                </text>
                <g id="Group-17" transform="translate(631.000000, 190.000000)">
                    <g id="Group-8">
                        <g id="Group-92">
                            <g id="Group-91">
                                <g id="Group-6" transform="translate(0.000000, 1.244539)">
                                    <mask id="mask-16" fill="white">
                                        <use xlink:href="#path-15"></use>
                                    </mask>
                                    <g id="Clip-5"></g>
                                    <path d="M38.7409521,66.9391185 C38.5315127,66.9391185 38.3611214,66.7687272 38.3611214,66.5592879 L38.3611214,54.2715886 C38.3611214,54.0621493 38.5315127,53.891758 38.7409521,53.891758 C38.9503914,53.891758 39.1207827,54.0621493 39.1207827,54.2715886 L39.1207827,66.5592879 C39.1207827,66.7687272 38.9503914,66.9391185 38.7409521,66.9391185" id="Fill-4" fill="#1A1A1A" mask="url(#mask-16)"></path>
                                </g>
                                <g id="Group-9" transform="translate(0.000000, 1.244539)">
                                    <mask id="mask-18" fill="white">
                                        <use xlink:href="#path-17"></use>
                                    </mask>
                                    <g id="Clip-8"></g>
                                    <path d="M60.5805049,66.9391185 C60.3710655,66.9391185 60.2006742,66.7687272 60.2006742,66.5592879 L60.2006742,53.6219717 C60.2006742,53.4125324 60.3710655,53.2403662 60.5805049,53.2403662 C60.7899442,53.2403662 60.9603355,53.4125324 60.9603355,53.6219717 L60.9603355,66.5592879 C60.9603355,66.7687272 60.7899442,66.9391185 60.5805049,66.9391185" id="Fill-7" fill="#1A1A1A" mask="url(#mask-18)"></path>
                                </g>
                                <g id="Group-12" transform="translate(0.000000, 1.244539)">
                                    <mask id="mask-20" fill="white">
                                        <use xlink:href="#path-19"></use>
                                    </mask>
                                    <g id="Clip-11"></g>
                                    <path d="M89.7435122,97.3708313 C89.5340729,97.3708313 89.3636815,97.198665 89.3636815,96.9892257 C89.3636815,87.931862 83.0769517,81.1073345 77.8019203,76.9788947 C75.1874785,74.932424 72.2056303,73.3563042 68.9415716,72.2895836 C66.4176501,71.4660255 61.6928407,67.8966823 60.5781975,67.037626 C49.5222855,75.3566274 40.6282135,68.6971665 38.810706,67.1352461 C36.9470509,69.7230643 33.2321651,71.3613058 30.3781105,72.2895836 C27.1176015,73.3545293 24.1357534,74.9306491 21.5195366,76.9788947 C16.2445052,81.1073345 9.95777539,87.931862 9.95777539,96.9892257 C9.95777539,97.198665 9.78738406,97.3708313 9.57794473,97.3708313 C9.3685054,97.3708313 9.19811407,97.198665 9.19811407,96.9892257 C9.19811407,87.6248026 15.6428109,80.6139096 21.0491855,76.3807502 C23.7381736,74.2774823 26.7963429,72.6587648 30.1438224,71.5671953 C33.0120763,70.6335929 36.7766596,68.9687277 38.418451,66.3560607 C38.4805728,66.2584407 38.5835176,66.194544 38.6971118,66.1821196 C38.8124809,66.1679203 38.92785,66.2087432 39.0094959,66.2903891 C39.0325697,66.3134629 41.38255,68.627945 45.173757,69.767437 C50.2375741,71.2903094 55.3422141,70.1117695 60.3474592,66.2584407 C60.4876771,66.1501712 60.6775924,66.1519461 60.8142605,66.2602156 C60.8710576,66.3028134 66.4904214,70.6921649 69.1776345,71.5671953 C72.526889,72.6587648 75.5850582,74.2792572 78.2704965,76.3807502 C83.6786461,80.6139096 90.1233429,87.6248026 90.1233429,96.9892257 C90.1233429,97.198665 89.9529515,97.3708313 89.7435122,97.3708313" id="Fill-10" fill="#1A1A1A" mask="url(#mask-20)"></path>
                                </g>
                                <g id="Group-15" transform="translate(0.000000, 1.244539)">
                                    <mask id="mask-22" fill="white">
                                        <use xlink:href="#path-21"></use>
                                    </mask>
                                    <g id="Clip-14"></g>
                                    <path d="M49.2794779,77.4135701 C47.195734,77.4135701 45.0480934,77.0781122 42.8649545,76.297152 C37.3822588,74.3358768 34.3471633,70.5375703 34.2211447,70.3760535 C34.0898014,70.2109869 34.1182,69.973149 34.2850415,69.8418057 C34.4483332,69.7122373 34.6861711,69.7406359 34.8192893,69.9057025 C35.3038396,70.5215961 46.9472467,84.8202679 65.6956169,70.0263963 C65.8606835,69.8968279 66.1002963,69.9234516 66.2298647,70.0902931 C66.3594331,70.2553597 66.3310345,70.4949725 66.1677428,70.6245409 C61.9203841,73.9737953 55.9371638,77.4135701 49.2794779,77.4135701" id="Fill-13" fill="#1A1A1A" mask="url(#mask-22)"></path>
                                </g>
                                <g id="Group-18" transform="translate(0.000000, 1.244539)">
                                    <mask id="mask-24" fill="white">
                                        <use xlink:href="#path-23"></use>
                                    </mask>
                                    <g id="Clip-17"></g>
                                </g>
                                <g id="Group-24" transform="translate(86.951763, 88.265443)"></g>
                                <g id="Group-27" transform="translate(32.358003, 13.689925)" fill="#1A1A1A">
                                    <path d="M17.6009098,1.19443943 C12.4660963,1.19443943 8.43527661,2.69068824 5.62204487,5.64413783 C0.913209678,10.5854862 1.2131694,18.0152578 1.21671922,18.0915789 C1.20784467,18.2974684 0.480131733,35.2141319 7.86020589,42.9598375 C10.293607,45.5139324 13.3695253,46.8078415 17.0063151,46.8078415 C20.6377802,46.8078415 23.6870749,45.5174822 26.0690036,42.968712 C33.3106348,35.2283312 32.2669879,18.3045681 32.2545636,18.1341768 L32.2527887,18.1057782 L32.2563385,18.0791546 C32.2616632,18.0010585 32.8118852,10.2003308 28.2485926,5.26785699 C25.7477449,2.56289474 22.1642024,1.19443943 17.6009098,1.19443943 M17.0063151,47.563953 C13.1547613,47.563953 9.8924774,46.1919479 7.31175882,43.4816609 C3.32708675,39.298199 1.67642081,32.6085646 0.99485552,27.7328879 C0.258268032,22.4756057 0.458832818,18.1341768 0.460607727,18.0915789 C0.444633541,17.8093683 0.135799268,10.3068254 5.06827308,5.12586422 C8.03059722,2.01444767 12.2477824,0.436553031 17.6009098,0.436553031 C22.3860661,0.436553031 26.1559742,1.89197891 28.8059142,4.75845793 C33.5040999,9.83824924 33.0550478,17.5040838 33.01245,18.1111029 C33.0337489,18.4909336 33.2662621,22.6903697 32.6539182,27.7293381 C32.0610984,32.6085646 30.5346762,39.3017488 26.6227754,43.4852107 C24.0917543,46.1919479 20.8560941,47.563953 17.0063151,47.563953" id="Fill-25"></path>
                                </g>
                                <g id="Group-30" transform="translate(63.471468, 34.847081)" fill="#1A1A1A">
                                    <path d="M1.91034456,11.7325542 C1.20393053,11.7325542 0.591586715,11.402421 0.137209855,10.7776528 L0.74955367,10.3321505 C1.07081231,10.7758779 1.48969098,10.9888671 1.96359184,10.9746678 C2.8794452,10.9444943 3.9869888,10.0925377 4.78924794,8.80750318 C5.64475438,7.44259769 6.26952256,4.97902315 5.83999443,3.21831281 C5.67137802,2.5331977 5.36076884,2.0521972 4.91704144,1.78951058 C3.29832387,0.831059388 1.881946,2.82073306 1.82337398,2.90415381 L1.20215562,2.47285078 C1.84112308,1.55167269 3.51663775,0.0838224418 5.30397173,1.13811875 C5.93051482,1.50907486 6.35826804,2.14981723 6.57480701,3.04082185 C7.05048279,4.99322242 6.3689175,7.71060904 5.42999031,9.20685784 C4.48396349,10.7226306 3.16698056,11.6899564 1.9919904,11.7307793 C1.96359184,11.7307793 1.9369682,11.7325542 1.91034456,11.7325542" id="Fill-28"></path>
                                </g>
                                <g id="Group-33" transform="translate(63.471468, 38.580696)" fill="#1A1A1A">
                                    <path d="M1.13559651,3.0884735 C1.10719796,3.0884735 1.08057431,3.08137387 1.05395067,3.0689495 C0.958105549,3.02457676 0.920832448,2.91098254 0.965205188,2.81691233 C2.58037293,-0.5323421 4.93390308,0.206020298 4.9569769,0.213119936 C5.05637184,0.245068309 5.10961913,0.353337795 5.07767076,0.452732733 C5.04394747,0.550352762 4.94100272,0.60537496 4.83805796,0.573426587 C4.75463721,0.546802943 2.77206317,-0.0566663247 1.30776274,2.98020402 C1.27403946,3.04942549 1.20659289,3.0884735 1.13559651,3.0884735" id="Fill-31"></path>
                                </g>
                                <g id="Group-36" transform="translate(64.716007, 38.580696)" fill="#1A1A1A">
                                    <path d="M1.77175214,4.70914347 C1.72915431,4.70914347 1.68655648,4.69316928 1.6528332,4.66654564 C1.57118735,4.59909907 1.55876299,4.48018013 1.62620955,4.39853429 C2.03088894,3.90688433 2.1888559,3.41878418 2.09833551,2.95198296 C1.92084455,2.0556536 0.880747515,1.48768253 0.870098058,1.4823578 C0.776027848,1.43088542 0.744079475,1.3172912 0.792002035,1.2249959 C0.843474413,1.13270061 0.957068628,1.09720241 1.04936393,1.14689988 C1.09728649,1.17352353 2.25452755,1.80184153 2.46929162,2.87743675 C2.58466074,3.46138201 2.40007014,4.05420182 1.91729473,4.639922 C1.88179654,4.68429474 1.82499943,4.70914347 1.77175214,4.70914347" id="Fill-34"></path>
                                </g>
                                <g id="Group-39" transform="translate(27.379849, 34.847081)" fill="#1A1A1A">
                                    <path d="M5.5370921,11.7325542 C5.51046845,11.7325542 5.48384481,11.7307793 5.45722116,11.7307793 C4.28045609,11.6917313 2.96169825,10.7244056 2.01567143,9.20685784 C1.07851915,7.71060904 0.396953864,4.99499733 0.872629639,3.04082185 C1.08916861,2.14981723 1.51692183,1.50907486 2.14346492,1.13811875 C3.92724908,0.0855973514 5.60631357,1.55167269 6.24350612,2.47285078 L5.62406267,2.90415381 C5.56549065,2.81895815 4.15088769,0.827509569 2.52862031,1.78951058 C2.0848929,2.0521972 1.77428372,2.5331977 1.60744222,3.21831281 C1.17791409,4.97902315 1.80268228,7.44259769 2.6564138,8.80750318 C3.46044785,10.0925377 4.56976636,10.9444943 5.48384481,10.9746678 C5.97017004,11.0048413 6.37662434,10.7758779 6.69788298,10.3321505 L7.3102268,10.7776528 C6.85584994,11.402421 6.24350612,11.7325542 5.5370921,11.7325542" id="Fill-37"></path>
                                </g>
                                <g id="Group-42" transform="translate(28.624388, 38.580696)" fill="#1A1A1A">
                                    <path d="M5.06730155,3.0884735 C4.99630516,3.0884735 4.9288586,3.04942549 4.89513531,2.98020402 C3.42373525,-0.0744154208 1.38613901,0.566326949 1.3648401,0.573426587 C1.26544516,0.60537496 1.15895058,0.552127672 1.1252273,0.454507643 C1.09327893,0.353337795 1.14652622,0.245068309 1.24592116,0.213119936 C1.26899498,0.204245388 3.62430003,-0.53411701 5.23769287,2.81691233 C5.28206561,2.91098254 5.2430176,3.02457676 5.14894739,3.0689495 C5.12232374,3.08137387 5.0957001,3.0884735 5.06730155,3.0884735" id="Fill-40"></path>
                                </g>
                                <g id="Group-45" transform="translate(29.868926, 38.580696)" fill="#1A1A1A">
                                    <path d="M1.94224622,4.70914347 C1.88722402,4.70914347 1.83220182,4.68429474 1.79492872,4.639922 C1.31392822,4.05420182 1.12933762,3.46138201 1.24470674,2.87743675 C1.45947081,1.80184153 2.61671187,1.17352353 2.66463443,1.14689988 C2.75515482,1.09720241 2.87052395,1.1309257 2.92199633,1.2249959 C2.96991888,1.3172912 2.9361956,1.43088542 2.8439003,1.4823578 C2.83325084,1.48768253 1.79315381,2.0556536 1.61566285,2.95375787 C1.52514246,3.41878418 1.68310942,3.90688433 2.08778881,4.39853429 C2.15346046,4.48018013 2.14281101,4.59909907 2.06116516,4.66654564 C2.02566697,4.69316928 1.98306914,4.70914347 1.94224622,4.70914347" id="Fill-43"></path>
                                </g>
                                <g id="Group-48" transform="translate(47.292467, 36.091619)" fill="#1A1A1A">
                                    <path d="M2.43588595,8.72872522 C1.7241472,8.72872522 1.06743064,8.32227091 0.806518927,7.66200454 C0.721323266,7.4507903 0.678725435,7.22360187 0.678725435,6.99286362 L0.678725435,0.897824014 C0.678725435,0.699034138 0.8384673,0.539292273 1.03548227,0.539292273 C1.23249723,0.539292273 1.39401401,0.699034138 1.39401401,0.897824014 L1.39401401,6.99286362 C1.39401401,7.13485638 1.42063765,7.26974952 1.47033512,7.39931792 C1.65670063,7.86079442 2.21402225,8.11105667 2.74294531,7.97083881 L4.20547083,7.58213361 C4.39716107,7.52888632 4.59240113,7.64603035 4.6438735,7.83594568 C4.69357097,8.02586101 4.58175167,8.22287598 4.39183634,8.27257345 L2.925761,8.66305356 C2.76424423,8.7074263 2.59740272,8.72872522 2.43588595,8.72872522" id="Fill-46"></path>
                                </g>
                                <g id="Group-51" transform="translate(41.069774, 36.091619)" fill="#1A1A1A">
                                    <path d="M0.654091558,3.61024088 C0.593744631,3.61024088 0.533397704,3.58006742 0.496124603,3.52504522 C0.439327495,3.43807465 0.46417623,3.32093061 0.549371891,3.26413351 L4.17373732,0.871555352 C4.26070789,0.814758244 4.37962683,0.837832069 4.43642394,0.92480264 C4.49499595,1.01177321 4.47014722,1.13069215 4.38317665,1.18748926 L0.758811225,3.57829251 C0.726862852,3.59959142 0.69136466,3.61024088 0.654091558,3.61024088" id="Fill-49"></path>
                                </g>
                                <g id="Group-54" transform="translate(53.515160, 36.091619)" fill="#1A1A1A">
                                    <path d="M3.68715986,3.89795373 C3.64811185,3.89795373 3.60728893,3.88552936 3.57356564,3.86068063 L0.366303977,1.44325374 C0.282883225,1.3811319 0.265134129,1.26221296 0.327255966,1.17879221 C0.391152712,1.09359654 0.510071656,1.07762236 0.593492407,1.1415191 L3.79897916,3.55894599 C3.88239992,3.62106783 3.90014901,3.73821186 3.83802718,3.82340752 C3.79897916,3.87133008 3.74395697,3.89795373 3.68715986,3.89795373" id="Fill-52"></path>
                                </g>
                                <g id="Group-57" transform="translate(43.558851, 46.047928)" fill="#1A1A1A">
                                    <path d="M6.29942511,3.39002131 C3.31935188,3.39002131 0.90015008,1.726931 0.798980232,1.65415971 C0.637463457,1.54056549 0.596640536,1.31870179 0.712009661,1.15541011 C0.822054057,0.993893332 1.04569267,0.954845321 1.20898435,1.06666463 C1.23205818,1.08263881 3.55009013,2.67473273 6.29942511,2.67473273 C9.0292361,2.67473273 10.9585628,1.10216282 10.9780868,1.08441372 C11.1307291,0.95839514 11.3561426,0.981468965 11.4821612,1.13233628 C11.6081798,1.2832036 11.5868808,1.50861712 11.4360135,1.63641061 C11.3508179,1.707407 9.29547254,3.39002131 6.29942511,3.39002131" id="Fill-55"></path>
                                </g>
                                <g id="Group-60" transform="translate(34.847081, 28.624388)" fill="#1A1A1A">
                                    <path d="M6.42436007,1.48355353 C3.15142675,1.48355353 0.489062331,4.14591794 0.489062331,7.41885126 C0.489062331,10.6917846 3.15142675,13.354149 6.42436007,13.354149 C9.6990683,13.354149 12.3614327,10.6917846 12.3614327,7.41885126 C12.3614327,4.14591794 9.6990683,1.48355353 6.42436007,1.48355353 M6.42436007,13.7109058 C2.95618669,13.7109058 0.134080409,10.8887996 0.134080409,7.41885126 C0.134080409,3.95067789 2.95618669,1.1285716 6.42436007,1.1285716 C9.89253345,1.1285716 12.7164146,3.95067789 12.7164146,7.41885126 C12.7164146,10.8887996 9.89253345,13.7109058 6.42436007,13.7109058" id="Fill-58"></path>
                                </g>
                                <g id="Group-63" transform="translate(49.781544, 28.624388)" fill="#1A1A1A">
                                    <path d="M6.50900457,1.48355353 C3.23429634,1.48355353 0.571931926,4.14591794 0.571931926,7.41885126 C0.571931926,10.6917846 3.23429634,13.354149 6.50900457,13.354149 C9.78193789,13.354149 12.4460772,10.6917846 12.4460772,7.41885126 C12.4460772,4.14591794 9.78193789,1.48355353 6.50900457,1.48355353 M6.50900457,13.7109058 C3.04083119,13.7109058 0.218724914,10.8887996 0.218724914,7.41885126 C0.218724914,3.95067789 3.04083119,1.1285716 6.50900457,1.1285716 C9.97717795,1.1285716 12.7992842,3.95067789 12.7992842,7.41885126 C12.7992842,10.8887996 9.97717795,13.7109058 6.50900457,13.7109058" id="Fill-61"></path>
                                </g>
                                <g id="Group-66" transform="translate(48.537005, 0.000000)" fill="#1A1A1A">
                                    <path d="M1.640222,36.2214398 C1.59584926,36.2214398 1.5479267,36.2036908 1.51597832,36.1681926 C0.310814698,34.9594791 -0.97599477,36.1220449 -1.03101697,36.1735173 C-1.10201335,36.2391889 -1.21205775,36.237414 -1.28127922,36.1646427 C-1.34695088,36.0936464 -1.34340106,35.9800521 -1.27240467,35.9143805 C-1.25643049,35.8984063 0.319689246,34.4660542 1.76446567,35.9179303 C1.83368714,35.9871518 1.83368714,36.100746 1.76446567,36.1699675 C1.73074239,36.2036908 1.68459474,36.2214398 1.640222,36.2214398" id="Fill-64"></path>
                                </g>
                                <g id="Group-69" transform="translate(32.733070, 35.341486)" fill="#1A1A1A">
                                    <path d="M2.65738533,2.52653712 C2.62011223,2.52653712 2.5792893,2.51411276 2.54734093,2.48926402 L0.392600664,0.792450433 C0.314504641,0.732103506 0.300305364,0.62205911 0.360652291,0.543963087 C0.420999218,0.467641974 0.534593433,0.453442697 0.610914546,0.513789624 L2.76742972,2.21060321 C2.84197593,2.26917523 2.8561752,2.38276944 2.79582828,2.45909056 C2.76210499,2.5034633 2.70885771,2.52653712 2.65738533,2.52653712" id="Fill-67"></path>
                                </g>
                                <g id="Group-72" transform="translate(61.374506, 33.977608)" fill="#1A1A1A">
                                    <path d="M0.809452199,3.89041503 C0.75797982,3.89041503 0.704732532,3.86734121 0.671009249,3.82296847 C0.610662322,3.74664736 0.624861599,3.63305314 0.699407803,3.57448112 L3.57121155,1.31857101 C3.64753267,1.25644917 3.75757706,1.26887354 3.81792399,1.34696956 C3.87827092,1.42329067 3.86584655,1.53510998 3.78952543,1.59545691 L0.919496594,3.85314193 C0.887548222,3.87799067 0.8467253,3.89041503 0.809452199,3.89041503" id="Fill-70"></path>
                                </g>
                                <g id="Group-75" transform="translate(38.188582, 53.071899)" fill="#1A1A1A">
                                    <path d="M0.874694139,2.74276782 C0.874694139,2.74276782 11.9962778,14.4997691 22.4078975,1.29621649 C22.4078975,1.29621649 24.0958366,11.1842379 14.1474682,13.1046901 C14.1474682,13.1046901 5.27114524,13.9619715 0.874694139,2.74276782" id="Fill-73"></path>
                                </g>
                                <g id="Group-78" transform="translate(40.916337, 33.977608)" fill="#1A1A1A">
                                    <path d="M0.348181216,1.54522697 C0.348181216,0.79266529 0.958750122,0.182096384 1.7113118,0.182096384 C2.46209856,0.182096384 3.07266747,0.79266529 3.07266747,1.54522697 C3.07266747,2.29778864 2.46209856,2.90658264 1.7113118,2.90658264 C0.958750122,2.90658264 0.348181216,2.29778864 0.348181216,1.54522697" id="Fill-76"></path>
                                </g>
                                <g id="Group-81" transform="translate(54.555116, 33.977608)" fill="#1A1A1A">
                                    <path d="M0.251784941,1.54522697 C0.251784941,0.79266529 0.862353847,0.182096384 1.61491552,0.182096384 C2.36570229,0.182096384 2.97627119,0.79266529 2.97627119,1.54522697 C2.97627119,2.29778864 2.36570229,2.90658264 1.61491552,2.90658264 C0.862353847,2.90658264 0.251784941,2.29778864 0.251784941,1.54522697" id="Fill-79"></path>
                                </g>
                                <g id="Group-84" transform="translate(30.005314, 10.791684)" fill="#1A1A1A">
                                    <path d="M3.0866332,26.3292801 C3.0866332,26.3292801 6.49445966,20.2963623 5.13132908,16.8920857 C5.13132908,16.8920857 22.1544871,15.5289551 28.28325,8.72040182 C28.28325,8.72040182 31.6875267,23.0190736 35.0918033,25.7435599 C35.0918033,25.7435599 38.7853902,15.9336345 36.9377093,9.26174925 C35.0918033,2.59163894 26.8863962,-0.814412604 18.3916788,0.206160422 C9.89873629,1.22850836 2.25597551,1.29595492 0.970940948,13.1789748 C0.970940948,13.1789748 0.360372042,21.4695776 3.0866332,26.3292801" id="Fill-82"></path>
                                </g>
                                <g id="Group-87" transform="translate(51.827361, 25.794341)" fill="#1A1A1A">
                                    <path d="M0.332795552,1.20750837 L1.01436084,3.93021972 L9.86583507,3.93021972 C9.86583507,3.93021972 7.4892311,2.43752073 5.95393429,2.16418465 C4.41863748,1.88907366 0.332795552,1.20750837 0.332795552,1.20750837" id="Fill-85"></path>
                                </g>
                                <g id="Group-90" transform="translate(35.498192, 26.803237)" fill="#1A1A1A">
                                    <path d="M10.5330236,0.198612385 L9.85323321,2.92132373 L1.00175898,2.92132373 C1.00175898,2.92132373 3.37658804,1.42862475 4.91188486,1.15528867 C6.44718167,0.880177676 10.5330236,0.198612385 10.5330236,0.198612385" id="Fill-88"></path>
                                </g>
                            </g>
                        </g>
                    </g>
                    <g id="Group-19" transform="translate(32.189373, 3.443223)">
                        <path d="M1.35709781,22.4598429 C6.33501829,21.323774 11.4364912,20.7557395 16.6615166,20.7557395 C21.9067899,20.7557395 27.1540069,21.328185 32.4031676,22.4730759 C32.942762,22.590752 33.4755939,22.2487333 33.5932838,21.7091419 C33.6167321,21.6016349 33.6222759,21.4909949 33.6096919,21.3816824 L31.7065553,4.84992081 C31.6033341,3.95313642 31.101772,3.15051207 30.3409824,2.66463555 C27.5594429,0.888211849 23.207241,2.13162821e-14 17.2843766,2.13162821e-14 C11.30351,2.13162821e-14 6.6486966,0.905693426 3.31993642,2.71708028 C2.447998,3.19155687 1.86722211,4.06663212 1.76868519,5.05440492 L0.139535326,21.3856434 C0.0847100782,21.9352019 0.485773373,22.4251494 1.03533217,22.4799716 C1.14297012,22.4907092 1.25163722,22.4839113 1.35709781,22.4598429 Z" id="Path-5" fill="url(#linearGradient-25)"></path>
                        <path d="M12.6442174,11.5201984 C11.9604363,11.5201984 11.4061221,10.9658843 11.4061221,10.2821032 C11.4061221,9.59832207 11.9604363,9.04400795 12.6442174,9.04400795 L15.6474912,9.04400795 L15.6474912,6.34284509 C15.6474912,5.65906397 16.2018053,5.10474985 16.8855864,5.10474985 C17.5693675,5.10474985 18.1236816,5.65906397 18.1236816,6.34284509 L18.1236816,9.04400795 L20.8643324,9.04400795 C21.5481135,9.04400795 22.1024276,9.59832207 22.1024276,10.2821032 C22.1024276,10.9658843 21.5481135,11.5201984 20.8643324,11.5201984 L18.1236816,11.5201984 L18.1236816,14.2213613 C18.1236816,14.9051424 17.5693675,15.4594565 16.8855864,15.4594565 C16.2018053,15.4594565 15.6474912,14.9051424 15.6474912,14.2213613 L15.6474912,11.5201984 L12.6442174,11.5201984 Z" id="Combined-Shape" fill="#FFFFFF" fill-rule="nonzero"></path>
                    </g>
                </g>
                <g id="Group-22" transform="translate(407.000000, 210.000000)" fill="#1A1A1A">
                    <path d="M6.51579288,0.367708402 C3.12552141,0.367708402 0.367708402,3.12552141 0.367708402,6.51579288 C0.367708402,9.90606434 3.12552141,12.6638774 6.51579288,12.6638774 C9.90790288,12.6638774 12.6657159,9.90606434 12.6657159,6.51579288 C12.6657159,3.12552141 9.90790288,0.367708402 6.51579288,0.367708402 M6.51579288,13.0334243 C2.92328179,13.0334243 1.95399252e-14,10.1101425 1.95399252e-14,6.51579288 C1.95399252e-14,2.92328179 2.92328179,9.76996262e-15 6.51579288,9.76996262e-15 C10.108304,9.76996262e-15 13.0334243,2.92328179 13.0334243,6.51579288 C13.0334243,10.1101425 10.108304,13.0334243 6.51579288,13.0334243" id="Fill-58"></path>
                    <path d="M12.9864377,5.65207151 C13.578931,5.44197633 14.0323808,5.33827391 14.3378556,5.33827391 C14.6455595,5.33827391 15.133105,5.44295437 15.7896682,5.65440955 L15.9429467,5.17848342 C15.2408861,4.95237516 14.7094637,4.83827391 14.3378556,4.83827391 C13.9640186,4.83827391 13.4608221,4.95335321 12.8193348,5.18082146 L12.9864377,5.65207151 Z" id="Path-9" fill-rule="nonzero"></path>
                    <path d="M22.0733515,0.367708402 C18.6812415,0.367708402 15.9234285,3.12552141 15.9234285,6.51579288 C15.9234285,9.90606434 18.6812415,12.6638774 22.0733515,12.6638774 C25.463623,12.6638774 28.2232745,9.90606434 28.2232745,6.51579288 C28.2232745,3.12552141 25.463623,0.367708402 22.0733515,0.367708402 M22.0733515,13.0334243 C18.4808404,13.0334243 15.5575586,10.1101425 15.5575586,6.51579288 C15.5575586,2.92328179 18.4808404,9.76996262e-15 22.0733515,9.76996262e-15 C25.6658626,9.76996262e-15 28.5891444,2.92328179 28.5891444,6.51579288 C28.5891444,10.1101425 25.6658626,13.0334243 22.0733515,13.0334243" id="Fill-61"></path>
                </g>
            </g>
        </g>
    </g>
</svg>