<?xml version="1.0" encoding="utf-8"?>
<!-- Generator: Adobe Illustrator 24.1.0, SVG Export Plug-In . SVG Version: 6.00 Build 0)  -->
<svg version="1.1" xmlns="http://www.w3.org/2000/svg" xmlns:xlink="http://www.w3.org/1999/xlink" x="0px" y="0px"
	 viewBox="0 0 800 479.29" style="enable-background:new 0 0 800 479.29;" xml:space="preserve">
<style type="text/css">
	.st0{clip-path:url(#SVGID_2_);}
	.st1{fill:#1A1A1A;}
	.st2{clip-path:url(#SVGID_2_);fill:#1A1A1A;}
	.st3{fill:#300085;}
	.st4{font-family:'Roboto-Medium';}
	.st5{font-size:14px;}
	.st6{font-family:'Roboto-Regular';}
	.st7{font-size:12px;}
	.st8{fill:#727272;}
	.st9{font-family:'Raleway-SemiBold';}
	.st10{font-family:'Raleway-Medium';}
	.st11{fill:none;}
	.st12{font-size:11px;}
	.st13{font-family:'Raleway-SemiBoldItalic';}
	.st14{fill:none;stroke:#F4F0FA;stroke-width:4;stroke-miterlimit:10;}
	.st15{clip-path:url(#SVGID_4_);}
	.st16{clip-path:url(#SVGID_7_);}
	.st17{clip-path:url(#SVGID_18_);fill:#1A1A1A;}
	.st18{fill:#F4AA3C;}
	.st19{clip-path:url(#SVGID_20_);}
	.st20{clip-path:url(#SVGID_23_);}
	.st21{clip-path:url(#SVGID_34_);fill:#1A1A1A;}
	.st22{font-size:10px;}
	.st23{fill:none;stroke:#FDF6EB;stroke-width:4;stroke-miterlimit:10;}
	.st24{font-family:'Arial-BoldMT';}
	.st25{fill:none;stroke:#C6C6C6;stroke-linecap:round;stroke-linejoin:round;stroke-miterlimit:10;}
	.st26{clip-path:url(#SVGID_36_);}
	.st27{fill:#17A7FF;}
	.st28{fill:none;stroke:#E1F5FF;stroke-width:4;stroke-miterlimit:10;}
	.st29{fill:#FCF5EB;}
	.st30{fill:#E1F4FF;}
	.st31{fill:#F4F0FA;}
</style>
<g id="Layer_3">
</g>
<g id="Layer_1">
	<g>
		<defs>
			<circle id="SVGID_1_" cx="67.98" cy="67.98" r="27.98"/>
		</defs>
		<use xlink:href="#SVGID_1_"  style="overflow:visible;fill:#F4F0FA;"/>
		<clipPath id="SVGID_2_">
			<use xlink:href="#SVGID_1_"  style="overflow:visible;"/>
		</clipPath>
		<g class="st0">
			<g>
				<path class="st1" d="M61.83,77.58c-0.12,0-0.21-0.1-0.21-0.21v-6.92c0-0.12,0.1-0.21,0.21-0.21c0.12,0,0.21,0.1,0.21,0.21v6.92
					C62.04,77.49,61.95,77.58,61.83,77.58z"/>
				<path class="st1" d="M74.13,77.58c-0.12,0-0.21-0.1-0.21-0.21v-7.29c0-0.12,0.1-0.21,0.21-0.21s0.21,0.1,0.21,0.21v7.29
					C74.35,77.49,74.25,77.58,74.13,77.58z"/>
			</g>
			<g>
				<path class="st1" d="M90.56,94.73c-0.12,0-0.21-0.1-0.21-0.21c0-5.1-3.54-8.95-6.51-11.27c-1.47-1.15-3.15-2.04-4.99-2.64
					c-1.42-0.46-4.08-2.48-4.71-2.96c-6.23,4.69-11.24,0.93-12.26,0.05c-1.05,1.46-3.14,2.38-4.75,2.9
					c-1.84,0.6-3.52,1.49-4.99,2.64c-2.97,2.33-6.51,6.17-6.51,11.27c0,0.12-0.1,0.21-0.21,0.21c-0.12,0-0.21-0.1-0.21-0.21
					c0-5.28,3.63-9.23,6.68-11.61c1.51-1.18,3.24-2.1,5.12-2.71c1.62-0.53,3.74-1.46,4.66-2.94c0.03-0.06,0.09-0.09,0.16-0.1
					c0.06-0.01,0.13,0.02,0.18,0.06c0.01,0.01,1.34,1.32,3.47,1.96c2.85,0.86,5.73,0.19,8.55-1.98c0.08-0.06,0.19-0.06,0.26,0
					c0.03,0.02,3.2,2.5,4.71,2.99c1.89,0.62,3.61,1.53,5.12,2.71c3.05,2.38,6.68,6.33,6.68,11.61
					C90.78,94.63,90.68,94.73,90.56,94.73z"/>
				<path class="st1" d="M67.76,83.48c-1.17,0-2.38-0.19-3.61-0.63c-3.09-1.11-4.8-3.25-4.87-3.34c-0.07-0.09-0.06-0.23,0.04-0.3
					c0.09-0.07,0.23-0.06,0.3,0.04c0.27,0.35,6.83,8.4,17.4,0.07c0.09-0.07,0.23-0.06,0.3,0.04c0.07,0.09,0.06,0.23-0.04,0.3
					C74.89,81.55,71.52,83.48,67.76,83.48z"/>
				<path class="st1" d="M86.63,85.87H49.37c-0.12,0-0.21-0.1-0.21-0.21s0.1-0.21,0.21-0.21h37.26c0.12,0,0.21,0.1,0.21,0.21
					S86.75,85.87,86.63,85.87z"/>
				<path class="st1" d="M90.35,93.32H45.66c-0.12,0-0.21-0.1-0.21-0.21s0.1-0.21,0.21-0.21h44.69c0.12,0,0.21,0.1,0.21,0.21
					S90.46,93.32,90.35,93.32z"/>
				<path class="st1" d="M90.35,97.59H45.66c-0.12,0-0.21-0.1-0.21-0.21s0.1-0.21,0.21-0.21h44.69c0.12,0,0.21,0.1,0.21,0.21
					S90.46,97.59,90.35,97.59z"/>
				<path class="st1" d="M90.35,101.87H45.66c-0.12,0-0.21-0.1-0.21-0.21s0.1-0.21,0.21-0.21h44.69c0.12,0,0.21,0.1,0.21,0.21
					S90.46,101.87,90.35,101.87z"/>
				<path class="st1" d="M89.34,89.59H46.8c-0.12,0-0.21-0.1-0.21-0.21s0.1-0.21,0.21-0.21h42.53c0.12,0,0.21,0.1,0.21,0.21
					S89.45,89.59,89.34,89.59z"/>
				<path class="st1" d="M67.81,73.68c-2.17,0-4.01-0.77-5.46-2.3c-2.25-2.36-3.17-6.13-3.56-8.87c-0.41-2.96-0.3-5.41-0.3-5.43
					c-0.01-0.16-0.18-4.39,2.6-7.3c1.67-1.75,4.04-2.64,7.06-2.64c2.7,0,4.82,0.82,6.31,2.43c2.65,2.86,2.39,7.18,2.37,7.52
					c0.01,0.21,0.14,2.58-0.2,5.42c-0.33,2.75-1.19,6.52-3.4,8.88C71.8,72.91,69.98,73.68,67.81,73.68z M68.15,47.55
					c-2.89,0-5.16,0.84-6.75,2.51c-2.65,2.78-2.48,6.97-2.48,7.01c0,0.12-0.42,9.65,3.74,14.01c1.37,1.44,3.1,2.17,5.15,2.17
					c2.05,0,3.76-0.73,5.11-2.16c4.08-4.36,3.49-13.9,3.48-13.99l0-0.02l0-0.02c0-0.04,0.31-4.44-2.26-7.22
					C72.74,48.33,70.72,47.55,68.15,47.55z"/>
				<path class="st1" d="M76.84,65.41c-0.4,0-0.74-0.19-1-0.54l0.34-0.25c0.18,0.25,0.42,0.37,0.69,0.36
					c0.51-0.02,1.14-0.5,1.59-1.22c0.48-0.77,0.83-2.16,0.59-3.15c-0.09-0.39-0.27-0.66-0.52-0.81c-0.91-0.54-1.71,0.58-1.74,0.63
					l-0.35-0.24c0.36-0.52,1.3-1.35,2.31-0.75c0.35,0.21,0.59,0.57,0.72,1.07c0.27,1.1-0.12,2.63-0.64,3.48
					c-0.53,0.85-1.28,1.4-1.94,1.42C76.87,65.41,76.85,65.41,76.84,65.41z"/>
				<path class="st1" d="M76.4,62.64c-0.02,0-0.03,0-0.05-0.01c-0.05-0.03-0.08-0.09-0.05-0.14c0.91-1.89,2.24-1.47,2.25-1.47
					c0.06,0.02,0.09,0.08,0.07,0.13c-0.02,0.06-0.08,0.09-0.13,0.07c-0.05-0.01-1.16-0.36-1.99,1.36
					C76.48,62.62,76.44,62.64,76.4,62.64z"/>
				<path class="st1" d="M77.46,63.56c-0.02,0-0.05-0.01-0.07-0.02c-0.05-0.04-0.05-0.1-0.01-0.15c0.23-0.28,0.32-0.55,0.27-0.82
					c-0.1-0.51-0.69-0.83-0.69-0.83c-0.05-0.03-0.07-0.09-0.04-0.14c0.03-0.05,0.09-0.07,0.14-0.04c0.03,0.01,0.68,0.37,0.8,0.97
					c0.07,0.33-0.04,0.66-0.31,0.99C77.52,63.54,77.49,63.56,77.46,63.56z"/>
				<path class="st1" d="M58.55,65.41c-0.02,0-0.03,0-0.05,0c-0.66-0.02-1.41-0.57-1.94-1.42c-0.53-0.84-0.91-2.37-0.64-3.48
					c0.12-0.5,0.36-0.86,0.72-1.07c1-0.59,1.95,0.23,2.31,0.75l-0.35,0.24c-0.03-0.05-0.83-1.17-1.74-0.63
					c-0.25,0.15-0.42,0.42-0.52,0.81c-0.24,0.99,0.11,2.38,0.59,3.15c0.45,0.72,1.08,1.2,1.59,1.22c0.27,0.02,0.5-0.11,0.68-0.36
					l0.34,0.25C59.29,65.23,58.94,65.41,58.55,65.41z"/>
				<path class="st1" d="M58.98,62.64c-0.04,0-0.08-0.02-0.1-0.06c-0.83-1.72-1.98-1.36-1.99-1.36c-0.06,0.02-0.12-0.01-0.14-0.07
					c-0.02-0.06,0.01-0.12,0.07-0.14c0.01,0,1.34-0.42,2.25,1.47c0.03,0.05,0,0.12-0.05,0.14C59.01,62.64,59,62.64,58.98,62.64z"/>
				<path class="st1" d="M57.92,63.56c-0.03,0-0.06-0.01-0.08-0.04c-0.27-0.33-0.38-0.66-0.31-0.99c0.12-0.61,0.77-0.96,0.8-0.97
					c0.05-0.03,0.12-0.01,0.14,0.04c0.03,0.05,0.01,0.12-0.04,0.14c-0.01,0-0.59,0.32-0.69,0.83c-0.05,0.26,0.04,0.54,0.27,0.81
					c0.04,0.05,0.03,0.11-0.01,0.15C57.97,63.55,57.95,63.56,57.92,63.56z"/>
				<path class="st1" d="M68.02,64.42c-0.4,0-0.77-0.23-0.92-0.6c-0.05-0.12-0.07-0.25-0.07-0.38v-3.43c0-0.11,0.09-0.2,0.2-0.2
					c0.11,0,0.2,0.09,0.2,0.2v3.43c0,0.08,0.01,0.16,0.04,0.23c0.1,0.26,0.42,0.4,0.72,0.32l0.82-0.22
					c0.11-0.03,0.22,0.04,0.25,0.14c0.03,0.11-0.04,0.22-0.14,0.25l-0.82,0.22C68.2,64.41,68.11,64.42,68.02,64.42z"/>
			</g>
			<g>
				<path class="st1" d="M63.51,61.54c-0.03,0-0.07-0.02-0.09-0.05c-0.03-0.05-0.02-0.12,0.03-0.15l2.04-1.35
					c0.05-0.03,0.12-0.02,0.15,0.03c0.03,0.05,0.02,0.12-0.03,0.15l-2.04,1.35C63.55,61.53,63.53,61.54,63.51,61.54z"/>
				<path class="st1" d="M72.23,61.7c-0.02,0-0.04-0.01-0.06-0.02l-1.81-1.36c-0.05-0.04-0.06-0.1-0.02-0.15
					c0.04-0.05,0.1-0.06,0.15-0.02l1.81,1.36c0.05,0.04,0.06,0.1,0.02,0.15C72.29,61.68,72.26,61.7,72.23,61.7z"/>
				<path class="st1" d="M68.09,67.02c-1.68,0-3.04-0.94-3.1-0.98c-0.09-0.06-0.11-0.19-0.05-0.28c0.06-0.09,0.19-0.11,0.28-0.05
					c0.01,0.01,1.32,0.91,2.87,0.91c1.54,0,2.62-0.89,2.64-0.9c0.09-0.07,0.21-0.06,0.28,0.03c0.07,0.09,0.06,0.21-0.03,0.28
					C70.94,66.07,69.78,67.02,68.09,67.02z"/>
				<path class="st1" d="M63.25,63.02c-1.95,0-3.54-1.59-3.54-3.54c0-1.95,1.59-3.54,3.54-3.54c1.95,0,3.54,1.59,3.54,3.54
					C66.8,61.43,65.21,63.02,63.25,63.02z M63.25,56.13c-1.84,0-3.34,1.5-3.34,3.34c0,1.84,1.5,3.34,3.34,3.34
					c1.84,0,3.35-1.5,3.35-3.34C66.6,57.63,65.1,56.13,63.25,56.13z"/>
				<path class="st1" d="M71.71,63.02c-1.95,0-3.54-1.59-3.54-3.54c0-1.95,1.59-3.54,3.54-3.54c1.95,0,3.54,1.59,3.54,3.54
					C75.26,61.43,73.67,63.02,71.71,63.02z M71.71,56.13c-1.84,0-3.34,1.5-3.34,3.34c0,1.84,1.5,3.34,3.34,3.34
					c1.84,0,3.34-1.5,3.34-3.34C75.06,57.63,73.56,56.13,71.71,56.13z"/>
				<path class="st1" d="M68.27,59.57c-0.03,0-0.05-0.01-0.07-0.03c-0.68-0.68-1.4-0.03-1.43,0c-0.04,0.04-0.1,0.04-0.14-0.01
					c-0.04-0.04-0.04-0.1,0-0.14c0.01-0.01,0.9-0.82,1.71,0c0.04,0.04,0.04,0.1,0,0.14C68.32,59.57,68.3,59.57,68.27,59.57z"/>
				<path class="st1" d="M59.94,60.5c-0.02,0-0.04-0.01-0.06-0.02l-1.21-0.96c-0.04-0.03-0.05-0.1-0.02-0.14
					c0.03-0.04,0.1-0.05,0.14-0.02L60,60.33c0.04,0.03,0.05,0.1,0.02,0.14C60,60.49,59.97,60.5,59.94,60.5z"/>
				<path class="st1" d="M75.04,60.5c-0.03,0-0.06-0.01-0.08-0.04c-0.03-0.04-0.03-0.11,0.02-0.14l1.62-1.27
					c0.04-0.03,0.11-0.03,0.14,0.02c0.03,0.04,0.03,0.11-0.02,0.14l-1.62,1.27C75.08,60.5,75.06,60.5,75.04,60.5z"/>
			</g>
			<path class="st1" d="M62.01,70.61c0,0,6.27,6.62,12.13-0.82c0,0,0.95,5.57-4.65,6.65C69.49,76.45,64.48,76.94,62.01,70.61z"/>
			<circle class="st1" cx="64.02" cy="59.18" r="0.77"/>
			<circle class="st1" cx="71.65" cy="59.18" r="0.77"/>
		</g>
		<path class="st2" d="M58.64,60.08c0,0,1.92-3.4,1.15-5.32c0,0,9.59-0.77,13.04-4.6c0,0,1.92,8.06,3.84,9.59
			c0,0,2.08-5.53,1.04-9.29c-1.04-3.76-5.66-5.68-10.45-5.1s-9.09,0.61-9.82,7.31C57.45,52.67,57.11,57.34,58.64,60.08z"/>
		<path class="st2" d="M69.39,54.38l0.38,1.53h4.99c0,0-1.34-0.84-2.2-1C71.69,54.76,69.39,54.38,69.39,54.38z"/>
		<path class="st2" d="M65.93,54.38l-0.38,1.53h-4.99c0,0,1.34-0.84,2.2-1C63.63,54.76,65.93,54.38,65.93,54.38z"/>
	</g>
	<text transform="matrix(1 0 0 1 102.889 65.4896)"><tspan x="0" y="0" class="st3 st4 st5">CUSTOMER </tspan><tspan x="77.16" y="0" class="st3 st6 st7">(Web app)</tspan></text>
	<g>
		<text transform="matrix(1 0 0 1 102.8893 84.7614)" class="st8 st9 st7">Looking for mortgage</text>
	</g>
	<text transform="matrix(1 0 0 1 59.5379 174.5711)" class="st3 st10 st7">Profile Information</text>
	<text transform="matrix(1 0 0 1 59.5383 191.7114)" class="st3 st10 st7">Property details with Address</text>
	<text transform="matrix(1 0 0 1 59.538 208.8509)" class="st3 st10 st7">Mortgage Details </text>
	<rect x="40" y="118.47" class="st11" width="233.77" height="23.42"/>
	<text transform="matrix(1 0 0 1 39.9999 126.4989)"><tspan x="0" y="0" class="st9 st12">Customer gets a form to fill the following </tspan><tspan x="0" y="13.2" class="st9 st12">details.</tspan></text>
	<circle class="st3" cx="51.77" cy="170.25" r="1.77"/>
	<circle class="st3" cx="51.77" cy="187.55" r="1.77"/>
	<circle class="st3" cx="51.77" cy="204.84" r="1.77"/>
	<rect x="40" y="227.28" class="st11" width="223.87" height="15.89"/>
	<text transform="matrix(1 0 0 1 39.9999 235.3075)" class="st8 st13 st12">He uploads his W2 form.</text>
	<rect x="22.39" y="24.66" class="st14" width="257.75" height="229.32"/>
	<g>
		<defs>
			<circle id="SVGID_3_" cx="357.67" cy="67.98" r="27.98"/>
		</defs>
		<use xlink:href="#SVGID_3_"  style="overflow:visible;fill:#FCF5EB;"/>
		<clipPath id="SVGID_4_">
			<use xlink:href="#SVGID_3_"  style="overflow:visible;"/>
		</clipPath>
		<g class="st15">
			<g>
				<g>
					<defs>
						<path id="SVGID_5_" d="M377,93.17c0-7.49-8.99-11.87-8.99-11.87"/>
					</defs>
					<defs>
						<path id="SVGID_6_" d="M348.95,81.3c0,0-8.66,4.38-8.66,11.87"/>
					</defs>
					<clipPath id="SVGID_7_">
						<use xlink:href="#SVGID_5_"  style="overflow:visible;"/>
					</clipPath>
					<clipPath id="SVGID_8_" class="st16">
						<use xlink:href="#SVGID_6_"  style="overflow:visible;"/>
					</clipPath>
				</g>
				<path class="st1" d="M377,93.36c-0.11,0-0.19-0.09-0.19-0.19c0-7.28-8.79-11.65-8.88-11.69c-0.1-0.05-0.13-0.16-0.09-0.26
					c0.05-0.1,0.16-0.13,0.26-0.09c0.09,0.04,9.1,4.52,9.1,12.04C377.19,93.28,377.1,93.36,377,93.36z"/>
				<path class="st1" d="M340.29,93.36c-0.11,0-0.19-0.09-0.19-0.19c0-7.52,8.67-11.99,8.76-12.04c0.09-0.05,0.21-0.01,0.26,0.08
					c0.05,0.09,0.01,0.21-0.08,0.26c-0.09,0.04-8.55,4.41-8.55,11.7C340.48,93.28,340.4,93.36,340.29,93.36z"/>
				<g>
					<defs>
						<path id="SVGID_9_" d="M354.9,73.26v5.02c0,0-1.62,2.28-5.95,3.03c0,0,2.59,1.7,9.74,1.7c4.99,0,9.35-1.7,9.35-1.7
							s-5.54-1.15-5.94-3.03v-5"/>
					</defs>
					<clipPath id="SVGID_10_">
						<use xlink:href="#SVGID_9_"  style="overflow:visible;"/>
					</clipPath>
				</g>
				<path class="st1" d="M358.69,83.19c-7.12,0-9.74-1.66-9.85-1.73c-0.06-0.04-0.1-0.12-0.08-0.2c0.02-0.08,0.08-0.13,0.15-0.15
					c3.85-0.67,5.54-2.59,5.79-2.91v-4.95c0-0.1,0.08-0.19,0.19-0.19s0.19,0.08,0.19,0.19v5.02c0,0.04-0.01,0.08-0.04,0.11
					c-0.07,0.09-1.58,2.16-5.53,3c1.03,0.46,3.82,1.43,9.17,1.43c3.82,0,7.31-1.02,8.67-1.47c-1.5-0.37-5.11-1.43-5.45-3.03
					c0-0.01,0-0.03,0-0.04v-5c0-0.1,0.08-0.19,0.19-0.19c0.1,0,0.19,0.08,0.19,0.19v4.98c0.34,1.43,4.29,2.55,5.79,2.86
					c0.08,0.02,0.14,0.09,0.15,0.17c0.01,0.08-0.04,0.16-0.12,0.19C368.06,81.5,363.66,83.19,358.69,83.19z"/>
				<path class="st1" d="M358.52,81.74c-4.32,0-7.29-0.85-7.33-0.86l0.11-0.37c0.07,0.02,6.65,1.89,14.47,0l0.09,0.37
					C363.2,81.53,360.69,81.74,358.52,81.74z"/>
				<g>
					<defs>
						<path id="SVGID_11_" d="M366.21,60.48c0,0,0.96,13.83-7.69,13.83s-7.95-13.83-7.95-13.83s-0.42-8.22,8.25-8.22
							C366.88,52.25,366.21,60.48,366.21,60.48"/>
					</defs>
					<clipPath id="SVGID_12_">
						<use xlink:href="#SVGID_11_"  style="overflow:visible;"/>
					</clipPath>
				</g>
				<path class="st1" d="M358.52,74.49c-1.94,0-3.57-0.68-4.86-2.04c-1.91-2.01-2.7-5.17-3.03-7.46c-0.35-2.47-0.26-4.51-0.25-4.53
					c-0.01-0.13-0.16-3.62,2.19-6.09c1.46-1.54,3.56-2.32,6.25-2.32c2.4,0,4.28,0.72,5.59,2.14c2.23,2.42,2.02,5.98,1.99,6.28
					c0.01,0.19,0.12,2.15-0.17,4.52c-0.28,2.3-1.01,5.45-2.89,7.46C362.08,73.81,360.46,74.49,358.52,74.49z M358.81,52.44
					c-2.58,0-4.59,0.74-5.97,2.2c-2.23,2.35-2.09,5.79-2.09,5.83c0,0.1-0.36,8.01,3.18,11.73c1.21,1.27,2.75,1.92,4.58,1.92
					c1.83,0,3.36-0.64,4.54-1.91c3.47-3.72,2.96-11.63,2.96-11.71l0-0.01l0-0.01c0-0.04,0.27-3.66-1.9-6.01
					C362.89,53.12,361.1,52.44,358.81,52.44z"/>
				<path class="st1" d="M358.7,66.84c-0.35,0-0.68-0.2-0.81-0.53c-0.04-0.11-0.06-0.22-0.06-0.33v-1.33c0-0.1,0.08-0.18,0.18-0.18
					s0.18,0.08,0.18,0.18v1.33c0,0.07,0.01,0.14,0.04,0.2c0.09,0.22,0.36,0.35,0.62,0.28l0.39-0.1c0.1-0.03,0.2,0.03,0.22,0.13
					c0.03,0.1-0.03,0.2-0.13,0.22l-0.39,0.1C358.86,66.83,358.78,66.84,358.7,66.84z"/>
				<path class="st1" d="M354.76,65.13c-0.03,0-0.06-0.01-0.08-0.04c-0.03-0.04-0.02-0.1,0.03-0.13l1.78-1.18
					c0.04-0.03,0.1-0.02,0.13,0.03c0.03,0.04,0.02,0.1-0.03,0.13l-1.78,1.18C354.8,65.13,354.78,65.13,354.76,65.13z"/>
				<path class="st1" d="M362.37,65.13c-0.02,0-0.04-0.01-0.06-0.02l-1.58-1.19c-0.04-0.03-0.05-0.09-0.02-0.13
					c0.03-0.04,0.09-0.05,0.13-0.02l1.58,1.19c0.04,0.03,0.05,0.09,0.02,0.13C362.43,65.12,362.4,65.13,362.37,65.13z"/>
				<path class="st1" d="M358.67,68.97c-1.46,0-2.56-0.67-2.61-0.7c-0.08-0.05-0.11-0.16-0.06-0.25c0.05-0.09,0.16-0.11,0.25-0.06
					c0.01,0.01,1.06,0.65,2.41,0.65c1.36,0,2.4-0.64,2.41-0.65c0.09-0.05,0.2-0.03,0.25,0.06c0.05,0.08,0.03,0.2-0.06,0.25
					C361.23,68.29,360.13,68.97,358.67,68.97z"/>
				<g>
					<defs>
						<path id="SVGID_13_" d="M365.6,67.47c0.58,0.8,1.71,0.28,2.37-0.77c0.65-1.05,0.96-3.14,0-3.71c-0.96-0.57-1.77,0.6-1.77,0.6
							s-0.23,2.12-0.4,2.91L365.6,67.47z"/>
					</defs>
					<clipPath id="SVGID_14_">
						<use xlink:href="#SVGID_13_"  style="overflow:visible;"/>
					</clipPath>
				</g>
				<path class="st1" d="M366.34,68.05c-0.36,0-0.67-0.16-0.89-0.47l-0.05-0.07l0.21-1.05c0.17-0.78,0.4-2.87,0.4-2.89l0.01-0.05
					l0.03-0.04c0.32-0.46,1.14-1.18,2.03-0.66c0.31,0.18,0.52,0.5,0.63,0.94c0.23,0.96-0.1,2.3-0.56,3.04
					c-0.46,0.74-1.15,1.23-1.75,1.25C366.37,68.05,366.35,68.05,366.34,68.05z M365.81,67.42c0.15,0.17,0.34,0.25,0.56,0.25
					c0.47-0.02,1.05-0.45,1.44-1.07c0.42-0.67,0.73-1.88,0.52-2.74c-0.08-0.34-0.23-0.57-0.45-0.7c-0.72-0.42-1.35,0.33-1.49,0.51
					c-0.04,0.34-0.24,2.15-0.4,2.88L365.81,67.42z"/>
				<path class="st1" d="M365.94,65.63c-0.01,0-0.03,0-0.04-0.01c-0.05-0.02-0.07-0.08-0.04-0.13c0.79-1.65,2.02-1.3,2.04-1.29
					c0.05,0.02,0.08,0.07,0.06,0.12c-0.02,0.05-0.07,0.08-0.12,0.06c-0.04-0.01-1.09-0.3-1.81,1.19
					C366.01,65.61,365.98,65.63,365.94,65.63z"/>
				<path class="st1" d="M366.94,66.42c-0.02,0-0.04-0.01-0.06-0.02c-0.04-0.03-0.05-0.09-0.01-0.13c0.2-0.24,0.28-0.48,0.23-0.71
					c-0.09-0.44-0.6-0.72-0.6-0.72c-0.05-0.03-0.06-0.08-0.04-0.13c0.03-0.05,0.08-0.06,0.13-0.04c0.02,0.01,0.59,0.32,0.7,0.85
					c0.06,0.29-0.03,0.58-0.27,0.87C367,66.41,366.97,66.42,366.94,66.42z"/>
				<g>
					<defs>
						<path id="SVGID_15_" d="M351.24,67.47c-0.58,0.8-1.71,0.28-2.37-0.77c-0.65-1.05-0.96-3.14,0-3.71
							c0.96-0.57,1.77,0.6,1.77,0.6s0.23,2.12,0.4,2.91L351.24,67.47z"/>
					</defs>
					<clipPath id="SVGID_16_">
						<use xlink:href="#SVGID_15_"  style="overflow:visible;"/>
					</clipPath>
				</g>
				<path class="st1" d="M350.5,68.05c-0.01,0-0.03,0-0.04,0c-0.6-0.02-1.29-0.51-1.75-1.25c-0.46-0.74-0.8-2.08-0.56-3.04
					c0.11-0.44,0.32-0.76,0.63-0.94c0.88-0.52,1.71,0.2,2.02,0.66l0.03,0.04l0.01,0.05c0,0.02,0.23,2.12,0.4,2.89l0.21,1.05
					l-0.05,0.07C351.17,67.89,350.86,68.05,350.5,68.05z M349.41,63.02c-0.14,0-0.29,0.04-0.44,0.13c-0.22,0.13-0.37,0.36-0.45,0.7
					c-0.21,0.86,0.1,2.07,0.52,2.74c0.39,0.62,0.97,1.05,1.44,1.07c0.23,0,0.41-0.08,0.56-0.25l-0.18-0.88
					c-0.16-0.73-0.36-2.54-0.4-2.88C350.35,63.52,349.93,63.02,349.41,63.02z"/>
				<path class="st1" d="M350.9,65.63c-0.04,0-0.07-0.02-0.09-0.05c-0.72-1.5-1.77-1.2-1.81-1.19c-0.05,0.01-0.1-0.01-0.12-0.06
					c-0.02-0.05,0.01-0.1,0.06-0.12c0.01,0,1.24-0.36,2.04,1.29c0.02,0.05,0,0.11-0.04,0.13C350.93,65.63,350.91,65.63,350.9,65.63z
					"/>
				<path class="st1" d="M349.9,66.42c-0.03,0-0.05-0.01-0.07-0.03c-0.24-0.29-0.33-0.58-0.27-0.87c0.11-0.53,0.68-0.84,0.7-0.85
					c0.05-0.02,0.1-0.01,0.13,0.04c0.03,0.05,0.01,0.1-0.04,0.13c-0.01,0-0.52,0.28-0.6,0.72c-0.04,0.23,0.03,0.47,0.23,0.71
					c0.03,0.04,0.03,0.1-0.01,0.13C349.95,66.41,349.92,66.42,349.9,66.42z"/>
				<g>
					<defs>
						<path id="SVGID_17_" d="M366.2,59.82c-0.02-0.64-0.1-1.66-0.39-2.61c-0.06-0.24-0.12-0.46-0.18-0.67l0.38,0.1
							c-0.32-2.22-5.31-7.71-11.6-4.56c-6.29,3.15-3.92,11.43-3.92,11.43l0.06-0.41c0.27-0.36,1.38-1.96,1.74-4.05
							c4.36,0.72,7.69-1.74,9.4-3.43c0.23,0.85,0.91,2.64,2.75,3.93c0.56,2.36,1.74,3.82,1.74,3.82
							C366.29,62.02,366.28,60.84,366.2,59.82"/>
					</defs>
					<clipPath id="SVGID_18_">
						<use xlink:href="#SVGID_17_"  style="overflow:visible;"/>
					</clipPath>
					<rect x="348.38" y="49.47" class="st17" width="19.54" height="15.72"/>
				</g>
				<path class="st1" d="M354.54,73.08c0,0,4.22,3.09,7.97-0.18c0,0-0.68,2.61-3.56,2.81C358.95,75.71,356.58,75.87,354.54,73.08z"
					/>
				<circle class="st1" cx="355.23" cy="63" r="0.67"/>
				<circle class="st1" cx="361.82" cy="63" r="0.67"/>
				<path class="st1" d="M359.99,59.68l0.16,1.19l3.76,0.43c0,0-0.94-0.75-1.58-0.94C361.7,60.17,359.99,59.68,359.99,59.68z"/>
				<path class="st1" d="M356.81,59.86l-0.19,1.19l-3.77,0.34c0,0,0.96-0.73,1.6-0.9S356.81,59.86,356.81,59.86z"/>
			</g>
			<path class="st1" d="M375.94,71.2c-0.43-4.01-3.57-9.66-5.52-11.2c-1.94-1.54-2.06-5.46-3.75-7.1c-1.7-1.64-4.03-0.53-4.03-0.53
				c-3.06-3.5-6-2.94-6-2.94c-7.06,0.56-8.27,6.44-8.27,9.1s-0.33,2.67-3.68,6.19c-3.34,3.52-3.32,7.9-3.32,7.9
				c0.67,6.08,4.99,6.58,7.08,7.83c0.35,0.21,0.98,0.4,1.8,0.56c3.36-0.92,4.65-2.74,4.65-2.74v-5.02
				c-4.82-3.22-4.34-12.78-4.34-12.78s-0.42-8.22,8.25-8.22c8.07,0,7.4,8.22,7.4,8.22s0.12,1.8-0.12,4.1
				c0.07-0.55,0.12-0.99,0.12-0.99s0.81-1.17,1.77-0.6c0.96,0.57,0.66,2.66,0,3.71c-0.65,1.05-1.78,1.57-2.37,0.77l0.1-0.48
				c-0.53,2.43-1.58,4.93-3.6,6.29v5c0.23,1.07,2.12,1.9,3.71,2.42c0.27,0.09,0.53,0.17,0.78,0.24c0.48-0.09,0.95-0.2,1.38-0.31
				C373.89,79.05,376.36,75.2,375.94,71.2z M350.64,63.59c0,0,0.11,1.02,0.24,1.9v0c0.06,0.39,0.12,0.76,0.17,1l0.2,0.97
				c-0.59,0.8-1.71,0.28-2.37-0.77c-0.65-1.05-0.96-3.14,0-3.71C349.83,62.42,350.64,63.59,350.64,63.59z M365.97,65.5
				C365.97,65.5,365.97,65.5,365.97,65.5c-0.01,0.09-0.03,0.19-0.04,0.27c0.02-0.1,0.03-0.19,0.05-0.28
				c0.04-0.25,0.07-0.5,0.09-0.74C366.04,64.99,366,65.25,365.97,65.5z"/>
		</g>
	</g>
	<text transform="matrix(1 0 0 1 392.5841 70.008)"><tspan x="0" y="0" class="st18 st4 st5">LOAN PROCESSOR </tspan><tspan x="122.79" y="0" class="st18 st6 st7">(Web app)</tspan></text>
	<g>
		<defs>
			<circle id="SVGID_19_" cx="454.16" cy="330.34" r="27.98"/>
		</defs>
		<use xlink:href="#SVGID_19_"  style="overflow:visible;fill:#FCF5EB;"/>
		<clipPath id="SVGID_20_">
			<use xlink:href="#SVGID_19_"  style="overflow:visible;"/>
		</clipPath>
		<g class="st19">
			<g>
				<g>
					<defs>
						<path id="SVGID_21_" d="M473.48,355.54c0-7.49-8.99-11.87-8.99-11.87"/>
					</defs>
					<defs>
						<path id="SVGID_22_" d="M445.44,343.67c0,0-8.66,4.38-8.66,11.87"/>
					</defs>
					<clipPath id="SVGID_23_">
						<use xlink:href="#SVGID_21_"  style="overflow:visible;"/>
					</clipPath>
					<clipPath id="SVGID_24_" class="st20">
						<use xlink:href="#SVGID_22_"  style="overflow:visible;"/>
					</clipPath>
				</g>
				<path class="st1" d="M473.48,355.73c-0.11,0-0.19-0.09-0.19-0.19c0-7.28-8.79-11.65-8.88-11.69c-0.1-0.05-0.13-0.16-0.09-0.26
					c0.05-0.1,0.16-0.13,0.26-0.09c0.09,0.04,9.1,4.52,9.1,12.04C473.68,355.64,473.59,355.73,473.48,355.73z"/>
				<path class="st1" d="M436.78,355.73c-0.11,0-0.19-0.09-0.19-0.19c0-7.52,8.67-11.99,8.76-12.04c0.09-0.05,0.21-0.01,0.26,0.08
					c0.05,0.09,0.01,0.21-0.08,0.26c-0.09,0.04-8.55,4.41-8.55,11.7C436.97,355.64,436.89,355.73,436.78,355.73z"/>
				<g>
					<defs>
						<path id="SVGID_25_" d="M451.39,335.63v5.02c0,0-1.62,2.28-5.95,3.03c0,0,2.59,1.7,9.74,1.7c4.99,0,9.35-1.7,9.35-1.7
							s-5.54-1.15-5.94-3.03v-5"/>
					</defs>
					<clipPath id="SVGID_26_">
						<use xlink:href="#SVGID_25_"  style="overflow:visible;"/>
					</clipPath>
				</g>
				<path class="st1" d="M455.18,345.56c-7.12,0-9.74-1.66-9.85-1.73c-0.06-0.04-0.1-0.12-0.08-0.2c0.02-0.08,0.08-0.13,0.15-0.15
					c3.85-0.67,5.54-2.59,5.79-2.91v-4.95c0-0.1,0.08-0.19,0.19-0.19c0.1,0,0.19,0.08,0.19,0.19v5.02c0,0.04-0.01,0.08-0.04,0.11
					c-0.07,0.09-1.58,2.16-5.53,3c1.03,0.46,3.82,1.43,9.17,1.43c3.82,0,7.31-1.02,8.67-1.47c-1.5-0.37-5.11-1.43-5.45-3.03
					c0-0.01,0-0.03,0-0.04v-5c0-0.1,0.08-0.19,0.19-0.19s0.19,0.08,0.19,0.19v4.98c0.34,1.43,4.29,2.55,5.79,2.86
					c0.08,0.02,0.14,0.09,0.15,0.17c0.01,0.08-0.04,0.16-0.12,0.19C464.55,343.86,460.15,345.56,455.18,345.56z"/>
				<path class="st1" d="M455.01,344.11c-4.32,0-7.29-0.85-7.33-0.86l0.11-0.37c0.07,0.02,6.65,1.89,14.47,0l0.09,0.37
					C459.69,343.89,457.18,344.11,455.01,344.11z"/>
				<g>
					<defs>
						<path id="SVGID_27_" d="M462.69,322.84c0,0,0.96,13.83-7.69,13.83c-8.65,0-7.95-13.83-7.95-13.83s-0.42-8.22,8.25-8.22
							C463.36,314.62,462.69,322.84,462.69,322.84"/>
					</defs>
					<clipPath id="SVGID_28_">
						<use xlink:href="#SVGID_27_"  style="overflow:visible;"/>
					</clipPath>
				</g>
				<path class="st1" d="M455.01,336.86c-1.94,0-3.57-0.68-4.86-2.04c-1.91-2.01-2.7-5.17-3.03-7.46c-0.35-2.47-0.26-4.51-0.25-4.53
					c-0.01-0.13-0.16-3.62,2.19-6.09c1.46-1.54,3.56-2.32,6.25-2.32c2.4,0,4.28,0.72,5.59,2.14c2.23,2.42,2.02,5.98,1.99,6.28
					c0.01,0.19,0.12,2.15-0.17,4.52c-0.28,2.3-1.01,5.45-2.89,7.46C458.57,336.17,456.95,336.86,455.01,336.86z M455.3,314.81
					c-2.58,0-4.59,0.74-5.97,2.2c-2.23,2.35-2.09,5.79-2.09,5.83c0,0.1-0.36,8.01,3.18,11.73c1.21,1.27,2.75,1.92,4.58,1.92
					c1.83,0,3.36-0.64,4.54-1.91c3.47-3.72,2.96-11.63,2.96-11.71l0-0.01l0-0.01c0-0.04,0.27-3.66-1.9-6.01
					C459.38,315.48,457.59,314.81,455.3,314.81z"/>
				<path class="st1" d="M455.19,329.21c-0.35,0-0.68-0.2-0.81-0.53c-0.04-0.11-0.06-0.22-0.06-0.33v-1.33
					c0-0.1,0.08-0.18,0.18-0.18s0.18,0.08,0.18,0.18v1.33c0,0.07,0.01,0.14,0.04,0.2c0.09,0.22,0.36,0.35,0.62,0.28l0.39-0.1
					c0.1-0.03,0.2,0.03,0.22,0.13c0.03,0.1-0.03,0.2-0.13,0.22l-0.39,0.1C455.35,329.2,455.27,329.21,455.19,329.21z"/>
				<path class="st1" d="M451.25,327.5c-0.03,0-0.06-0.01-0.08-0.04c-0.03-0.04-0.02-0.1,0.03-0.13l1.78-1.18
					c0.04-0.03,0.1-0.02,0.13,0.03c0.03,0.04,0.02,0.1-0.03,0.13l-1.78,1.18C451.29,327.49,451.27,327.5,451.25,327.5z"/>
				<path class="st1" d="M458.86,327.5c-0.02,0-0.04-0.01-0.06-0.02l-1.58-1.19c-0.04-0.03-0.05-0.09-0.02-0.13
					c0.03-0.04,0.09-0.05,0.13-0.02l1.58,1.19c0.04,0.03,0.05,0.09,0.02,0.13C458.92,327.48,458.89,327.5,458.86,327.5z"/>
				<path class="st1" d="M455.15,331.33c-1.46,0-2.56-0.67-2.61-0.7c-0.08-0.05-0.11-0.16-0.06-0.25c0.05-0.09,0.16-0.11,0.25-0.06
					c0.01,0.01,1.06,0.65,2.41,0.65c1.36,0,2.4-0.64,2.41-0.65c0.09-0.05,0.2-0.03,0.25,0.06c0.05,0.08,0.03,0.2-0.06,0.25
					C457.71,330.66,456.62,331.33,455.15,331.33z"/>
				<g>
					<defs>
						<path id="SVGID_29_" d="M462.09,329.83c0.58,0.8,1.71,0.28,2.37-0.77c0.65-1.05,0.96-3.14,0-3.71
							c-0.96-0.57-1.77,0.6-1.77,0.6s-0.23,2.12-0.4,2.91L462.09,329.83z"/>
					</defs>
					<clipPath id="SVGID_30_">
						<use xlink:href="#SVGID_29_"  style="overflow:visible;"/>
					</clipPath>
				</g>
				<path class="st1" d="M462.83,330.41c-0.36,0-0.67-0.16-0.89-0.47l-0.05-0.07l0.21-1.05c0.17-0.78,0.4-2.87,0.4-2.89l0.01-0.05
					l0.03-0.04c0.32-0.46,1.14-1.18,2.03-0.66c0.31,0.18,0.52,0.5,0.63,0.94c0.23,0.96-0.1,2.3-0.56,3.04
					c-0.46,0.74-1.15,1.23-1.75,1.25C462.86,330.41,462.84,330.41,462.83,330.41z M462.3,329.78c0.15,0.17,0.34,0.25,0.56,0.25
					c0.47-0.02,1.05-0.45,1.44-1.07c0.42-0.67,0.73-1.88,0.52-2.74c-0.08-0.34-0.23-0.57-0.45-0.7c-0.72-0.42-1.35,0.33-1.49,0.51
					c-0.04,0.34-0.24,2.15-0.4,2.88L462.3,329.78z"/>
				<path class="st1" d="M462.43,328c-0.01,0-0.03,0-0.04-0.01c-0.05-0.02-0.07-0.08-0.04-0.13c0.79-1.65,2.02-1.3,2.04-1.29
					c0.05,0.02,0.08,0.07,0.06,0.12c-0.02,0.05-0.07,0.08-0.12,0.06c-0.04-0.01-1.09-0.3-1.81,1.19
					C462.5,327.98,462.47,328,462.43,328z"/>
				<path class="st1" d="M463.43,328.79c-0.02,0-0.04-0.01-0.06-0.02c-0.04-0.03-0.05-0.09-0.01-0.13c0.2-0.24,0.28-0.48,0.23-0.71
					c-0.09-0.44-0.6-0.72-0.6-0.72c-0.05-0.03-0.06-0.08-0.04-0.13c0.03-0.05,0.08-0.06,0.13-0.04c0.02,0.01,0.59,0.32,0.7,0.85
					c0.06,0.29-0.03,0.58-0.27,0.87C463.48,328.77,463.46,328.79,463.43,328.79z"/>
				<g>
					<defs>
						<path id="SVGID_31_" d="M447.73,329.83c-0.58,0.8-1.71,0.28-2.37-0.77c-0.65-1.05-0.96-3.14,0-3.71
							c0.96-0.57,1.77,0.6,1.77,0.6s0.23,2.12,0.4,2.91L447.73,329.83z"/>
					</defs>
					<clipPath id="SVGID_32_">
						<use xlink:href="#SVGID_31_"  style="overflow:visible;"/>
					</clipPath>
				</g>
				<path class="st1" d="M446.99,330.41c-0.01,0-0.03,0-0.04,0c-0.6-0.02-1.29-0.51-1.75-1.25c-0.46-0.74-0.8-2.08-0.56-3.04
					c0.11-0.44,0.32-0.76,0.63-0.94c0.88-0.52,1.71,0.2,2.02,0.66l0.03,0.04l0.01,0.05c0,0.02,0.23,2.12,0.4,2.89l0.21,1.05
					l-0.05,0.07C447.66,330.25,447.35,330.41,446.99,330.41z M445.9,325.39c-0.14,0-0.29,0.04-0.44,0.13
					c-0.22,0.13-0.37,0.36-0.45,0.7c-0.21,0.86,0.1,2.07,0.52,2.74c0.39,0.62,0.97,1.05,1.44,1.07c0.23,0,0.41-0.08,0.56-0.25
					l-0.18-0.88c-0.16-0.73-0.36-2.54-0.4-2.88C446.84,325.88,446.42,325.39,445.9,325.39z"/>
				<path class="st1" d="M447.39,328c-0.04,0-0.07-0.02-0.09-0.05c-0.72-1.5-1.77-1.2-1.81-1.19c-0.05,0.01-0.1-0.01-0.12-0.06
					c-0.02-0.05,0.01-0.1,0.06-0.12c0.01,0,1.24-0.36,2.04,1.29c0.02,0.05,0,0.11-0.04,0.13C447.42,327.99,447.4,328,447.39,328z"/>
				<path class="st1" d="M446.39,328.79c-0.03,0-0.06-0.01-0.07-0.03c-0.24-0.29-0.33-0.58-0.27-0.87c0.11-0.53,0.68-0.84,0.7-0.85
					c0.05-0.02,0.1-0.01,0.13,0.04c0.03,0.05,0.01,0.1-0.04,0.13c-0.01,0-0.52,0.28-0.6,0.72c-0.04,0.23,0.03,0.47,0.23,0.71
					c0.03,0.04,0.03,0.1-0.01,0.13C446.43,328.78,446.41,328.79,446.39,328.79z"/>
				<g>
					<defs>
						<path id="SVGID_33_" d="M462.69,322.18c-0.02-0.64-0.1-1.66-0.39-2.61c-0.06-0.24-0.12-0.46-0.18-0.67l0.38,0.1
							c-0.32-2.22-5.31-7.71-11.6-4.56c-6.29,3.15-3.92,11.43-3.92,11.43l0.06-0.41c0.27-0.36,1.38-1.96,1.74-4.05
							c4.36,0.72,7.69-1.74,9.4-3.43c0.23,0.85,0.91,2.64,2.75,3.93c0.56,2.36,1.74,3.82,1.74,3.82
							C462.77,324.38,462.77,323.2,462.69,322.18"/>
					</defs>
					<clipPath id="SVGID_34_">
						<use xlink:href="#SVGID_33_"  style="overflow:visible;"/>
					</clipPath>
					<rect x="444.87" y="311.83" class="st21" width="19.54" height="15.72"/>
				</g>
				<path class="st1" d="M451.03,335.45c0,0,4.22,3.09,7.97-0.18c0,0-0.68,2.61-3.56,2.81
					C455.43,338.07,453.07,338.23,451.03,335.45z"/>
				<circle class="st1" cx="451.71" cy="325.37" r="0.67"/>
				<circle class="st1" cx="458.31" cy="325.37" r="0.67"/>
				<path class="st1" d="M456.48,322.05l0.16,1.19l3.76,0.43c0,0-0.94-0.75-1.58-0.94C458.19,322.54,456.48,322.05,456.48,322.05z"
					/>
				<path class="st1" d="M453.3,322.23l-0.19,1.19l-3.77,0.34c0,0,0.96-0.73,1.6-0.9C451.59,322.67,453.3,322.23,453.3,322.23z"/>
			</g>
			<path class="st1" d="M472.42,333.56c-0.43-4.01-3.57-9.66-5.52-11.2c-1.94-1.54-2.06-5.46-3.75-7.1
				c-1.7-1.64-4.03-0.53-4.03-0.53c-3.06-3.5-6-2.94-6-2.94c-7.06,0.56-8.27,6.44-8.27,9.1s-0.33,2.67-3.68,6.19
				c-3.34,3.52-3.32,7.9-3.32,7.9c0.67,6.08,4.99,6.58,7.08,7.83c0.35,0.21,0.98,0.4,1.8,0.56c3.36-0.92,4.65-2.74,4.65-2.74v-5.02
				c-4.82-3.22-4.34-12.78-4.34-12.78s-0.42-8.22,8.25-8.22c8.07,0,7.4,8.22,7.4,8.22s0.12,1.8-0.12,4.1
				c0.07-0.55,0.12-0.99,0.12-0.99s0.81-1.17,1.77-0.6c0.96,0.57,0.66,2.66,0,3.71c-0.65,1.05-1.78,1.57-2.37,0.77l0.1-0.48
				c-0.53,2.43-1.58,4.93-3.6,6.29v5c0.23,1.07,2.12,1.9,3.71,2.42c0.27,0.09,0.53,0.17,0.78,0.24c0.48-0.09,0.95-0.2,1.38-0.31
				C470.38,341.41,472.85,337.57,472.42,333.56z M447.13,325.95c0,0,0.11,1.02,0.24,1.9v0c0.06,0.39,0.12,0.76,0.17,1l0.2,0.97
				c-0.59,0.8-1.71,0.28-2.37-0.77c-0.65-1.05-0.96-3.14,0-3.71C446.32,324.78,447.13,325.95,447.13,325.95z M462.45,327.86
				C462.45,327.86,462.45,327.86,462.45,327.86c-0.01,0.09-0.03,0.19-0.04,0.27c0.02-0.1,0.03-0.19,0.05-0.28
				c0.04-0.25,0.07-0.5,0.09-0.74C462.52,327.36,462.49,327.61,462.45,327.86z"/>
		</g>
	</g>
	<text transform="matrix(1 0 0 1 489.0717 332.3735)"><tspan x="0" y="0" class="st18 st4 st5">LOAN PROCESSOR </tspan><tspan x="122.79" y="0" class="st18 st6 st7">(Web app)</tspan></text>
	<rect x="360.05" y="116.37" class="st11" width="100.72" height="49.5"/>
	<text transform="matrix(1 0 0 1 360.0527 123.6686)"><tspan x="0" y="0" class="st9 st22">Loan Application can </tspan><tspan x="0" y="12" class="st9 st22">be accessed via </tspan><tspan x="0" y="24" class="st9 st22">Web app.</tspan></text>
	<rect x="509.25" y="116.37" class="st11" width="109.05" height="24.75"/>
	<text transform="matrix(1 0 0 1 509.2464 123.6686)"><tspan x="0" y="0" class="st9 st22">Loan Processor fills </tspan><tspan x="0" y="12" class="st9 st22">the W2 section.</tspan></text>
	<rect x="655.4" y="116.37" class="st11" width="76.55" height="44.47"/>
	<text transform="matrix(1 0 0 1 655.3966 123.6686)"><tspan x="0" y="0" class="st9 st22">On submission, </tspan><tspan x="0" y="12" class="st9 st22">the Camunda </tspan><tspan x="0" y="24" class="st9 st22">workflow gets </tspan><tspan x="0" y="36" class="st9 st22">invoked.</tspan></text>
	<circle class="st18" cx="321.46" cy="181.25" r="1.77"/>
	<circle class="st18" cx="321.46" cy="198.55" r="1.77"/>
	<circle class="st18" cx="321.46" cy="215.84" r="1.77"/>
	<rect x="312.09" y="24.66" class="st23" width="438.07" height="229.32"/>
	<rect x="329.23" y="176.6" class="st11" width="407.19" height="13.05"/>
	<text transform="matrix(1 0 0 1 329.2334 185.3621)"><tspan x="0" y="0" class="st18 st10 st7">Loan </tspan><tspan x="31.28" y="0" class="st18 st24 st7">&lt; 30</tspan><tspan x="55.21" y="0" class="st18 st10 st7"> times the wage - </tspan><tspan x="156.73" y="0" class="st8 st10 st12">Gets approved automatically by the BPM </tspan></text>
	<g>
		<rect x="102.89" y="345.27" class="st11" width="186.18" height="13.05"/>
		<text transform="matrix(1 0 0 1 102.8891 354.0292)" class="st8 st9 st7">Incase of Site Visit</text>
	</g>
	<rect x="329.23" y="193.79" class="st11" width="402.71" height="13.05"/>
	<text transform="matrix(1 0 0 1 329.2334 202.55)"><tspan x="0" y="0" class="st18 st10 st7">Loan </tspan><tspan x="31.28" y="0" class="st18 st24 st7">&gt; 30 &amp;&lt; 60</tspan><tspan x="91.26" y="0" class="st18 st10 st7"> times the wage - </tspan><tspan x="192.78" y="0" class="st8 st10 st12">Status Changes to “Site Visit” request</tspan></text>
	<rect x="329.23" y="211.08" class="st11" width="406.16" height="13.05"/>
	<text transform="matrix(1 0 0 1 329.2334 219.8425)"><tspan x="0" y="0" class="st18 st10 st7">Loan </tspan><tspan x="31.28" y="0" class="st18 st24 st7">&gt; 60</tspan><tspan x="55.21" y="0" class="st18 st10 st7"> times the wage - </tspan><tspan x="156.73" y="0" class="st8 st10 st12">Gets rejected automatically by the BPM engine</tspan></text>
	<line class="st25" x1="284.67" y1="148.49" x2="306.7" y2="148.49"/>
	<polyline class="st25" points="305.16,145.95 307.46,148.52 305.16,151.02 	"/>
	<line class="st25" x1="377.21" y1="362.69" x2="399.24" y2="362.69"/>
	<polyline class="st25" points="397.7,360.15 400,362.72 397.7,365.22 	"/>
	<g>
		<defs>
			<circle id="SVGID_35_" cx="67.98" cy="330.34" r="27.98"/>
		</defs>
		<use xlink:href="#SVGID_35_"  style="overflow:visible;fill:#E0F5FF;"/>
		<clipPath id="SVGID_36_">
			<use xlink:href="#SVGID_35_"  style="overflow:visible;"/>
		</clipPath>
		<g class="st26">
			<g>
				<defs>
					<path id="SVGID_37_" d="M73.81,332.29c0.56,0.76,1.63,0.26,2.25-0.73c0.62-0.99,0.91-2.98,0-3.52
						c-0.91-0.54-1.68,0.57-1.68,0.57s-0.22,2.01-0.38,2.76L73.81,332.29z"/>
				</defs>
				<clipPath id="SVGID_38_">
					<use xlink:href="#SVGID_37_"  style="overflow:visible;"/>
				</clipPath>
			</g>
			<path class="st1" d="M74.51,332.84c-0.34,0-0.63-0.15-0.85-0.45l-0.05-0.06l0.2-1c0.16-0.74,0.38-2.73,0.38-2.75l0.01-0.05
				l0.03-0.04c0.3-0.43,1.09-1.12,1.92-0.62c0.29,0.17,0.49,0.47,0.6,0.89c0.22,0.91-0.1,2.18-0.53,2.88
				c-0.44,0.7-1.09,1.17-1.66,1.19C74.53,332.84,74.52,332.84,74.51,332.84z M74,332.25c0.14,0.16,0.33,0.24,0.53,0.24
				c0.45-0.02,1-0.42,1.37-1.02c0.4-0.64,0.69-1.78,0.49-2.61c-0.08-0.32-0.22-0.54-0.43-0.66c-0.68-0.4-1.28,0.31-1.41,0.48
				c-0.04,0.32-0.23,2.04-0.38,2.73L74,332.25z"/>
			<path class="st1" d="M74.13,330.55c-0.01,0-0.03,0-0.04-0.01c-0.05-0.02-0.06-0.08-0.04-0.12c0.75-1.56,1.92-1.23,1.93-1.23
				c0.05,0.01,0.07,0.07,0.06,0.11c-0.01,0.05-0.07,0.07-0.11,0.06c-0.04-0.01-1.03-0.29-1.72,1.13
				C74.2,330.53,74.17,330.55,74.13,330.55z"/>
			<path class="st1" d="M75.08,331.3c-0.02,0-0.04-0.01-0.06-0.02c-0.04-0.03-0.04-0.09-0.01-0.13c0.19-0.23,0.26-0.46,0.22-0.67
				c-0.08-0.42-0.57-0.68-0.57-0.69c-0.04-0.02-0.06-0.08-0.04-0.12s0.08-0.06,0.12-0.04c0.02,0.01,0.56,0.31,0.66,0.81
				c0.05,0.27-0.03,0.55-0.26,0.82C75.13,331.29,75.1,331.3,75.08,331.3z"/>
			<g>
				<g>
					<defs>
						<path id="SVGID_39_" d="M74.38,325.66c0,0,0.91,13.13-7.3,13.13s-7.55-13.13-7.55-13.13s-0.4-7.81,7.83-7.81
							C75.02,317.85,74.38,325.66,74.38,325.66"/>
					</defs>
					<clipPath id="SVGID_40_">
						<use xlink:href="#SVGID_39_"  style="overflow:visible;"/>
					</clipPath>
				</g>
				<path class="st1" d="M67.08,338.96c-1.84,0-3.39-0.65-4.61-1.93c-1.81-1.91-2.57-4.9-2.87-7.08c-0.33-2.35-0.24-4.28-0.24-4.3
					c-0.01-0.12-0.15-3.44,2.08-5.78c1.39-1.46,3.38-2.2,5.93-2.2c2.28,0,4.06,0.68,5.31,2.03c2.12,2.29,1.91,5.68,1.89,5.96
					c0.01,0.18,0.12,2.04-0.16,4.29c-0.27,2.18-0.96,5.18-2.74,7.09C70.46,338.31,68.92,338.96,67.08,338.96z M67.36,318.03
					c-2.45,0-4.35,0.7-5.67,2.09c-2.12,2.23-1.98,5.5-1.98,5.53c0,0.09-0.34,7.61,3.02,11.14c1.15,1.21,2.61,1.82,4.35,1.82
					c1.74,0,3.19-0.61,4.31-1.82c3.29-3.53,2.81-11.04,2.81-11.12l0-0.01l0-0.01c0-0.03,0.25-3.48-1.8-5.7
					C71.23,318.67,69.54,318.03,67.36,318.03z"/>
				<path class="st1" d="M67.25,331.91c-0.33,0-0.64-0.19-0.77-0.5c-0.04-0.1-0.06-0.21-0.06-0.31v-1.26c0-0.1,0.08-0.17,0.17-0.17
					s0.17,0.08,0.17,0.17v1.26c0,0.06,0.01,0.13,0.04,0.19c0.09,0.21,0.34,0.33,0.59,0.26l0.37-0.1c0.09-0.02,0.19,0.03,0.21,0.12
					c0.02,0.09-0.03,0.19-0.12,0.21l-0.37,0.1C67.41,331.9,67.33,331.91,67.25,331.91z"/>
				<path class="st1" d="M63.52,330.28c-0.03,0-0.06-0.01-0.08-0.04c-0.03-0.04-0.02-0.1,0.03-0.13l1.69-1.12
					c0.04-0.03,0.1-0.02,0.13,0.03c0.03,0.04,0.02,0.1-0.03,0.13l-1.69,1.12C63.55,330.28,63.53,330.28,63.52,330.28z"/>
				<path class="st1" d="M70.74,330.28c-0.02,0-0.04-0.01-0.05-0.02l-1.5-1.13c-0.04-0.03-0.05-0.09-0.02-0.13
					c0.03-0.04,0.09-0.05,0.13-0.02l1.5,1.13c0.04,0.03,0.05,0.09,0.02,0.13C70.8,330.27,70.77,330.28,70.74,330.28z"/>
				<path class="st1" d="M67.09,333.81c-0.92,0-1.61-0.43-1.64-0.44c-0.08-0.05-0.11-0.16-0.05-0.24c0.05-0.08,0.16-0.11,0.24-0.06
					c0.01,0,0.64,0.39,1.46,0.39c0.82,0,1.45-0.39,1.46-0.39c0.08-0.05,0.19-0.03,0.24,0.06c0.05,0.08,0.03,0.19-0.05,0.24
					C68.71,333.39,68.01,333.81,67.09,333.81z"/>
				<path class="st1" d="M59.4,332.84c-0.01,0-0.03,0-0.04,0c-0.55-0.02-1.17-0.47-1.61-1.18c-0.44-0.7-0.76-1.97-0.53-2.89
					c0.1-0.42,0.3-0.72,0.6-0.89c0.84-0.49,1.62,0.19,1.92,0.62c0.06,0.08,0.04,0.2-0.05,0.25c-0.08,0.06-0.2,0.04-0.25-0.05
					c-0.03-0.04-0.69-0.96-1.44-0.52c-0.21,0.12-0.35,0.34-0.43,0.66c-0.2,0.82,0.09,1.97,0.49,2.61c0.37,0.6,0.89,0.99,1.32,1.01
					c0.23,0.01,0.41-0.09,0.56-0.3c0.06-0.08,0.17-0.1,0.25-0.04c0.08,0.06,0.1,0.17,0.04,0.25
					C60.02,332.68,59.74,332.84,59.4,332.84z"/>
				<path class="st1" d="M59.76,330.54c-0.03,0-0.07-0.02-0.08-0.05c-0.68-1.42-1.61-1.14-1.65-1.12c-0.05,0.01-0.1-0.01-0.11-0.06
					c-0.02-0.05,0.01-0.1,0.06-0.11c0.01,0,1.11-0.35,1.87,1.22c0.02,0.05,0,0.1-0.04,0.12C59.79,330.54,59.78,330.54,59.76,330.54z
					"/>
				<path class="st1" d="M58.89,331.3c-0.03,0-0.05-0.01-0.07-0.03c-0.22-0.27-0.31-0.55-0.26-0.82c0.1-0.5,0.64-0.8,0.66-0.81
					c0.04-0.02,0.1-0.01,0.12,0.04c0.02,0.04,0.01,0.1-0.04,0.12c0,0-0.49,0.27-0.57,0.69c-0.04,0.22,0.03,0.44,0.22,0.67
					c0.03,0.04,0.03,0.1-0.01,0.13C58.93,331.29,58.91,331.3,58.89,331.3z"/>
				<path class="st1" d="M76.31,345.71c-0.01,0-0.03,0-0.04,0c-0.23-0.05-5.56-1.25-5.96-3.12c0-0.01,0-0.03,0-0.04v-4.75
					c0-0.1,0.08-0.18,0.18-0.18s0.18,0.08,0.18,0.18v4.73c0.32,1.36,4.21,2.5,5.68,2.82c0.1,0.02,0.16,0.12,0.14,0.22
					C76.46,345.66,76.39,345.71,76.31,345.71z"/>
				<path class="st1" d="M58.04,345.7c-0.09,0-0.16-0.06-0.18-0.15c-0.02-0.1,0.05-0.19,0.15-0.21c3.66-0.63,5.22-2.54,5.45-2.84
					v-4.7c0-0.1,0.08-0.18,0.18-0.18s0.18,0.08,0.18,0.18v4.76c0,0.04-0.01,0.07-0.03,0.1c-0.06,0.09-1.59,2.33-5.72,3.04
					C58.07,345.7,58.06,345.7,58.04,345.7z"/>
				<path class="st1" d="M84.62,356.87c-0.1,0-0.18-0.08-0.18-0.18c0-5.93-5.85-9.79-7.64-10.84c-0.23-0.13-0.51-0.13-0.73,0.01
					c-2.13,1.33-9.71,5.27-17.93-0.12c-0.1-0.07-0.23-0.07-0.33-0.01c-1.31,0.73-7.86,4.7-7.86,10.96c0,0.1-0.08,0.18-0.18,0.18
					s-0.18-0.08-0.18-0.18c0-6.46,6.7-10.53,8.04-11.28c0.22-0.12,0.49-0.11,0.7,0.03c8.03,5.27,15.45,1.42,17.53,0.11
					c0.33-0.21,0.76-0.22,1.1-0.01c1.83,1.07,7.82,5.02,7.82,11.15C84.81,356.79,84.72,356.87,84.62,356.87z"/>
				<path class="st1" d="M67.01,346.52c-3.96,0-6.55-1.47-6.59-1.49c-0.09-0.05-0.12-0.16-0.07-0.25c0.05-0.09,0.16-0.12,0.25-0.07
					c0.06,0.03,5.75,3.26,13.14-0.03c0.09-0.04,0.2,0,0.24,0.09c0.04,0.09,0,0.2-0.09,0.24C71.35,346.15,69.01,346.52,67.01,346.52z
					"/>
				<path class="st1" d="M63.32,337.55c0,0,4.01,2.94,7.57-0.17c0,0-0.65,2.48-3.38,2.67C67.5,340.05,65.26,340.2,63.32,337.55z"/>
				<circle class="st1" cx="63.97" cy="328.26" r="0.63"/>
				<circle class="st1" cx="70.24" cy="328.26" r="0.63"/>
				<path class="st1" d="M68.34,325.58l0.28,1.11h3.6c0,0-0.97-0.61-1.59-0.72C70,325.86,68.34,325.58,68.34,325.58z"/>
				<path class="st1" d="M65.45,325.7l-0.28,1.11h-3.6c0,0,0.97-0.61,1.59-0.72C63.79,325.98,65.45,325.7,65.45,325.7z"/>
			</g>
			<path class="st1" d="M59.44,328.25c0,0,1.27-1.58,1.58-3.48h11.71c0,0,0.63,3.16,1.9,3.8c0,0,1.32-7.04-1.24-9.22
				c-2.56-2.17-3.54-3.26-8.27-2.88C65.12,316.47,56.91,317.81,59.44,328.25z"/>
			<circle class="st1" cx="71.15" cy="315.28" r="4.43"/>
		</g>
	</g>
	<text transform="matrix(1 0 0 1 102.889 337.6792)"><tspan x="0" y="0" class="st27 st4 st5">relationship manager</tspan><tspan x="165.74" y="0" class="st27 st4 st7"> </tspan><tspan x="168.73" y="0" class="st27 st6 st7">(Mobile App)</tspan></text>
	<rect x="22.39" y="287.02" class="st28" width="348" height="161.32"/>
	<rect x="406.18" y="287.02" class="st23" width="348" height="161.32"/>
	<circle class="st29" cx="341.46" cy="129.96" r="13.59"/>
	<polyline class="st25" points="547.73,253.97 547.73,269.92 135.52,269.92 135.52,283.91 	"/>
	<polyline class="st25" points="138.05,282.13 135.48,284.43 132.99,282.13 	"/>
	<circle class="st29" cx="490.66" cy="129.96" r="13.59"/>
	<circle class="st29" cx="637.05" cy="129.96" r="13.59"/>
	<g>
		<path class="st18" d="M494.02,125.59h2.7c0.13,0,0.19-0.15,0.1-0.25l-2.7-2.7c-0.09-0.09-0.25-0.03-0.25,0.1v2.7
			C493.88,125.52,493.94,125.59,494.02,125.59z"/>
		<path class="st18" d="M493.19,126.97c-0.38,0-0.69-0.31-0.69-0.69v-3.68H486c-0.86,0-1.55,0.7-1.55,1.55v11.62
			c0,0.86,0.7,1.55,1.55,1.55h9.32c0.86,0,1.55-0.7,1.55-1.55v-8.8H493.19z M492.5,130.65h-1.15v1.15c0,0.38-0.31,0.69-0.69,0.69
			c-0.38,0-0.69-0.31-0.69-0.69v-1.15h-1.15c-0.38,0-0.69-0.31-0.69-0.69s0.31-0.69,0.69-0.69h1.15v-1.15
			c0-0.38,0.31-0.69,0.69-0.69c0.38,0,0.69,0.31,0.69,0.69v1.15h1.15c0.38,0,0.69,0.31,0.69,0.69S492.88,130.65,492.5,130.65z"/>
	</g>
	<g>
		<g>
			<path class="st18" d="M638.17,133.68c-0.1-0.01-0.19-0.01-0.29-0.02c-0.17-0.1-0.38,0.01-0.55-0.09l-0.05-0.02l-0.05,0.01
				c-0.23-0.14-0.18-0.44-0.32-0.63c-0.07-0.14-0.14-0.28-0.2-0.42c-0.09-0.14-0.09-0.28-0.01-0.42c0.02-0.03,0.04-0.06,0.06-0.09
				c0.54-0.79,0.5-0.93-0.29-1.51c-0.31-0.23-0.45,0.04-0.61,0.18c-0.23,0.19-0.41,0.53-0.77,0.26c-0.39-0.28-1.15-0.09-1.08-0.96
				c0.05-0.6-0.13-0.67-0.86-0.61c-0.24,0.09-0.63-0.04-0.63,0.42c0,0.06-0.01,0.11-0.01,0.17c-0.11,0.17,0.05,0.4-0.12,0.56
				c-0.32,0.31-0.85,0.18-1.14,0.56c-0.17,0.08-0.28-0.06-0.42-0.12c-0.43-0.2-0.55-0.52-0.54-0.99c0.03-1.67,0.01-3.35,0.02-5.02
				c0-0.25-0.07-0.52,0.1-0.75c0.09-0.11,0.19-0.23,0.33-0.28l-0.01,0.01c0.18-0.11,0.37-0.17,0.59-0.17c2.11,0,4.22,0,6.33,0.01
				c0.14,0,0.42-0.1,0.3,0.25c-0.29,0.44-0.68,0.46-1.12,0.26c-0.35-0.16-0.6-0.08-0.68,0.33c-0.01,0.05-0.04,0.1-0.06,0.14
				c-0.3,0.71-0.3,0.73,0.39,1.12c0.29,0.16,0.41,0.35,0.34,0.67c-0.02,0.1-0.03,0.21-0.01,0.31c0.12,0.51-0.1,0.83-0.57,1
				c-0.43,0.15-0.5,0.42-0.26,0.78c0.02,0.03,0.02,0.07,0.04,0.1c0.3,0.72,0.31,0.74,1.06,0.52c0.31-0.09,0.53-0.08,0.7,0.22
				c0.02,0.04,0.06,0.09,0.1,0.12c0.57,0.35,0.66,0.83,0.39,1.41c-0.11,0.24-0.05,0.4,0.21,0.47c0.08,0.02,0.16,0.06,0.24,0.1
				c0.76,0.32,0.77,0.32,1.18-0.38c0.15-0.25,0.3-0.42,0.62-0.33c0.1,0.03,0.21,0.03,0.31,0.01c0.56-0.14,0.89,0.1,1.07,0.61
				c0.13,0.35,0.34,0.45,0.68,0.23c0.07-0.05,0.16-0.08,0.24-0.1c0.58-0.12,0.73-0.44,0.48-0.97c-0.24-0.51,0.05-0.78,0.43-1
				c0.16,0.06,0.1,0.18,0.1,0.27c0,2.12,0,4.23,0.01,6.35c0,0.45-0.13,0.81-0.51,1.07c-0.07,0.12-0.18,0.08-0.28,0.08
				c-1.85,0-3.7,0-5.55,0c-0.09,0-0.17,0-0.25-0.05c-0.14-0.18-0.28-0.35-0.42-0.53c-0.18-0.2-0.17-0.4-0.04-0.62
				c0.08-0.12,0.16-0.24,0.18-0.37c0.05-0.51,0.36-0.69,0.84-0.68c0.18,0.03,0.35,0.02,0.49-0.11
				C638.3,134.58,638.49,134.11,638.17,133.68z"/>
			<path class="st18" d="M642.04,124.14c1.45,0.79,1.93,2.21,1.54,3.49c-0.48,1.57-2.15,2.44-3.7,1.91
				c-1.55-0.53-2.34-2.24-1.76-3.78c0.22-0.6,0.54-1.12,1.1-1.45c0.21-0.12,0.41-0.23,0.65-0.29l-0.01,0.01
				C640.6,123.74,641.33,123.73,642.04,124.14z"/>
			<path class="st18" d="M630.79,132.93c0.6-1.03,1.57-1.43,2.69-1.33c1.27,0.12,2.14,0.84,2.55,2.07c0.18,0.19,0.01,0.46,0.13,0.67
				c-0.13,0.43-0.11,0.89-0.31,1.31c-0.32,0.67-0.84,1.11-1.48,1.44c-0.73,0.38-1.46,0.34-2.19,0.03l0.01,0.01
				c-0.15-0.05-0.3-0.1-0.43-0.19c-0.61-0.38-1.04-0.89-1.25-1.59c-0.22-0.59-0.24-1.19,0.01-1.78l-0.01,0.01
				C630.56,133.35,630.68,133.14,630.79,132.93z"/>
		</g>
	</g>
	<rect x="72.18" y="384.73" class="st11" width="115.36" height="47.71"/>
	<text transform="matrix(1 0 0 1 72.177 392.032)"><tspan x="0" y="0" class="st9 st22">The RM visits the </tspan><tspan x="0" y="12" class="st9 st22">property and sends his </tspan><tspan x="0" y="24" class="st9 st22">feedback to the Loan </tspan><tspan x="0" y="36" class="st9 st22">Processor.</tspan></text>
	<rect x="241.37" y="384.73" class="st11" width="109.05" height="36.86"/>
	<text transform="matrix(1 0 0 1 241.3707 392.032)"><tspan x="0" y="0" class="st9 st22">Status changes from </tspan><tspan x="0" y="12" class="st9 st22">“Site visit” to  </tspan><tspan x="0" y="24" class="st9 st22">“Final review”.</tspan></text>
	<circle class="st30" cx="53.59" cy="398.32" r="13.59"/>
	<circle class="st30" cx="222.78" cy="398.32" r="13.59"/>
	<g>
		<g>
			<path class="st27" d="M226.15,393.95h2.7c0.13,0,0.19-0.15,0.1-0.25l-2.7-2.7c-0.09-0.09-0.25-0.03-0.25,0.1v2.7
				C226,393.88,226.07,393.95,226.15,393.95z"/>
			<path class="st27" d="M224.14,398.06c-0.18-0.18-0.47-0.18-0.65,0l-1.06,1.06l-0.37-0.37c-0.17-0.18-0.46-0.18-0.64,0
				s-0.18,0.46,0,0.64l0.69,0.69c0.09,0.09,0.2,0.14,0.32,0.14c0.12,0,0.24-0.05,0.33-0.14l1.38-1.38
				C224.32,398.52,224.32,398.23,224.14,398.06z M224.14,398.06c-0.18-0.18-0.47-0.18-0.65,0l-1.06,1.06l-0.37-0.37
				c-0.17-0.18-0.46-0.18-0.64,0s-0.18,0.46,0,0.64l0.69,0.69c0.09,0.09,0.2,0.14,0.32,0.14c0.12,0,0.24-0.05,0.33-0.14l1.38-1.38
				C224.32,398.52,224.32,398.23,224.14,398.06z M225.31,395.33c-0.38,0-0.69-0.3-0.69-0.69v-3.68h-6.5c-0.86,0-1.56,0.7-1.56,1.56
				v11.62c0,0.85,0.7,1.55,1.56,1.55h9.32c0.85,0,1.55-0.7,1.55-1.55v-8.81H225.31z M222.78,402.03c-1.64,0-2.97-1.33-2.97-2.96
				c0-1.63,1.33-2.96,2.97-2.96c1.63,0,2.96,1.33,2.96,2.96C225.74,400.7,224.41,402.03,222.78,402.03z M223.49,398.06l-1.06,1.06
				l-0.37-0.37c-0.17-0.18-0.46-0.18-0.64,0s-0.18,0.46,0,0.64l0.69,0.69c0.09,0.09,0.2,0.14,0.32,0.14c0.12,0,0.24-0.05,0.33-0.14
				l1.38-1.38c0.18-0.18,0.18-0.47,0-0.64C223.96,397.88,223.67,397.88,223.49,398.06z"/>
		</g>
	</g>
	<path class="st27" d="M59.82,397.04l-5.95-5.7c-0.16-0.15-0.4-0.15-0.56,0l-5.96,5.71c-0.13,0.13-0.2,0.3-0.2,0.48
		c0,0.37,0.3,0.67,0.67,0.67h0.94v5.09c0,0.44,0.36,0.8,0.8,0.8h2.28c0.22,0,0.4-0.18,0.4-0.4v-3.48c0-0.07,0.06-0.13,0.13-0.13
		h2.41c0.07,0,0.13,0.06,0.13,0.13v3.48c0,0.22,0.18,0.4,0.4,0.4h2.28c0.44,0,0.8-0.36,0.8-0.8v-5.09h0.94
		c0.37,0,0.67-0.3,0.67-0.67C60.02,397.35,59.95,397.18,59.82,397.04z"/>
	<rect x="457.15" y="382.95" class="st11" width="115.36" height="49.5"/>
	<text transform="matrix(1 0 0 1 457.1474 390.2481)"><tspan x="0" y="0" class="st9 st22">The Loan Processor </tspan><tspan x="0" y="12" class="st9 st22">gets the feedback, and </tspan><tspan x="0" y="24" class="st9 st22">can approve or reject.</tspan></text>
	<rect x="626.34" y="382.95" class="st11" width="109.05" height="49.5"/>
	<text transform="matrix(1 0 0 1 626.342 390.2481)"><tspan x="0" y="0" class="st9 st22">This invokes another </tspan><tspan x="0" y="12" class="st9 st22">camunda process to </tspan><tspan x="0" y="24" class="st9 st22">update the loan status </tspan><tspan x="0" y="36" class="st9 st22">to approve or reject.</tspan></text>
	<circle class="st29" cx="438.56" cy="396.76" r="13.59"/>
	<circle class="st29" cx="607.75" cy="396.54" r="13.59"/>
	<g>
		<g>
			<path class="st18" d="M608.87,400.18c-0.1-0.01-0.19-0.01-0.29-0.02c-0.17-0.1-0.38,0.01-0.55-0.09l-0.05-0.02l-0.05,0.01
				c-0.23-0.14-0.18-0.44-0.32-0.63c-0.07-0.14-0.14-0.28-0.2-0.42c-0.09-0.14-0.09-0.28-0.01-0.42c0.02-0.03,0.04-0.06,0.06-0.09
				c0.54-0.79,0.5-0.93-0.29-1.51c-0.31-0.23-0.45,0.04-0.61,0.18c-0.23,0.19-0.41,0.53-0.77,0.26c-0.39-0.28-1.15-0.09-1.08-0.96
				c0.05-0.6-0.13-0.67-0.86-0.61c-0.24,0.09-0.63-0.04-0.63,0.42c0,0.06-0.01,0.11-0.01,0.17c-0.11,0.17,0.05,0.4-0.12,0.56
				c-0.32,0.31-0.85,0.18-1.14,0.56c-0.17,0.08-0.28-0.06-0.41-0.12c-0.43-0.2-0.55-0.52-0.54-0.99c0.03-1.67,0.01-3.35,0.02-5.02
				c0-0.25-0.07-0.52,0.1-0.75c0.09-0.11,0.19-0.23,0.33-0.28l-0.01,0.01c0.18-0.11,0.37-0.17,0.59-0.17c2.11,0,4.22,0,6.33,0.01
				c0.14,0,0.42-0.1,0.3,0.25c-0.29,0.44-0.68,0.46-1.12,0.26c-0.35-0.16-0.6-0.08-0.68,0.33c-0.01,0.05-0.04,0.1-0.06,0.14
				c-0.3,0.71-0.3,0.73,0.39,1.12c0.29,0.16,0.41,0.35,0.34,0.67c-0.02,0.1-0.03,0.21-0.01,0.31c0.12,0.51-0.1,0.83-0.57,1
				c-0.43,0.15-0.5,0.42-0.26,0.78c0.02,0.03,0.02,0.07,0.04,0.1c0.3,0.72,0.31,0.74,1.06,0.52c0.31-0.09,0.53-0.08,0.7,0.22
				c0.02,0.04,0.06,0.09,0.1,0.12c0.57,0.35,0.66,0.83,0.39,1.41c-0.11,0.24-0.05,0.4,0.21,0.47c0.08,0.02,0.16,0.06,0.24,0.1
				c0.76,0.32,0.77,0.32,1.18-0.38c0.15-0.25,0.3-0.42,0.62-0.33c0.1,0.03,0.21,0.03,0.31,0.01c0.56-0.14,0.89,0.1,1.07,0.61
				c0.13,0.35,0.34,0.45,0.68,0.23c0.07-0.05,0.16-0.08,0.24-0.1c0.58-0.12,0.73-0.44,0.48-0.97c-0.24-0.51,0.05-0.78,0.43-1
				c0.16,0.06,0.1,0.18,0.1,0.27c0,2.12,0,4.23,0.01,6.35c0,0.45-0.13,0.81-0.51,1.07c-0.07,0.12-0.18,0.08-0.28,0.08
				c-1.85,0-3.7,0-5.55,0c-0.09,0-0.17,0-0.25-0.05c-0.14-0.18-0.28-0.35-0.42-0.53c-0.18-0.2-0.17-0.4-0.04-0.62
				c0.08-0.12,0.16-0.24,0.18-0.37c0.05-0.51,0.36-0.69,0.84-0.68c0.18,0.03,0.35,0.02,0.49-0.11
				C609,401.08,609.19,400.61,608.87,400.18z"/>
			<path class="st18" d="M612.75,390.64c1.45,0.79,1.93,2.21,1.54,3.49c-0.48,1.57-2.15,2.44-3.7,1.91
				c-1.55-0.53-2.34-2.24-1.76-3.78c0.22-0.6,0.54-1.12,1.1-1.45c0.21-0.12,0.41-0.23,0.65-0.29l-0.01,0.01
				C611.31,390.25,612.04,390.24,612.75,390.64z"/>
			<path class="st18" d="M601.5,399.43c0.6-1.03,1.57-1.43,2.69-1.33c1.27,0.12,2.14,0.84,2.55,2.07c0.18,0.19,0.01,0.46,0.13,0.67
				c-0.13,0.43-0.11,0.89-0.31,1.31c-0.32,0.67-0.84,1.11-1.48,1.44c-0.72,0.38-1.46,0.34-2.19,0.03l0.01,0.01
				c-0.15-0.05-0.3-0.1-0.43-0.19c-0.61-0.38-1.04-0.89-1.25-1.59c-0.22-0.6-0.24-1.19,0.01-1.78l-0.01,0.01
				C601.26,399.85,601.39,399.64,601.5,399.43z"/>
		</g>
	</g>
	<g>
		<path class="st18" d="M433.65,392.59c-2.3,0-4.17,1.87-4.17,4.17c0,2.3,1.87,4.17,4.17,4.17c2.31,0,4.17-1.87,4.17-4.17
			C437.82,394.46,435.96,392.59,433.65,392.59z M436.25,395.52l-3.17,3.17c-0.09,0.1-0.22,0.15-0.34,0.15
			c-0.13,0-0.25-0.05-0.35-0.15l-1.33-1.33c-0.19-0.19-0.19-0.51,0-0.69c0.18-0.19,0.51-0.19,0.69,0l0.98,0.98l2.83-2.83
			c0.19-0.19,0.5-0.19,0.69,0c0.09,0.09,0.14,0.22,0.15,0.35C436.39,395.31,436.34,395.44,436.25,395.52z"/>
		<path class="st18" d="M443.46,392.59c-2.3,0-4.17,1.87-4.17,4.17c0,2.3,1.87,4.17,4.17,4.17c2.31,0,4.17-1.87,4.17-4.17
			C447.64,394.46,445.77,392.59,443.46,392.59z M445.49,398.1c0.09,0.09,0.14,0.22,0.14,0.35c0,0.13-0.05,0.25-0.14,0.34
			c-0.19,0.19-0.5,0.19-0.69,0l-1.34-1.33l-1.33,1.33c-0.09,0.09-0.22,0.15-0.34,0.15c-0.13,0-0.26-0.05-0.35-0.15
			c-0.09-0.09-0.14-0.22-0.14-0.34c0-0.13,0.05-0.26,0.14-0.35l1.34-1.33l-1.34-1.34c-0.19-0.19-0.19-0.5,0-0.69
			c0.19-0.19,0.51-0.19,0.69,0l1.33,1.33l1.34-1.33c0.18-0.19,0.51-0.19,0.69,0c0.09,0.09,0.14,0.21,0.14,0.34
			c0,0.13-0.05,0.25-0.14,0.34l-1.34,1.34L445.49,398.1z"/>
	</g>
	<g>
		<circle class="st31" cx="259.74" cy="45.06" r="10.41"/>
	</g>
	<text transform="matrix(1 0 0 1 253.0409 49.3999)" class="st3 st4 st7">01</text>
	<circle class="st29" cx="727.51" cy="45.06" r="10.41"/>
	<text transform="matrix(1 0 0 1 720.812 49.3999)" class="st18 st4 st7">02</text>
	<circle class="st29" cx="727.51" cy="310.08" r="10.41"/>
	<text transform="matrix(1 0 0 1 720.812 314.4151)" class="st18 st4 st7">04</text>
	<circle class="st30" cx="348.76" cy="310.08" r="10.41"/>
	<text transform="matrix(1 0 0 1 342.0603 314.4151)" class="st27 st4 st7">03</text>
	<g>
		<g>
			<path class="st18" d="M345.43,125.59h2.7c0.13,0,0.19-0.15,0.1-0.25l-2.7-2.7c-0.09-0.09-0.25-0.03-0.25,0.1v2.7
				C345.28,125.52,345.35,125.59,345.43,125.59z"/>
			<path class="st18" d="M344.59,126.96c-0.38,0-0.69-0.3-0.69-0.69v-3.68h-6.5c-0.86,0-1.56,0.7-1.56,1.56v11.62
				c0,0.85,0.7,1.55,1.56,1.55h9.32c0.85,0,1.55-0.7,1.55-1.55v-8.81H344.59z"/>
		</g>
	</g>
</g>
</svg>
